<svg width="562" height="539" viewBox="0 0 562 539" fill="none" xmlns="http://www.w3.org/2000/svg">
<path d="M0 16C0 7.16345 7.16344 0 16 0H562V539H16C7.16344 539 0 531.837 0 523V16Z" fill="#DFE4E9"/>
<rect x="44" y="49" width="474" height="441" rx="8" fill="#F9FBFF"/>
<path d="M78 125.5H489" stroke="#B7B8BE" stroke-opacity="0.73" stroke-linecap="round"/>
<rect x="68" y="419" width="421" height="44" rx="22" fill="#E0EAFF"/>
<path d="M106.848 437.92H105.812C105.77 436.548 104.762 435.414 102.998 435.414C100.982 435.414 100.072 436.8 100.072 438.76V440.384C100.072 442.316 100.94 443.814 103.068 443.814C104.818 443.814 105.896 442.82 105.896 440.93V440.678H103.152V439.768H106.946V440.804C106.946 443.058 105.56 444.696 103.054 444.696C100.324 444.696 98.98 442.75 98.98 440.356V438.802C98.98 436.296 100.394 434.504 102.984 434.504C105.378 434.504 106.806 435.988 106.848 437.92ZM111.874 444.668C110.012 444.668 108.71 443.478 108.71 441.546V440.398C108.71 438.452 109.816 437.164 111.832 437.164C113.876 437.164 114.87 438.522 114.87 440.286V441.35H109.732V441.602C109.732 442.848 110.376 443.856 111.874 443.856C112.952 443.856 113.61 443.282 113.848 442.47H114.8C114.562 443.758 113.372 444.668 111.874 444.668ZM109.732 440.314V440.538H113.876V440.202C113.876 438.928 113.232 437.976 111.832 437.976C110.292 437.976 109.732 438.998 109.732 440.314ZM116.812 444.5V437.332H117.82V438.55C118.156 437.738 118.968 437.164 120.214 437.164C121.824 437.164 122.846 438.256 122.846 439.978V444.5H121.782V440.132C121.782 438.914 121.236 438.088 119.948 438.088C118.772 438.088 117.876 438.802 117.876 440.286V444.5H116.812ZM127.856 444.668C125.994 444.668 124.692 443.478 124.692 441.546V440.398C124.692 438.452 125.798 437.164 127.814 437.164C129.858 437.164 130.852 438.522 130.852 440.286V441.35H125.714V441.602C125.714 442.848 126.358 443.856 127.856 443.856C128.934 443.856 129.592 443.282 129.83 442.47H130.782C130.544 443.758 129.354 444.668 127.856 444.668ZM125.714 440.314V440.538H129.858V440.202C129.858 438.928 129.214 437.976 127.814 437.976C126.274 437.976 125.714 438.998 125.714 440.314ZM132.794 444.5V437.332H133.788V438.984C134.054 437.878 134.824 437.29 136.126 437.29H136.294V438.284H136.084C134.726 438.284 133.858 439.18 133.858 440.986V444.5H132.794ZM143.186 444.5H142.164V443.604C141.856 444.108 140.89 444.668 139.7 444.668C138.006 444.668 136.984 443.716 136.984 442.414C136.984 441.028 138.118 440.174 139.826 440.174C140.96 440.174 141.716 440.65 142.122 441.07V439.74C142.122 438.76 141.478 438.004 140.33 438.004C139.42 438.004 138.832 438.424 138.538 439.082H137.558C137.922 437.892 138.93 437.164 140.344 437.164C142.122 437.164 143.186 438.326 143.186 439.74V444.5ZM139.924 443.982C141.044 443.982 142.122 443.324 142.122 442.4C142.122 441.504 141.058 440.874 139.98 440.874C138.79 440.874 137.992 441.434 137.992 442.428C137.992 443.422 138.818 443.982 139.924 443.982ZM148.707 444.5H147.811C146.439 444.5 145.865 443.814 145.865 442.596V438.2H144.647V437.332H145.865V435.274H146.929V437.332H148.763V438.2H146.929V442.596C146.929 443.324 147.195 443.632 147.993 443.632H148.707V444.5ZM153.245 444.668C151.383 444.668 150.081 443.478 150.081 441.546V440.398C150.081 438.452 151.187 437.164 153.203 437.164C155.247 437.164 156.241 438.522 156.241 440.286V441.35H151.103V441.602C151.103 442.848 151.747 443.856 153.245 443.856C154.323 443.856 154.981 443.282 155.219 442.47H156.171C155.933 443.758 154.743 444.668 153.245 444.668ZM151.103 440.314V440.538H155.247V440.202C155.247 438.928 154.603 437.976 153.203 437.976C151.663 437.976 151.103 438.998 151.103 440.314ZM169.624 440.384C169.624 442.75 168.252 444.696 165.508 444.696C162.764 444.696 161.392 442.75 161.392 440.384V438.816C161.392 436.45 162.764 434.504 165.508 434.504C168.252 434.504 169.624 436.45 169.624 438.816V440.384ZM165.508 443.786C167.594 443.786 168.532 442.288 168.532 440.44V438.76C168.532 436.912 167.594 435.414 165.508 435.414C163.422 435.414 162.484 436.912 162.484 438.76V440.44C162.484 442.288 163.422 443.786 165.508 443.786ZM177.626 437.332V444.5H176.618V443.282C176.282 444.094 175.47 444.668 174.224 444.668C172.656 444.668 171.662 443.576 171.662 441.854V437.332H172.726V441.7C172.726 442.918 173.258 443.772 174.49 443.772C175.666 443.772 176.562 443.03 176.562 441.546V437.332H177.626ZM183.324 444.5H182.428C181.056 444.5 180.482 443.814 180.482 442.596V438.2H179.264V437.332H180.482V435.274H181.546V437.332H183.38V438.2H181.546V442.596C181.546 443.324 181.812 443.632 182.61 443.632H183.324V444.5ZM186.18 446.936H185.116V437.332H186.124V438.452C186.432 437.794 187.356 437.164 188.546 437.164C190.464 437.164 191.542 438.55 191.542 440.37V441.462C191.542 443.324 190.38 444.668 188.574 444.668C187.454 444.668 186.614 444.164 186.18 443.436V446.936ZM190.478 441.42V440.412C190.478 439.096 189.848 438.032 188.364 438.032C186.95 438.032 186.18 439.11 186.18 440.496V441.42C186.18 442.89 187.188 443.8 188.378 443.8C189.736 443.8 190.478 442.736 190.478 441.42ZM199.35 437.332V444.5H198.342V443.282C198.006 444.094 197.194 444.668 195.948 444.668C194.38 444.668 193.386 443.576 193.386 441.854V437.332H194.45V441.7C194.45 442.918 194.982 443.772 196.214 443.772C197.39 443.772 198.286 443.03 198.286 441.546V437.332H199.35ZM205.048 444.5H204.152C202.78 444.5 202.206 443.814 202.206 442.596V438.2H200.988V437.332H202.206V435.274H203.27V437.332H205.104V438.2H203.27V442.596C203.27 443.324 203.536 443.632 204.334 443.632H205.048V444.5ZM206.591 443.898C206.591 443.492 206.885 443.212 207.305 443.212C207.725 443.212 208.019 443.492 208.019 443.898C208.019 444.304 207.711 444.584 207.305 444.584C206.899 444.584 206.591 444.304 206.591 443.898ZM209.927 443.898C209.927 443.492 210.221 443.212 210.641 443.212C211.061 443.212 211.355 443.492 211.355 443.898C211.355 444.304 211.047 444.584 210.641 444.584C210.235 444.584 209.927 444.304 209.927 443.898ZM213.263 443.898C213.263 443.492 213.557 443.212 213.977 443.212C214.397 443.212 214.691 443.492 214.691 443.898C214.691 444.304 214.383 444.584 213.977 444.584C213.571 444.584 213.263 444.304 213.263 443.898Z" fill="#18181A" fill-opacity="0.57"/>
<circle cx="444" cy="441" r="15" fill="#4887A1"/>
<g clip-path="url(#clip0_173_579)">
<path d="M438 435C438 434.735 438.105 434.48 438.293 434.293C438.48 434.105 438.735 434 439 434H441C441.265 434 441.52 434.105 441.707 434.293C441.895 434.48 442 434.735 442 435V447C442 447.265 441.895 447.52 441.707 447.707C441.52 447.895 441.265 448 441 448H439C438.735 448 438.48 447.895 438.293 447.707C438.105 447.52 438 447.265 438 447V435Z" stroke="#DEDEFB" stroke-linecap="round" stroke-linejoin="round"/>
<path d="M446 435C446 434.735 446.105 434.48 446.293 434.293C446.48 434.105 446.735 434 447 434H449C449.265 434 449.52 434.105 449.707 434.293C449.895 434.48 450 434.735 450 435V447C450 447.265 449.895 447.52 449.707 447.707C449.52 447.895 449.265 448 449 448H447C446.735 448 446.48 447.895 446.293 447.707C446.105 447.52 446 447.265 446 447V435Z" stroke="#DEDEFB" stroke-linecap="round" stroke-linejoin="round"/>
</g>
<path d="M78 159C78 154.582 81.5817 151 86 151H189C193.418 151 197 154.582 197 159V178C197 182.418 193.418 186 189 186H85.3248C84.3981 186 83.5344 186.469 83.03 187.247L80.177 191.644C79.5353 192.633 78 192.179 78 191V159Z" fill="#DEE4EC" fill-opacity="0.92"/>
<path d="M105.418 163.2L103.094 173H102.044L99.454 164.39L96.864 173H95.814L93.49 163.2H94.54L96.388 171.544L98.908 163.2H100L102.52 171.544L104.368 163.2H105.418ZM106.876 173V165.832H107.87V167.484C108.136 166.378 108.906 165.79 110.208 165.79H110.376V166.784H110.166C108.808 166.784 107.94 167.68 107.94 169.486V173H106.876ZM111.882 173V165.832H112.946V173H111.882ZM111.742 163.942C111.742 163.564 112.008 163.298 112.414 163.298C112.82 163.298 113.086 163.564 113.086 163.942C113.086 164.32 112.82 164.586 112.414 164.586C112.008 164.586 111.742 164.32 111.742 163.942ZM118.714 173H117.818C116.446 173 115.872 172.314 115.872 171.096V166.7H114.654V165.832H115.872V163.774H116.936V165.832H118.77V166.7H116.936V171.096C116.936 171.824 117.202 172.132 118 172.132H118.714V173ZM123.253 173.168C121.391 173.168 120.089 171.978 120.089 170.046V168.898C120.089 166.952 121.195 165.664 123.211 165.664C125.255 165.664 126.249 167.022 126.249 168.786V169.85H121.111V170.102C121.111 171.348 121.755 172.356 123.253 172.356C124.331 172.356 124.989 171.782 125.227 170.97H126.179C125.941 172.258 124.751 173.168 123.253 173.168ZM121.111 168.814V169.038H125.255V168.702C125.255 167.428 124.611 166.476 123.211 166.476C121.671 166.476 121.111 167.498 121.111 168.814ZM137.434 173H136.412V172.104C136.104 172.608 135.138 173.168 133.948 173.168C132.254 173.168 131.232 172.216 131.232 170.914C131.232 169.528 132.366 168.674 134.074 168.674C135.208 168.674 135.964 169.15 136.37 169.57V168.24C136.37 167.26 135.726 166.504 134.578 166.504C133.668 166.504 133.08 166.924 132.786 167.582H131.806C132.17 166.392 133.178 165.664 134.592 165.664C136.37 165.664 137.434 166.826 137.434 168.24V173ZM134.172 172.482C135.292 172.482 136.37 171.824 136.37 170.9C136.37 170.004 135.306 169.374 134.228 169.374C133.038 169.374 132.24 169.934 132.24 170.928C132.24 171.922 133.066 172.482 134.172 172.482ZM139.62 162.78H140.684V166.896C141.118 166.168 141.958 165.664 143.078 165.664C144.884 165.664 146.046 167.008 146.046 168.87V169.962C146.046 171.754 144.94 173.168 143.05 173.168C141.86 173.168 140.936 172.538 140.628 171.88V173H139.62V162.78ZM144.982 169.92V168.912C144.982 167.596 144.24 166.532 142.882 166.532C141.692 166.532 140.684 167.442 140.684 168.912V169.836C140.684 171.222 141.454 172.3 142.868 172.3C144.352 172.3 144.982 171.236 144.982 169.92ZM150.816 173.168C148.772 173.168 147.61 171.768 147.61 170.004V168.828C147.61 167.064 148.786 165.664 150.816 165.664C152.846 165.664 154.008 167.064 154.008 168.828V170.004C154.008 171.768 152.846 173.168 150.816 173.168ZM152.986 168.842C152.986 167.484 152.23 166.518 150.816 166.518C149.402 166.518 148.646 167.484 148.646 168.842V169.99C148.646 171.348 149.402 172.314 150.816 172.314C152.23 172.314 152.986 171.348 152.986 169.99V168.842ZM161.825 165.832V173H160.817V171.782C160.481 172.594 159.669 173.168 158.423 173.168C156.855 173.168 155.861 172.076 155.861 170.354V165.832H156.925V170.2C156.925 171.418 157.457 172.272 158.689 172.272C159.865 172.272 160.761 171.53 160.761 170.046V165.832H161.825ZM167.523 173H166.627C165.255 173 164.681 172.314 164.681 171.096V166.7H163.463V165.832H164.681V163.774H165.745V165.832H167.579V166.7H165.745V171.096C165.745 171.824 166.011 172.132 166.809 172.132H167.523V173ZM172.497 172.398C172.497 171.992 172.791 171.712 173.211 171.712C173.631 171.712 173.925 171.992 173.925 172.398C173.925 172.804 173.617 173.084 173.211 173.084C172.805 173.084 172.497 172.804 172.497 172.398ZM175.833 172.398C175.833 171.992 176.127 171.712 176.547 171.712C176.967 171.712 177.261 171.992 177.261 172.398C177.261 172.804 176.953 173.084 176.547 173.084C176.141 173.084 175.833 172.804 175.833 172.398Z" fill="#44464A" fill-opacity="0.62"/>
<path d="M85.08 99.78C81.76 99.78 79.7 97.68 79.7 94.78V85.5H81.26V94.92C81.26 97.1 82.72 98.48 85.08 98.48C87.44 98.48 88.9 97.1 88.9 94.92V85.5H90.46V94.78C90.46 97.68 88.4 99.78 85.08 99.78ZM95.3802 99.5V89.26H96.8202V91C97.3002 89.84 98.4602 89.02 100.24 89.02C102.54 89.02 104 90.58 104 93.04V99.5H102.48V93.26C102.48 91.52 101.7 90.34 99.8602 90.34C98.1802 90.34 96.9002 91.36 96.9002 93.48V99.5H95.3802ZM113.54 99.5H112.26C110.3 99.5 109.48 98.52 109.48 96.78V90.5H107.74V89.26H109.48V86.32H111V89.26H113.62V90.5H111V96.78C111 97.82 111.38 98.26 112.52 98.26H113.54V99.5ZM117.801 99.5V89.26H119.321V99.5H117.801ZM117.601 86.56C117.601 86.02 117.981 85.64 118.561 85.64C119.141 85.64 119.521 86.02 119.521 86.56C119.521 87.1 119.141 87.48 118.561 87.48C117.981 87.48 117.601 87.1 117.601 86.56ZM129.162 99.5H127.882C125.922 99.5 125.102 98.52 125.102 96.78V90.5H123.362V89.26H125.102V86.32H126.622V89.26H129.242V90.5H126.622V96.78C126.622 97.82 127.002 98.26 128.142 98.26H129.162V99.5ZM133.423 99.5V84.9H134.943V99.5H133.423ZM143.904 99.74C141.244 99.74 139.384 98.04 139.384 95.28V93.64C139.384 90.86 140.964 89.02 143.844 89.02C146.764 89.02 148.184 90.96 148.184 93.48V95H140.844V95.36C140.844 97.14 141.764 98.58 143.904 98.58C145.444 98.58 146.384 97.76 146.724 96.6H148.084C147.744 98.44 146.044 99.74 143.904 99.74ZM140.844 93.52V93.84H146.764V93.36C146.764 91.54 145.844 90.18 143.844 90.18C141.644 90.18 140.844 91.64 140.844 93.52ZM159.718 84.9H161.238V99.5H159.798V97.9C159.358 98.84 158.038 99.74 156.338 99.74C153.638 99.74 152.058 97.72 152.058 95.16V93.6C152.058 90.94 153.718 89.02 156.298 89.02C157.898 89.02 159.098 89.74 159.718 90.78V84.9ZM153.578 93.66V95.1C153.578 96.98 154.478 98.5 156.598 98.5C158.618 98.5 159.718 96.96 159.718 94.98V93.66C159.718 91.56 158.278 90.26 156.578 90.26C154.638 90.26 153.578 91.78 153.578 93.66ZM172.677 85.5H177.937C181.497 85.5 183.457 87.76 183.457 90.88V94.12C183.457 97.24 181.497 99.5 177.937 99.5H172.677V85.5ZM177.717 98.22C180.477 98.22 181.917 96.56 181.917 94.12V90.88C181.917 88.44 180.477 86.78 177.717 86.78H174.217V98.22H177.717ZM192.141 99.74C189.221 99.74 187.561 97.74 187.561 95.22V93.54C187.561 91.02 189.241 89.02 192.141 89.02C195.041 89.02 196.701 91.02 196.701 93.54V95.22C196.701 97.74 195.041 99.74 192.141 99.74ZM195.241 93.56C195.241 91.62 194.161 90.24 192.141 90.24C190.121 90.24 189.041 91.62 189.041 93.56V95.2C189.041 97.14 190.121 98.52 192.141 98.52C194.161 98.52 195.241 97.14 195.241 95.2V93.56ZM205.088 99.74C202.248 99.74 200.548 97.82 200.548 95.24V93.52C200.548 90.94 202.248 89.02 205.088 89.02C207.668 89.02 209.348 90.7 209.468 92.86H208.108C207.908 91.48 207.048 90.22 205.108 90.22C203.008 90.22 202.028 91.58 202.028 93.5V95.26C202.028 97.18 203.008 98.54 205.108 98.54C207.048 98.54 207.908 97.28 208.108 95.9H209.468C209.348 98.06 207.668 99.74 205.088 99.74Z" fill="#44464A"/>
<g clip-path="url(#clip1_173_579)">
<path d="M386.25 86.625V90.125C386.25 90.3571 386.342 90.5796 386.506 90.7437C386.67 90.9078 386.893 91 387.125 91H390.625" stroke="#717384" stroke-opacity="0.74" stroke-width="2" stroke-linecap="round" stroke-linejoin="round"/>
<path d="M388.875 102.375H380.125C379.661 102.375 379.216 102.191 378.888 101.862C378.559 101.534 378.375 101.089 378.375 100.625V88.375C378.375 87.9109 378.559 87.4658 378.888 87.1376C379.216 86.8094 379.661 86.625 380.125 86.625H386.25L390.625 91V100.625C390.625 101.089 390.441 101.534 390.112 101.862C389.784 102.191 389.339 102.375 388.875 102.375Z" stroke="#717384" stroke-opacity="0.74" stroke-width="2" stroke-linecap="round" stroke-linejoin="round"/>
</g>
<path d="M404.62 100.196C402.534 100.196 400.966 99.076 400.966 97.284V97.032H402.002V97.256C402.002 98.488 402.996 99.328 404.62 99.328C406.23 99.328 407.21 98.628 407.21 97.382C407.21 96.584 406.72 96.024 405.81 95.786L403.038 95.058C401.624 94.694 401.092 93.868 401.092 92.748C401.092 91.012 402.464 90.004 404.48 90.004C406.496 90.004 407.91 91.138 407.91 92.804V93.042H406.888V92.832C406.888 91.67 405.992 90.872 404.48 90.872C403.108 90.872 402.142 91.502 402.142 92.664C402.142 93.476 402.52 93.938 403.36 94.162L406.202 94.918C407.406 95.24 408.26 96.038 408.26 97.298C408.26 99.09 406.706 100.196 404.62 100.196ZM416.133 100H415.111V99.104C414.803 99.608 413.837 100.168 412.647 100.168C410.953 100.168 409.931 99.216 409.931 97.914C409.931 96.528 411.065 95.674 412.773 95.674C413.907 95.674 414.663 96.15 415.069 96.57V95.24C415.069 94.26 414.425 93.504 413.277 93.504C412.367 93.504 411.779 93.924 411.485 94.582H410.505C410.869 93.392 411.877 92.664 413.291 92.664C415.069 92.664 416.133 93.826 416.133 95.24V100ZM412.871 99.482C413.991 99.482 415.069 98.824 415.069 97.9C415.069 97.004 414.005 96.374 412.927 96.374C411.737 96.374 410.939 96.934 410.939 97.928C410.939 98.922 411.765 99.482 412.871 99.482ZM423.824 92.832L421.192 100H420.072L417.44 92.832H418.49L420.632 98.936L422.774 92.832H423.824ZM427.969 100.168C426.107 100.168 424.805 98.978 424.805 97.046V95.898C424.805 93.952 425.911 92.664 427.927 92.664C429.971 92.664 430.965 94.022 430.965 95.786V96.85H425.827V97.102C425.827 98.348 426.471 99.356 427.969 99.356C429.047 99.356 429.705 98.782 429.943 97.97H430.895C430.657 99.258 429.467 100.168 427.969 100.168ZM425.827 95.814V96.038H429.971V95.702C429.971 94.428 429.327 93.476 427.927 93.476C426.387 93.476 425.827 94.498 425.827 95.814ZM442.151 100H441.129V99.104C440.821 99.608 439.855 100.168 438.665 100.168C436.971 100.168 435.949 99.216 435.949 97.914C435.949 96.528 437.083 95.674 438.791 95.674C439.925 95.674 440.681 96.15 441.087 96.57V95.24C441.087 94.26 440.443 93.504 439.295 93.504C438.385 93.504 437.797 93.924 437.503 94.582H436.523C436.887 93.392 437.895 92.664 439.309 92.664C441.087 92.664 442.151 93.826 442.151 95.24V100ZM438.889 99.482C440.009 99.482 441.087 98.824 441.087 97.9C441.087 97.004 440.023 96.374 438.945 96.374C437.755 96.374 436.957 96.934 436.957 97.928C436.957 98.922 437.783 99.482 438.889 99.482ZM446.969 100.168C445.233 100.168 444.001 99.3 444.001 97.914V97.844H444.967V97.886C444.967 98.782 445.807 99.37 446.983 99.37C448.089 99.37 448.887 98.936 448.887 98.012C448.887 97.508 448.565 97.144 447.991 97.018L445.863 96.528C444.799 96.29 444.183 95.646 444.183 94.708C444.183 93.364 445.317 92.664 446.899 92.664C448.397 92.664 449.559 93.574 449.559 94.904V94.974H448.593V94.932C448.593 94.05 447.949 93.462 446.885 93.462C445.891 93.462 445.163 93.882 445.163 94.68C445.163 95.17 445.401 95.478 445.919 95.604L448.117 96.122C449.223 96.388 449.881 96.934 449.881 97.97C449.881 99.244 448.649 100.168 446.969 100.168ZM460.082 89.78H461.146V100H460.138V98.88C459.83 99.538 458.906 100.168 457.716 100.168C455.826 100.168 454.72 98.754 454.72 96.962V95.87C454.72 94.008 455.882 92.664 457.688 92.664C458.808 92.664 459.648 93.168 460.082 93.896V89.78ZM455.784 95.912V96.92C455.784 98.236 456.414 99.3 457.898 99.3C459.312 99.3 460.082 98.222 460.082 96.836V95.912C460.082 94.442 459.074 93.532 457.884 93.532C456.526 93.532 455.784 94.596 455.784 95.912ZM463.409 100V92.832H464.403V94.484C464.669 93.378 465.439 92.79 466.741 92.79H466.909V93.784H466.699C465.341 93.784 464.473 94.68 464.473 96.486V100H463.409ZM473.801 100H472.779V99.104C472.471 99.608 471.505 100.168 470.315 100.168C468.621 100.168 467.599 99.216 467.599 97.914C467.599 96.528 468.733 95.674 470.441 95.674C471.575 95.674 472.331 96.15 472.737 96.57V95.24C472.737 94.26 472.093 93.504 470.945 93.504C470.035 93.504 469.447 93.924 469.153 94.582H468.173C468.537 93.392 469.545 92.664 470.959 92.664C472.737 92.664 473.801 93.826 473.801 95.24V100ZM470.539 99.482C471.659 99.482 472.737 98.824 472.737 97.9C472.737 97.004 471.673 96.374 470.595 96.374C469.405 96.374 468.607 96.934 468.607 97.928C468.607 98.922 469.433 99.482 470.539 99.482ZM476.451 100V93.7H475.401V92.832H476.451V91.88C476.451 90.494 477.067 89.78 478.523 89.78H479.531V90.648H478.607C477.851 90.648 477.515 90.998 477.515 91.796V92.832H479.279V93.7H477.515V100H476.451ZM484.23 100H483.334C481.962 100 481.388 99.314 481.388 98.096V93.7H480.17V92.832H481.388V90.774H482.452V92.832H484.286V93.7H482.452V98.096C482.452 98.824 482.718 99.132 483.516 99.132H484.23V100Z" fill="#44464A" fill-opacity="0.74"/>
<rect x="219" y="207" width="266" height="187" rx="8" fill="#E8EDF7"/>
<path d="M234.274 233V223.2H235.366V227.596H240.546V223.2H241.638V233H240.546V228.576H235.366V233H234.274ZM246.86 233.168C244.998 233.168 243.696 231.978 243.696 230.046V228.898C243.696 226.952 244.802 225.664 246.818 225.664C248.862 225.664 249.856 227.022 249.856 228.786V229.85H244.718V230.102C244.718 231.348 245.362 232.356 246.86 232.356C247.938 232.356 248.596 231.782 248.834 230.97H249.786C249.548 232.258 248.358 233.168 246.86 233.168ZM244.718 228.814V229.038H248.862V228.702C248.862 227.428 248.218 226.476 246.818 226.476C245.278 226.476 244.718 227.498 244.718 228.814ZM251.798 233V225.832H252.792V227.484C253.058 226.378 253.828 225.79 255.13 225.79H255.298V226.784H255.088C253.73 226.784 252.862 227.68 252.862 229.486V233H251.798ZM259.438 233.168C257.576 233.168 256.274 231.978 256.274 230.046V228.898C256.274 226.952 257.38 225.664 259.396 225.664C261.44 225.664 262.434 227.022 262.434 228.786V229.85H257.296V230.102C257.296 231.348 257.94 232.356 259.438 232.356C260.516 232.356 261.174 231.782 261.412 230.97H262.364C262.126 232.258 260.936 233.168 259.438 233.168ZM257.296 228.814V229.038H261.44V228.702C261.44 227.428 260.796 226.476 259.396 226.476C257.856 226.476 257.296 227.498 257.296 228.814ZM267.809 233V225.832H268.873V233H267.809ZM267.669 223.942C267.669 223.564 267.935 223.298 268.341 223.298C268.747 223.298 269.013 223.564 269.013 223.942C269.013 224.32 268.747 224.586 268.341 224.586C267.935 224.586 267.669 224.32 267.669 223.942ZM273.844 233.168C272.108 233.168 270.876 232.3 270.876 230.914V230.844H271.842V230.886C271.842 231.782 272.682 232.37 273.858 232.37C274.964 232.37 275.762 231.936 275.762 231.012C275.762 230.508 275.44 230.144 274.866 230.018L272.738 229.528C271.674 229.29 271.058 228.646 271.058 227.708C271.058 226.364 272.192 225.664 273.774 225.664C275.272 225.664 276.434 226.574 276.434 227.904V227.974H275.468V227.932C275.468 227.05 274.824 226.462 273.76 226.462C272.766 226.462 272.038 226.882 272.038 227.68C272.038 228.17 272.276 228.478 272.794 228.604L274.992 229.122C276.098 229.388 276.756 229.934 276.756 230.97C276.756 232.244 275.524 233.168 273.844 233.168ZM283.879 235.436H282.843L283.753 233L281.079 225.832H282.129L284.313 231.922L286.413 225.832H287.463L284.817 233L283.879 235.436ZM291.664 233.168C289.62 233.168 288.458 231.768 288.458 230.004V228.828C288.458 227.064 289.634 225.664 291.664 225.664C293.694 225.664 294.856 227.064 294.856 228.828V230.004C294.856 231.768 293.694 233.168 291.664 233.168ZM293.834 228.842C293.834 227.484 293.078 226.518 291.664 226.518C290.25 226.518 289.494 227.484 289.494 228.842V229.99C289.494 231.348 290.25 232.314 291.664 232.314C293.078 232.314 293.834 231.348 293.834 229.99V228.842ZM302.673 225.832V233H301.665V231.782C301.329 232.594 300.517 233.168 299.271 233.168C297.703 233.168 296.709 232.076 296.709 230.354V225.832H297.773V230.2C297.773 231.418 298.305 232.272 299.537 232.272C300.713 232.272 301.609 231.53 301.609 230.046V225.832H302.673ZM304.941 233V225.832H305.935V227.484C306.201 226.378 306.971 225.79 308.273 225.79H308.441V226.784H308.231C306.873 226.784 306.005 227.68 306.005 229.486V233H304.941ZM313.239 233V225.832H314.233V227.484C314.499 226.378 315.269 225.79 316.571 225.79H316.739V226.784H316.529C315.171 226.784 314.303 227.68 314.303 229.486V233H313.239ZM320.88 233.168C319.018 233.168 317.716 231.978 317.716 230.046V228.898C317.716 226.952 318.822 225.664 320.838 225.664C322.882 225.664 323.876 227.022 323.876 228.786V229.85H318.738V230.102C318.738 231.348 319.382 232.356 320.88 232.356C321.958 232.356 322.616 231.782 322.854 230.97H323.806C323.568 232.258 322.378 233.168 320.88 233.168ZM318.738 228.814V229.038H322.882V228.702C322.882 227.428 322.238 226.476 320.838 226.476C319.298 226.476 318.738 227.498 318.738 228.814ZM328.45 233.168C326.714 233.168 325.482 232.3 325.482 230.914V230.844H326.448V230.886C326.448 231.782 327.288 232.37 328.464 232.37C329.57 232.37 330.368 231.936 330.368 231.012C330.368 230.508 330.046 230.144 329.472 230.018L327.344 229.528C326.28 229.29 325.664 228.646 325.664 227.708C325.664 226.364 326.798 225.664 328.38 225.664C329.878 225.664 331.04 226.574 331.04 227.904V227.974H330.074V227.932C330.074 227.05 329.43 226.462 328.366 226.462C327.372 226.462 326.644 226.882 326.644 227.68C326.644 228.17 326.882 228.478 327.4 228.604L329.598 229.122C330.704 229.388 331.362 229.934 331.362 230.97C331.362 232.244 330.13 233.168 328.45 233.168ZM339.081 225.832V233H338.073V231.782C337.737 232.594 336.925 233.168 335.679 233.168C334.111 233.168 333.117 232.076 333.117 230.354V225.832H334.181V230.2C334.181 231.418 334.713 232.272 335.945 232.272C337.121 232.272 338.017 231.53 338.017 230.046V225.832H339.081ZM341.419 233V222.78H342.483V233H341.419ZM348.252 233H347.356C345.984 233 345.41 232.314 345.41 231.096V226.7H344.192V225.832H345.41V223.774H346.474V225.832H348.308V226.7H346.474V231.096C346.474 231.824 346.74 232.132 347.538 232.132H348.252V233ZM349.862 232.398C349.862 231.992 350.156 231.712 350.576 231.712C350.996 231.712 351.29 231.992 351.29 232.398C351.29 232.804 350.982 233.084 350.576 233.084C350.17 233.084 349.862 232.804 349.862 232.398ZM349.862 227.764C349.862 227.358 350.156 227.078 350.576 227.078C350.996 227.078 351.29 227.358 351.29 227.764C351.29 228.17 350.982 228.45 350.576 228.45C350.17 228.45 349.862 228.17 349.862 227.764Z" fill="#44464A" fill-opacity="0.62"/>
<rect x="233" y="255" width="204" height="12" rx="4" fill="#ABB1B8" fill-opacity="0.72"/>
<rect x="233" y="275" width="234" height="13" rx="4" fill="#ABB1B8" fill-opacity="0.72"/>
<rect x="233" y="296" width="136" height="12" rx="4" fill="#ABB1B8" fill-opacity="0.72"/>
<rect x="233" y="316" width="184" height="11" rx="4" fill="#ABB1B8" fill-opacity="0.72"/>
<rect x="233" y="335" width="234" height="13" rx="4" fill="#ABB1B8" fill-opacity="0.72"/>
<rect x="233" y="356" width="58" height="12" rx="4" fill="#ABB1B8" fill-opacity="0.72"/>
<circle cx="302" cy="365" r="3" fill="#BAC0C7"/>
<circle cx="312" cy="362" r="3" fill="#BAC0C7"/>
<circle cx="322" cy="365" r="3" fill="#BAC0C7"/>
<defs>
<clipPath id="clip0_173_579">
<rect width="24" height="24" fill="white" transform="translate(432 429)"/>
</clipPath>
<clipPath id="clip1_173_579">
<rect width="21" height="21" fill="white" transform="translate(374 84)"/>
</clipPath>
</defs>
</svg>
