<svg width="346" height="332" viewBox="0 0 346 332" fill="none" xmlns="http://www.w3.org/2000/svg">
<path d="M0 16C0 7.16344 7.16344 0 16 0H329.42C338.257 0 345.42 7.16344 345.42 16V331.284H0V16Z" fill="#DFE4E9"/>
<rect x="27.0435" y="30.1167" width="291.333" height="271.05" rx="4.91701" fill="#F9FBFF"/>
<path d="M47.9407 77.1355H300.552" stroke="#B7B8BE" stroke-opacity="0.73" stroke-width="0.614627" stroke-linecap="round"/>
<rect x="41.7949" y="257.528" width="258.758" height="27.0436" rx="13.5218" fill="#E0EAFF"/>
<path d="M66.5536 269.35H65.8136C65.7836 268.37 65.0636 267.56 63.8036 267.56C62.3636 267.56 61.7136 268.55 61.7136 269.95V271.11C61.7136 272.49 62.3336 273.56 63.8536 273.56C65.1036 273.56 65.8736 272.85 65.8736 271.5V271.32H63.9136V270.67H66.6236V271.41C66.6236 273.02 65.6336 274.19 63.8436 274.19C61.8936 274.19 60.9336 272.8 60.9336 271.09V269.98C60.9336 268.19 61.9436 266.91 63.7936 266.91C65.5036 266.91 66.5236 267.97 66.5536 269.35ZM70.1435 274.17C68.8135 274.17 67.8835 273.32 67.8835 271.94V271.12C67.8835 269.73 68.6735 268.81 70.1135 268.81C71.5735 268.81 72.2835 269.78 72.2835 271.04V271.8H68.6135V271.98C68.6135 272.87 69.0735 273.59 70.1435 273.59C70.9135 273.59 71.3835 273.18 71.5535 272.6H72.2335C72.0635 273.52 71.2135 274.17 70.1435 274.17ZM68.6135 271.06V271.22H71.5735V270.98C71.5735 270.07 71.1135 269.39 70.1135 269.39C69.0135 269.39 68.6135 270.12 68.6135 271.06ZM73.6706 274.05V268.93H74.3906V269.8C74.6306 269.22 75.2106 268.81 76.1006 268.81C77.2506 268.81 77.9806 269.59 77.9806 270.82V274.05H77.2206V270.93C77.2206 270.06 76.8306 269.47 75.9106 269.47C75.0706 269.47 74.4306 269.98 74.4306 271.04V274.05H73.6706ZM81.5595 274.17C80.2295 274.17 79.2995 273.32 79.2995 271.94V271.12C79.2995 269.73 80.0895 268.81 81.5295 268.81C82.9895 268.81 83.6995 269.78 83.6995 271.04V271.8H80.0295V271.98C80.0295 272.87 80.4895 273.59 81.5595 273.59C82.3295 273.59 82.7995 273.18 82.9695 272.6H83.6495C83.4795 273.52 82.6295 274.17 81.5595 274.17ZM80.0295 271.06V271.22H82.9895V270.98C82.9895 270.07 82.5295 269.39 81.5295 269.39C80.4295 269.39 80.0295 270.12 80.0295 271.06ZM85.0866 274.05V268.93H85.7966V270.11C85.9866 269.32 86.5366 268.9 87.4666 268.9H87.5866V269.61H87.4366C86.4666 269.61 85.8466 270.25 85.8466 271.54V274.05H85.0866ZM92.5093 274.05H91.7793V273.41C91.5593 273.77 90.8693 274.17 90.0193 274.17C88.8093 274.17 88.0793 273.49 88.0793 272.56C88.0793 271.57 88.8893 270.96 90.1093 270.96C90.9193 270.96 91.4593 271.3 91.7493 271.6V270.65C91.7493 269.95 91.2893 269.41 90.4693 269.41C89.8193 269.41 89.3993 269.71 89.1893 270.18H88.4893C88.7493 269.33 89.4693 268.81 90.4793 268.81C91.7493 268.81 92.5093 269.64 92.5093 270.65V274.05ZM90.1793 273.68C90.9793 273.68 91.7493 273.21 91.7493 272.55C91.7493 271.91 90.9893 271.46 90.2193 271.46C89.3693 271.46 88.7993 271.86 88.7993 272.57C88.7993 273.28 89.3893 273.68 90.1793 273.68ZM96.4526 274.05H95.8126C94.8326 274.05 94.4226 273.56 94.4226 272.69V269.55H93.5526V268.93H94.4226V267.46H95.1826V268.93H96.4926V269.55H95.1826V272.69C95.1826 273.21 95.3726 273.43 95.9426 273.43H96.4526V274.05ZM99.6943 274.17C98.3643 274.17 97.4343 273.32 97.4343 271.94V271.12C97.4343 269.73 98.2243 268.81 99.6643 268.81C101.124 268.81 101.834 269.78 101.834 271.04V271.8H98.1643V271.98C98.1643 272.87 98.6243 273.59 99.6943 273.59C100.464 273.59 100.934 273.18 101.104 272.6H101.784C101.614 273.52 100.764 274.17 99.6943 274.17ZM98.1643 271.06V271.22H101.124V270.98C101.124 270.07 100.664 269.39 99.6643 269.39C98.5643 269.39 98.1643 270.12 98.1643 271.06ZM111.394 271.11C111.394 272.8 110.414 274.19 108.454 274.19C106.494 274.19 105.514 272.8 105.514 271.11V269.99C105.514 268.3 106.494 266.91 108.454 266.91C110.414 266.91 111.394 268.3 111.394 269.99V271.11ZM108.454 273.54C109.944 273.54 110.614 272.47 110.614 271.15V269.95C110.614 268.63 109.944 267.56 108.454 267.56C106.964 267.56 106.294 268.63 106.294 269.95V271.15C106.294 272.47 106.964 273.54 108.454 273.54ZM117.109 268.93V274.05H116.389V273.18C116.149 273.76 115.569 274.17 114.679 274.17C113.559 274.17 112.849 273.39 112.849 272.16V268.93H113.609V272.05C113.609 272.92 113.989 273.53 114.869 273.53C115.709 273.53 116.349 273 116.349 271.94V268.93H117.109ZM121.179 274.05H120.539C119.559 274.05 119.149 273.56 119.149 272.69V269.55H118.279V268.93H119.149V267.46H119.909V268.93H121.219V269.55H119.909V272.69C119.909 273.21 120.099 273.43 120.669 273.43H121.179V274.05ZM123.22 275.79H122.46V268.93H123.18V269.73C123.4 269.26 124.06 268.81 124.91 268.81C126.28 268.81 127.05 269.8 127.05 271.1V271.88C127.05 273.21 126.22 274.17 124.93 274.17C124.13 274.17 123.53 273.81 123.22 273.29V275.79ZM126.29 271.85V271.13C126.29 270.19 125.84 269.43 124.78 269.43C123.77 269.43 123.22 270.2 123.22 271.19V271.85C123.22 272.9 123.94 273.55 124.79 273.55C125.76 273.55 126.29 272.79 126.29 271.85ZM132.627 268.93V274.05H131.907V273.18C131.667 273.76 131.087 274.17 130.197 274.17C129.077 274.17 128.367 273.39 128.367 272.16V268.93H129.127V272.05C129.127 272.92 129.507 273.53 130.387 273.53C131.227 273.53 131.867 273 131.867 271.94V268.93H132.627ZM136.697 274.05H136.057C135.077 274.05 134.667 273.56 134.667 272.69V269.55H133.797V268.93H134.667V267.46H135.427V268.93H136.737V269.55H135.427V272.69C135.427 273.21 135.617 273.43 136.187 273.43H136.697V274.05ZM137.798 273.62C137.798 273.33 138.008 273.13 138.308 273.13C138.608 273.13 138.818 273.33 138.818 273.62C138.818 273.91 138.598 274.11 138.308 274.11C138.018 274.11 137.798 273.91 137.798 273.62ZM140.181 273.62C140.181 273.33 140.391 273.13 140.691 273.13C140.991 273.13 141.201 273.33 141.201 273.62C141.201 273.91 140.981 274.11 140.691 274.11C140.401 274.11 140.181 273.91 140.181 273.62ZM142.564 273.62C142.564 273.33 142.774 273.13 143.074 273.13C143.374 273.13 143.584 273.33 143.584 273.62C143.584 273.91 143.364 274.11 143.074 274.11C142.784 274.11 142.564 273.91 142.564 273.62Z" fill="#18181A" fill-opacity="0.57"/>
<circle cx="272.895" cy="271.05" r="9.2194" fill="#4887A1"/>
<g clip-path="url(#clip0_173_1156)">
<path d="M269.207 267.362C269.207 267.199 269.272 267.043 269.387 266.928C269.502 266.812 269.659 266.748 269.822 266.748H271.051C271.214 266.748 271.37 266.812 271.486 266.928C271.601 267.043 271.666 267.199 271.666 267.362V274.738C271.666 274.901 271.601 275.057 271.486 275.172C271.37 275.288 271.214 275.352 271.051 275.352H269.822C269.659 275.352 269.502 275.288 269.387 275.172C269.272 275.057 269.207 274.901 269.207 274.738V267.362Z" stroke="#DEDEFB" stroke-width="0.614627" stroke-linecap="round" stroke-linejoin="round"/>
<path d="M274.124 267.362C274.124 267.199 274.189 267.043 274.304 266.928C274.419 266.812 274.576 266.748 274.739 266.748H275.968C276.131 266.748 276.287 266.812 276.403 266.928C276.518 267.043 276.583 267.199 276.583 267.362V274.738C276.583 274.901 276.518 275.057 276.403 275.172C276.287 275.288 276.131 275.352 275.968 275.352H274.739C274.576 275.352 274.419 275.288 274.304 275.172C274.189 275.057 274.124 274.901 274.124 274.738V267.362Z" stroke="#DEDEFB" stroke-width="0.614627" stroke-linecap="round" stroke-linejoin="round"/>
</g>
<path d="M47.9407 97.7254C47.9407 95.0098 50.1421 92.8083 52.8577 92.8083H116.164C118.88 92.8083 121.081 95.0098 121.081 97.7254V109.403C121.081 112.119 118.88 114.32 116.164 114.32H52.4427C51.8731 114.32 51.3423 114.609 51.0323 115.086L49.2787 117.789C48.8843 118.397 47.9407 118.118 47.9407 117.393V97.7254Z" fill="#DEE4EC" fill-opacity="0.92"/>
<path d="M64.2564 100.355L62.9284 105.955H62.3284L60.8484 101.035L59.3684 105.955H58.7684L57.4404 100.355H58.0404L59.0964 105.123L60.5364 100.355H61.1604L62.6004 105.123L63.6564 100.355H64.2564ZM65.0897 105.955V101.859H65.6577V102.803C65.8097 102.171 66.2497 101.835 66.9937 101.835H67.0897V102.403H66.9697C66.1937 102.403 65.6977 102.915 65.6977 103.947V105.955H65.0897ZM67.95 105.955V101.859H68.558V105.955H67.95ZM67.87 100.779C67.87 100.563 68.022 100.411 68.254 100.411C68.486 100.411 68.638 100.563 68.638 100.779C68.638 100.995 68.486 101.147 68.254 101.147C68.022 101.147 67.87 100.995 67.87 100.779ZM71.8543 105.955H71.3423C70.5583 105.955 70.2303 105.563 70.2303 104.867V102.355H69.5343V101.859H70.2303V100.683H70.8383V101.859H71.8863V102.355H70.8383V104.867C70.8383 105.283 70.9903 105.459 71.4463 105.459H71.8543V105.955ZM74.4477 106.051C73.3837 106.051 72.6397 105.371 72.6397 104.267V103.611C72.6397 102.499 73.2717 101.763 74.4237 101.763C75.5917 101.763 76.1597 102.539 76.1597 103.547V104.155H73.2237V104.299C73.2237 105.011 73.5917 105.587 74.4477 105.587C75.0637 105.587 75.4397 105.259 75.5757 104.795H76.1197C75.9837 105.531 75.3037 106.051 74.4477 106.051ZM73.2237 103.563V103.691H75.5917V103.499C75.5917 102.771 75.2237 102.227 74.4237 102.227C73.5437 102.227 73.2237 102.811 73.2237 103.563ZM82.5512 105.955H81.9672V105.443C81.7912 105.731 81.2392 106.051 80.5592 106.051C79.5912 106.051 79.0072 105.507 79.0072 104.763C79.0072 103.971 79.6552 103.483 80.6312 103.483C81.2792 103.483 81.7112 103.755 81.9432 103.995V103.235C81.9432 102.675 81.5752 102.243 80.9192 102.243C80.3992 102.243 80.0632 102.483 79.8952 102.859H79.3352C79.5432 102.179 80.1192 101.763 80.9272 101.763C81.9432 101.763 82.5512 102.427 82.5512 103.235V105.955ZM80.6872 105.659C81.3272 105.659 81.9432 105.283 81.9432 104.755C81.9432 104.243 81.3352 103.883 80.7192 103.883C80.0392 103.883 79.5832 104.203 79.5832 104.771C79.5832 105.339 80.0552 105.659 80.6872 105.659ZM83.8006 100.115H84.4086V102.467C84.6566 102.051 85.1366 101.763 85.7766 101.763C86.8086 101.763 87.4726 102.531 87.4726 103.595V104.219C87.4726 105.243 86.8406 106.051 85.7606 106.051C85.0806 106.051 84.5526 105.691 84.3766 105.315V105.955H83.8006V100.115ZM86.8646 104.195V103.619C86.8646 102.867 86.4406 102.259 85.6646 102.259C84.9846 102.259 84.4086 102.779 84.4086 103.619V104.147C84.4086 104.939 84.8486 105.555 85.6566 105.555C86.5046 105.555 86.8646 104.947 86.8646 104.195ZM90.1982 106.051C89.0302 106.051 88.3662 105.251 88.3662 104.243V103.571C88.3662 102.563 89.0382 101.763 90.1982 101.763C91.3582 101.763 92.0222 102.563 92.0222 103.571V104.243C92.0222 105.251 91.3582 106.051 90.1982 106.051ZM91.4382 103.579C91.4382 102.803 91.0062 102.251 90.1982 102.251C89.3902 102.251 88.9582 102.803 88.9582 103.579V104.235C88.9582 105.011 89.3902 105.563 90.1982 105.563C91.0062 105.563 91.4382 105.011 91.4382 104.235V103.579ZM96.4889 101.859V105.955H95.9129V105.259C95.7209 105.723 95.2569 106.051 94.5449 106.051C93.6489 106.051 93.0809 105.427 93.0809 104.443V101.859H93.6889V104.355C93.6889 105.051 93.9929 105.539 94.6969 105.539C95.3689 105.539 95.8809 105.115 95.8809 104.267V101.859H96.4889ZM99.745 105.955H99.233C98.449 105.955 98.121 105.563 98.121 104.867V102.355H97.425V101.859H98.121V100.683H98.729V101.859H99.777V102.355H98.729V104.867C98.729 105.283 98.881 105.459 99.337 105.459H99.745V105.955ZM102.587 105.611C102.587 105.379 102.755 105.219 102.995 105.219C103.235 105.219 103.403 105.379 103.403 105.611C103.403 105.843 103.227 106.003 102.995 106.003C102.763 106.003 102.587 105.843 102.587 105.611ZM104.493 105.611C104.493 105.379 104.661 105.219 104.901 105.219C105.141 105.219 105.309 105.379 105.309 105.611C105.309 105.843 105.133 106.003 104.901 106.003C104.669 106.003 104.493 105.843 104.493 105.611Z" fill="#44464A" fill-opacity="0.62"/>
<path d="M52.1887 60.8745C50.1967 60.8745 48.9607 59.6145 48.9607 57.8745V52.3065H49.8967V57.9585C49.8967 59.2665 50.7727 60.0945 52.1887 60.0945C53.6047 60.0945 54.4807 59.2665 54.4807 57.9585V52.3065H55.4167V57.8745C55.4167 59.6145 54.1807 60.8745 52.1887 60.8745ZM58.3688 60.7065V54.5625H59.2328V55.6065C59.5208 54.9105 60.2168 54.4185 61.2848 54.4185C62.6648 54.4185 63.5408 55.3545 63.5408 56.8305V60.7065H62.6288V56.9625C62.6288 55.9185 62.1608 55.2105 61.0568 55.2105C60.0488 55.2105 59.2808 55.8225 59.2808 57.0945V60.7065H58.3688ZM69.2649 60.7065H68.4969C67.3209 60.7065 66.8289 60.1185 66.8289 59.0745V55.3065H65.7849V54.5625H66.8289V52.7985H67.7409V54.5625H69.3129V55.3065H67.7409V59.0745C67.7409 59.6985 67.9689 59.9625 68.6529 59.9625H69.2649V60.7065ZM71.8214 60.7065V54.5625H72.7334V60.7065H71.8214ZM71.7014 52.9425C71.7014 52.6185 71.9294 52.3905 72.2774 52.3905C72.6254 52.3905 72.8534 52.6185 72.8534 52.9425C72.8534 53.2665 72.6254 53.4945 72.2774 53.4945C71.9294 53.4945 71.7014 53.2665 71.7014 52.9425ZM78.638 60.7065H77.87C76.694 60.7065 76.202 60.1185 76.202 59.0745V55.3065H75.158V54.5625H76.202V52.7985H77.114V54.5625H78.686V55.3065H77.114V59.0745C77.114 59.6985 77.342 59.9625 78.026 59.9625H78.638V60.7065ZM81.1945 60.7065V51.9465H82.1065V60.7065H81.1945ZM87.4831 60.8505C85.8871 60.8505 84.7711 59.8305 84.7711 58.1745V57.1905C84.7711 55.5225 85.7191 54.4185 87.4471 54.4185C89.1991 54.4185 90.0511 55.5825 90.0511 57.0945V58.0065H85.6471V58.2225C85.6471 59.2905 86.1991 60.1545 87.4831 60.1545C88.4071 60.1545 88.9711 59.6625 89.1751 58.9665H89.9911C89.7871 60.0705 88.7671 60.8505 87.4831 60.8505ZM85.6471 57.1185V57.3105H89.1991V57.0225C89.1991 55.9305 88.6471 55.1145 87.4471 55.1145C86.1271 55.1145 85.6471 55.9905 85.6471 57.1185ZM96.9716 51.9465H97.8836V60.7065H97.0196V59.7465C96.7556 60.3105 95.9636 60.8505 94.9436 60.8505C93.3236 60.8505 92.3756 59.6385 92.3756 58.1025V57.1665C92.3756 55.5705 93.3716 54.4185 94.9196 54.4185C95.8796 54.4185 96.5996 54.8505 96.9716 55.4745V51.9465ZM93.2876 57.2025V58.0665C93.2876 59.1945 93.8276 60.1065 95.0996 60.1065C96.3116 60.1065 96.9716 59.1825 96.9716 57.9945V57.2025C96.9716 55.9425 96.1076 55.1625 95.0876 55.1625C93.9236 55.1625 93.2876 56.0745 93.2876 57.2025ZM104.747 52.3065H107.903C110.039 52.3065 111.215 53.6625 111.215 55.5345V57.4785C111.215 59.3505 110.039 60.7065 107.903 60.7065H104.747V52.3065ZM107.771 59.9385C109.427 59.9385 110.291 58.9425 110.291 57.4785V55.5345C110.291 54.0705 109.427 53.0745 107.771 53.0745H105.671V59.9385H107.771ZM116.426 60.8505C114.674 60.8505 113.678 59.6505 113.678 58.1385V57.1305C113.678 55.6185 114.686 54.4185 116.426 54.4185C118.166 54.4185 119.162 55.6185 119.162 57.1305V58.1385C119.162 59.6505 118.166 60.8505 116.426 60.8505ZM118.286 57.1425C118.286 55.9785 117.638 55.1505 116.426 55.1505C115.214 55.1505 114.566 55.9785 114.566 57.1425V58.1265C114.566 59.2905 115.214 60.1185 116.426 60.1185C117.638 60.1185 118.286 59.2905 118.286 58.1265V57.1425ZM124.194 60.8505C122.49 60.8505 121.47 59.6985 121.47 58.1505V57.1185C121.47 55.5705 122.49 54.4185 124.194 54.4185C125.742 54.4185 126.75 55.4265 126.822 56.7225H126.006C125.886 55.8945 125.37 55.1385 124.206 55.1385C122.946 55.1385 122.358 55.9545 122.358 57.1065V58.1625C122.358 59.3145 122.946 60.1305 124.206 60.1305C125.37 60.1305 125.886 59.3745 126.006 58.5465H126.822C126.75 59.8425 125.742 60.8505 124.194 60.8505Z" fill="#44464A"/>
<g clip-path="url(#clip1_173_1156)">
<path d="M240.643 52.8662V55.0174C240.643 55.16 240.699 55.2968 240.8 55.3977C240.901 55.4985 241.038 55.5552 241.181 55.5552H243.332" stroke="#717384" stroke-opacity="0.74" stroke-width="1.22925" stroke-linecap="round" stroke-linejoin="round"/>
<path d="M242.256 62.5466H236.878C236.593 62.5466 236.319 62.4333 236.118 62.2315C235.916 62.0298 235.802 61.7563 235.802 61.471V53.9418C235.802 53.6565 235.916 53.383 236.118 53.1812C236.319 52.9795 236.593 52.8662 236.878 52.8662H240.643L243.332 55.5552V61.471C243.332 61.7563 243.218 62.0298 243.017 62.2315C242.815 62.4333 242.541 62.5466 242.256 62.5466Z" stroke="#717384" stroke-opacity="0.74" stroke-width="1.22925" stroke-linecap="round" stroke-linejoin="round"/>
</g>
<path d="M251.734 61.2722C250.542 61.2722 249.646 60.6322 249.646 59.6082V59.4642H250.238V59.5922C250.238 60.2962 250.806 60.7762 251.734 60.7762C252.654 60.7762 253.214 60.3762 253.214 59.6642C253.214 59.2082 252.934 58.8882 252.414 58.7522L250.83 58.3362C250.022 58.1282 249.718 57.6562 249.718 57.0162C249.718 56.0242 250.502 55.4482 251.654 55.4482C252.806 55.4482 253.614 56.0962 253.614 57.0482V57.1842H253.03V57.0642C253.03 56.4002 252.518 55.9442 251.654 55.9442C250.87 55.9442 250.318 56.3042 250.318 56.9682C250.318 57.4322 250.534 57.6962 251.014 57.8242L252.638 58.2562C253.326 58.4402 253.814 58.8962 253.814 59.6162C253.814 60.6402 252.926 61.2722 251.734 61.2722ZM258.313 61.1602H257.729V60.6482C257.553 60.9362 257.001 61.2562 256.321 61.2562C255.353 61.2562 254.769 60.7122 254.769 59.9682C254.769 59.1762 255.417 58.6882 256.393 58.6882C257.041 58.6882 257.473 58.9602 257.705 59.2002V58.4402C257.705 57.8802 257.337 57.4482 256.681 57.4482C256.161 57.4482 255.825 57.6882 255.657 58.0642H255.097C255.305 57.3842 255.881 56.9682 256.689 56.9682C257.705 56.9682 258.313 57.6322 258.313 58.4402V61.1602ZM256.449 60.8642C257.089 60.8642 257.705 60.4882 257.705 59.9602C257.705 59.4482 257.097 59.0882 256.481 59.0882C255.801 59.0882 255.345 59.4082 255.345 59.9762C255.345 60.5442 255.817 60.8642 256.449 60.8642ZM262.708 57.0642L261.204 61.1602H260.564L259.06 57.0642H259.66L260.884 60.5522L262.108 57.0642H262.708ZM265.076 61.2562C264.012 61.2562 263.268 60.5762 263.268 59.4722V58.8162C263.268 57.7042 263.9 56.9682 265.052 56.9682C266.22 56.9682 266.788 57.7442 266.788 58.7522V59.3602H263.852V59.5042C263.852 60.2162 264.22 60.7922 265.076 60.7922C265.692 60.7922 266.068 60.4642 266.204 60.0002H266.748C266.612 60.7362 265.932 61.2562 265.076 61.2562ZM263.852 58.7682V58.8962H266.22V58.7042C266.22 57.9762 265.852 57.4322 265.052 57.4322C264.172 57.4322 263.852 58.0162 263.852 58.7682ZM273.18 61.1602H272.596V60.6482C272.42 60.9362 271.868 61.2562 271.188 61.2562C270.22 61.2562 269.636 60.7122 269.636 59.9682C269.636 59.1762 270.284 58.6882 271.26 58.6882C271.908 58.6882 272.34 58.9602 272.572 59.2002V58.4402C272.572 57.8802 272.204 57.4482 271.548 57.4482C271.028 57.4482 270.692 57.6882 270.524 58.0642H269.964C270.172 57.3842 270.748 56.9682 271.556 56.9682C272.572 56.9682 273.18 57.6322 273.18 58.4402V61.1602ZM271.316 60.8642C271.956 60.8642 272.572 60.4882 272.572 59.9602C272.572 59.4482 271.964 59.0882 271.348 59.0882C270.668 59.0882 270.212 59.4082 270.212 59.9762C270.212 60.5442 270.684 60.8642 271.316 60.8642ZM275.933 61.2562C274.941 61.2562 274.237 60.7602 274.237 59.9682V59.9282H274.789V59.9522C274.789 60.4642 275.269 60.8002 275.941 60.8002C276.573 60.8002 277.029 60.5522 277.029 60.0242C277.029 59.7362 276.845 59.5282 276.517 59.4562L275.301 59.1762C274.693 59.0402 274.341 58.6722 274.341 58.1362C274.341 57.3682 274.989 56.9682 275.893 56.9682C276.749 56.9682 277.413 57.4882 277.413 58.2482V58.2882H276.861V58.2642C276.861 57.7602 276.493 57.4242 275.885 57.4242C275.317 57.4242 274.901 57.6642 274.901 58.1202C274.901 58.4002 275.037 58.5762 275.333 58.6482L276.589 58.9442C277.221 59.0962 277.597 59.4082 277.597 60.0002C277.597 60.7282 276.893 61.2562 275.933 61.2562ZM283.426 55.3202H284.034V61.1602H283.458V60.5202C283.282 60.8962 282.754 61.2562 282.074 61.2562C280.994 61.2562 280.362 60.4482 280.362 59.4242V58.8002C280.362 57.7362 281.026 56.9682 282.058 56.9682C282.698 56.9682 283.178 57.2562 283.426 57.6722V55.3202ZM280.97 58.8242V59.4002C280.97 60.1522 281.33 60.7602 282.178 60.7602C282.986 60.7602 283.426 60.1442 283.426 59.3522V58.8242C283.426 57.9842 282.85 57.4642 282.17 57.4642C281.394 57.4642 280.97 58.0722 280.97 58.8242ZM285.328 61.1602V57.0642H285.896V58.0082C286.048 57.3762 286.488 57.0402 287.232 57.0402H287.328V57.6082H287.208C286.432 57.6082 285.936 58.1202 285.936 59.1522V61.1602H285.328ZM291.266 61.1602H290.682V60.6482C290.506 60.9362 289.954 61.2562 289.274 61.2562C288.306 61.2562 287.722 60.7122 287.722 59.9682C287.722 59.1762 288.37 58.6882 289.346 58.6882C289.994 58.6882 290.426 58.9602 290.658 59.2002V58.4402C290.658 57.8802 290.29 57.4482 289.634 57.4482C289.114 57.4482 288.778 57.6882 288.61 58.0642H288.05C288.258 57.3842 288.834 56.9682 289.642 56.9682C290.658 56.9682 291.266 57.6322 291.266 58.4402V61.1602ZM289.402 60.8642C290.042 60.8642 290.658 60.4882 290.658 59.9602C290.658 59.4482 290.05 59.0882 289.434 59.0882C288.754 59.0882 288.298 59.4082 288.298 59.9762C288.298 60.5442 288.77 60.8642 289.402 60.8642ZM292.78 61.1602V57.5602H292.18V57.0642H292.78V56.5202C292.78 55.7282 293.132 55.3202 293.964 55.3202H294.54V55.8162H294.012C293.58 55.8162 293.388 56.0162 293.388 56.4722V57.0642H294.396V57.5602H293.388V61.1602H292.78ZM297.225 61.1602H296.713C295.929 61.1602 295.601 60.7682 295.601 60.0722V57.5602H294.905V57.0642H295.601V55.8882H296.209V57.0642H297.257V57.5602H296.209V60.0722C296.209 60.4882 296.361 60.6642 296.817 60.6642H297.225V61.1602Z" fill="#44464A" fill-opacity="0.74"/>
<rect x="134.603" y="127.228" width="163.491" height="114.935" rx="4.91701" fill="#E8EDF7"/>
<path d="M143.936 142.832V137.232H144.56V139.744H147.52V137.232H148.144V142.832H147.52V140.304H144.56V142.832H143.936ZM151.128 142.928C150.064 142.928 149.32 142.248 149.32 141.144V140.488C149.32 139.376 149.952 138.64 151.104 138.64C152.272 138.64 152.84 139.416 152.84 140.424V141.032H149.904V141.176C149.904 141.888 150.272 142.464 151.128 142.464C151.744 142.464 152.12 142.136 152.256 141.672H152.8C152.664 142.408 151.984 142.928 151.128 142.928ZM149.904 140.44V140.568H152.272V140.376C152.272 139.648 151.904 139.104 151.104 139.104C150.224 139.104 149.904 139.688 149.904 140.44ZM153.95 142.832V138.736H154.518V139.68C154.67 139.048 155.11 138.712 155.854 138.712H155.95V139.28H155.83C155.054 139.28 154.558 139.792 154.558 140.824V142.832H153.95ZM158.316 142.928C157.252 142.928 156.508 142.248 156.508 141.144V140.488C156.508 139.376 157.14 138.64 158.292 138.64C159.46 138.64 160.028 139.416 160.028 140.424V141.032H157.092V141.176C157.092 141.888 157.46 142.464 158.316 142.464C158.932 142.464 159.308 142.136 159.444 141.672H159.988C159.852 142.408 159.172 142.928 158.316 142.928ZM157.092 140.44V140.568H159.46V140.376C159.46 139.648 159.092 139.104 158.292 139.104C157.412 139.104 157.092 139.688 157.092 140.44ZM163.099 142.832V138.736H163.707V142.832H163.099ZM163.019 137.656C163.019 137.44 163.171 137.288 163.403 137.288C163.635 137.288 163.787 137.44 163.787 137.656C163.787 137.872 163.635 138.024 163.403 138.024C163.171 138.024 163.019 137.872 163.019 137.656ZM166.548 142.928C165.556 142.928 164.852 142.432 164.852 141.64V141.6H165.404V141.624C165.404 142.136 165.884 142.472 166.556 142.472C167.188 142.472 167.644 142.224 167.644 141.696C167.644 141.408 167.46 141.2 167.132 141.128L165.916 140.848C165.308 140.712 164.956 140.344 164.956 139.808C164.956 139.04 165.604 138.64 166.508 138.64C167.364 138.64 168.028 139.16 168.028 139.92V139.96H167.476V139.936C167.476 139.432 167.108 139.096 166.5 139.096C165.932 139.096 165.516 139.336 165.516 139.792C165.516 140.072 165.652 140.248 165.948 140.32L167.204 140.616C167.836 140.768 168.212 141.08 168.212 141.672C168.212 142.4 167.508 142.928 166.548 142.928ZM172.282 144.224H171.69L172.21 142.832L170.682 138.736H171.282L172.53 142.216L173.73 138.736H174.33L172.818 142.832L172.282 144.224ZM176.73 142.928C175.562 142.928 174.898 142.128 174.898 141.12V140.448C174.898 139.44 175.57 138.64 176.73 138.64C177.89 138.64 178.554 139.44 178.554 140.448V141.12C178.554 142.128 177.89 142.928 176.73 142.928ZM177.97 140.456C177.97 139.68 177.538 139.128 176.73 139.128C175.922 139.128 175.49 139.68 175.49 140.456V141.112C175.49 141.888 175.922 142.44 176.73 142.44C177.538 142.44 177.97 141.888 177.97 141.112V140.456ZM183.021 138.736V142.832H182.445V142.136C182.253 142.6 181.789 142.928 181.077 142.928C180.181 142.928 179.613 142.304 179.613 141.32V138.736H180.221V141.232C180.221 141.928 180.525 142.416 181.229 142.416C181.901 142.416 182.413 141.992 182.413 141.144V138.736H183.021ZM184.317 142.832V138.736H184.885V139.68C185.037 139.048 185.477 138.712 186.221 138.712H186.317V139.28H186.197C185.421 139.28 184.925 139.792 184.925 140.824V142.832H184.317ZM189.059 142.832V138.736H189.627V139.68C189.779 139.048 190.219 138.712 190.963 138.712H191.059V139.28H190.939C190.163 139.28 189.667 139.792 189.667 140.824V142.832H189.059ZM193.425 142.928C192.361 142.928 191.617 142.248 191.617 141.144V140.488C191.617 139.376 192.249 138.64 193.401 138.64C194.569 138.64 195.137 139.416 195.137 140.424V141.032H192.201V141.176C192.201 141.888 192.569 142.464 193.425 142.464C194.041 142.464 194.417 142.136 194.553 141.672H195.097C194.961 142.408 194.281 142.928 193.425 142.928ZM192.201 140.44V140.568H194.569V140.376C194.569 139.648 194.201 139.104 193.401 139.104C192.521 139.104 192.201 139.688 192.201 140.44ZM197.751 142.928C196.759 142.928 196.055 142.432 196.055 141.64V141.6H196.607V141.624C196.607 142.136 197.087 142.472 197.759 142.472C198.391 142.472 198.847 142.224 198.847 141.696C198.847 141.408 198.663 141.2 198.335 141.128L197.119 140.848C196.511 140.712 196.159 140.344 196.159 139.808C196.159 139.04 196.807 138.64 197.711 138.64C198.567 138.64 199.231 139.16 199.231 139.92V139.96H198.679V139.936C198.679 139.432 198.311 139.096 197.703 139.096C197.135 139.096 196.719 139.336 196.719 139.792C196.719 140.072 196.855 140.248 197.151 140.32L198.407 140.616C199.039 140.768 199.415 141.08 199.415 141.672C199.415 142.4 198.711 142.928 197.751 142.928ZM203.826 138.736V142.832H203.25V142.136C203.058 142.6 202.594 142.928 201.882 142.928C200.986 142.928 200.418 142.304 200.418 141.32V138.736H201.026V141.232C201.026 141.928 201.33 142.416 202.034 142.416C202.706 142.416 203.218 141.992 203.218 141.144V138.736H203.826ZM205.162 142.832V136.992H205.77V142.832H205.162ZM209.066 142.832H208.554C207.77 142.832 207.442 142.44 207.442 141.744V139.232H206.746V138.736H207.442V137.56H208.05V138.736H209.098V139.232H208.05V141.744C208.05 142.16 208.202 142.336 208.658 142.336H209.066V142.832ZM209.986 142.488C209.986 142.256 210.154 142.096 210.394 142.096C210.634 142.096 210.802 142.256 210.802 142.488C210.802 142.72 210.626 142.88 210.394 142.88C210.162 142.88 209.986 142.72 209.986 142.488ZM209.986 139.84C209.986 139.608 210.154 139.448 210.394 139.448C210.634 139.448 210.802 139.608 210.802 139.84C210.802 140.072 210.626 140.232 210.394 140.232C210.162 140.232 209.986 140.072 209.986 139.84Z" fill="#44464A" fill-opacity="0.62"/>
<rect x="143.208" y="156.73" width="125.384" height="7.37552" rx="2.45851" fill="#ABB1B8" fill-opacity="0.72"/>
<rect x="143.208" y="169.022" width="143.823" height="7.99015" rx="2.45851" fill="#ABB1B8" fill-opacity="0.72"/>
<rect x="143.208" y="181.929" width="83.5892" height="7.37552" rx="2.45851" fill="#ABB1B8" fill-opacity="0.72"/>
<rect x="143.208" y="194.222" width="113.091" height="6.76089" rx="2.45851" fill="#ABB1B8" fill-opacity="0.72"/>
<rect x="143.208" y="205.9" width="143.823" height="7.99015" rx="2.45851" fill="#ABB1B8" fill-opacity="0.72"/>
<rect x="143.208" y="218.807" width="35.6484" height="7.37552" rx="2.45851" fill="#ABB1B8" fill-opacity="0.72"/>
<circle cx="185.617" cy="224.339" r="1.84388" fill="#BAC0C7"/>
<circle cx="191.764" cy="222.495" r="1.84388" fill="#BAC0C7"/>
<circle cx="197.91" cy="224.339" r="1.84388" fill="#BAC0C7"/>
<defs>
<clipPath id="clip0_173_1156">
<rect width="14.751" height="14.751" fill="white" transform="translate(265.519 263.675)"/>
</clipPath>
<clipPath id="clip1_173_1156">
<rect width="12.9072" height="12.9072" fill="white" transform="translate(233.114 51.2529)"/>
</clipPath>
</defs>
</svg>
