<svg width="194" height="47" viewBox="0 0 194 47" fill="none" xmlns="http://www.w3.org/2000/svg">
<path d="M43.4608 19.3019C44.5068 16.152 44.1445 12.7041 42.4679 9.84096C39.9461 5.45114 34.878 3.19279 29.929 4.25375C25.6149 -0.54534 18.2291 -0.938093 13.4303 3.37614C11.9075 4.74557 10.7712 6.49037 10.1362 8.43764C6.8846 9.10498 4.07865 11.1409 2.43591 14.0248C-0.11289 18.4077 0.46569 23.9367 3.8667 27.6974C2.81729 30.8456 3.17608 34.2943 4.85096 37.1583C7.37543 41.5499 12.447 43.8082 17.3986 42.7455C19.6017 45.2263 22.7656 46.6383 26.0832 46.6192C31.1564 46.6236 35.6511 43.3477 37.2 38.5165C40.4508 37.8483 43.2567 35.8123 44.9003 32.9292C47.4187 28.5542 46.8375 23.0548 43.4608 19.3027V19.3019ZM26.0832 43.5936C24.0582 43.5971 22.0966 42.8872 20.5425 41.5881L20.8161 41.4335L30.0201 36.1191C30.4858 35.8454 30.7733 35.3466 30.7768 34.8061V21.8261L34.6678 24.0775C34.7069 24.0975 34.7338 24.1348 34.7407 24.1774V34.933C34.7303 39.7112 30.8602 43.5823 26.0832 43.5928V43.5936ZM7.47533 35.6455C6.45981 33.892 6.09494 31.8361 6.4459 29.8393L6.71953 30.0036L15.9323 35.3171C16.3961 35.5899 16.9721 35.5899 17.436 35.3171L28.6901 28.8279V33.322C28.6875 33.3689 28.6641 33.4124 28.6267 33.4402L19.3046 38.818C15.1617 41.2049 9.86948 39.786 7.47618 35.6455H7.47533ZM5.05163 15.5924C6.07411 13.8267 7.68815 12.4808 9.608 11.7917V22.7298C9.60105 23.2676 9.88687 23.7673 10.3551 24.0332L21.5545 30.4954L17.6636 32.7468C17.621 32.7694 17.5698 32.7694 17.5272 32.7468L8.22328 27.3777C4.08908 24.9812 2.67136 19.6911 5.05163 15.5463V15.5924ZM37.0185 23.0209L25.7825 16.4943L29.664 14.2525C29.7065 14.2299 29.7578 14.2299 29.8003 14.2525L39.1043 19.6303C43.2454 22.0207 44.6649 27.3168 42.2751 31.4582C41.2691 33.2021 39.6872 34.5402 37.8012 35.2441V24.306C37.7847 23.769 37.4867 23.2807 37.0176 23.0209H37.0185ZM40.8912 17.1964L40.6175 17.0322L31.4231 11.6727C30.9557 11.3989 30.3772 11.3989 29.9107 11.6727L18.6661 18.1618V13.6677C18.6617 13.6217 18.6826 13.5756 18.7208 13.5495L28.0247 8.18044C32.1719 5.79089 37.4711 7.21592 39.8601 11.3642C40.8695 13.1159 41.2343 15.1658 40.8921 17.1582V17.1947L40.8912 17.1964ZM16.5429 25.1628L12.652 22.9209C12.6129 22.8975 12.586 22.8566 12.579 22.8114V12.0828C12.5851 7.295 16.4709 3.41958 21.2566 3.42566C23.2763 3.42827 25.2327 4.13645 26.7859 5.42854L26.5123 5.58322L17.3083 10.8976C16.8426 11.1713 16.5551 11.67 16.5516 12.2105L16.5429 25.1628ZM18.6565 20.6052L23.6681 17.7161L28.6893 20.6052V26.3836L23.6864 29.2737L18.6661 26.3836L18.6574 20.6052H18.6565Z" fill="#252525"/>
<path d="M60.4384 10.8095C61.4245 10.6999 62.3668 10.5465 63.309 10.4807C65.7195 10.2834 68.1299 10.1738 70.5622 10.4588C72.5344 10.6999 74.4408 11.1384 76.172 12.1248C79.0207 13.7689 80.7518 16.2459 81.4311 19.4463C82.0666 22.4495 81.9132 25.4307 80.9271 28.3243C79.4808 32.555 76.4349 35.0101 72.1619 36.0842C69.6857 36.698 67.1438 36.7857 64.6238 36.6761C63.3967 36.6323 62.1696 36.5227 60.9205 36.4569C60.6137 36.435 60.4384 36.3692 60.4384 35.9746C60.4603 27.6886 60.4384 19.4244 60.4384 11.1384C60.4165 11.0726 60.4165 10.9849 60.4384 10.8095ZM63.7911 13.3304C63.7911 13.5496 63.7911 13.7469 63.7911 13.9223C63.7911 17.9557 63.7911 22.0111 63.7911 26.0445C63.7911 28.4777 63.7911 30.9109 63.7911 33.3441C63.7911 33.5853 63.7692 33.8045 64.1417 33.8483C66.2892 34.0456 68.4148 34.1114 70.5403 33.6291C74.0683 32.84 76.5226 30.8013 77.6182 27.3159C78.3852 24.8608 78.4728 22.3399 77.9031 19.819C77.3334 17.2981 75.909 15.3691 73.5862 14.1853C72.2276 13.4839 70.7595 13.1551 69.2475 13.0455C67.4068 12.9139 65.6099 12.9797 63.7911 13.3304Z" fill="#252525"/>
<path d="M105.338 36.4788C104.177 36.4788 103.103 36.4569 102.007 36.4788C101.679 36.4788 101.657 36.2596 101.591 36.0404C100.78 33.651 99.9474 31.2617 99.1585 28.8504C99.0051 28.39 98.8079 28.2804 98.3477 28.2804C95.6524 28.3023 92.9571 28.3023 90.2618 28.2804C89.8893 28.2804 89.7359 28.39 89.6044 28.7408C88.8375 31.1301 88.0486 33.5195 87.2598 35.8869C87.194 36.0623 87.1283 36.2596 87.0625 36.413C85.9011 36.413 84.7617 36.413 83.5784 36.413C83.8852 35.5143 84.17 34.6375 84.4768 33.7606C87.0625 26.176 89.6483 18.5695 92.2121 10.9849C92.3655 10.5465 92.5408 10.4149 93.001 10.4369C94.0309 10.4807 95.0389 10.4588 96.0688 10.4369C96.3756 10.4369 96.507 10.5465 96.6166 10.8314C98.7422 17.057 100.868 23.2825 102.993 29.508C103.738 31.6781 104.483 33.8264 105.207 35.9966C105.25 36.15 105.294 36.2815 105.338 36.4788ZM90.5467 25.628C93.0886 25.628 95.6524 25.628 98.1944 25.628C96.8796 21.5946 95.5648 17.5831 94.3377 13.8346C93.1324 17.605 91.8396 21.6165 90.5467 25.628Z" fill="#252525"/>
<path d="M153.766 10.5029C158.433 10.5029 163.101 10.5029 167.768 10.5029C167.768 11.4455 167.768 12.3443 167.768 13.3088C167.593 13.3088 167.396 13.3307 167.22 13.3307C164.043 13.3307 160.844 13.3307 157.666 13.3307C157.228 13.3307 157.097 13.4403 157.097 13.9007C157.119 16.2462 157.097 18.6136 157.119 20.9592C157.119 21.1126 157.14 21.2661 157.14 21.4853C160.493 21.4853 163.824 21.4853 167.177 21.4853C167.177 22.4279 167.177 23.3266 167.177 24.2911C163.868 24.2911 160.515 24.2911 157.14 24.2911C157.14 27.4258 157.14 30.5166 157.14 33.6732C160.866 33.6732 164.591 33.6732 168.36 33.6732C168.36 34.6378 168.36 35.5365 168.36 36.4572C163.495 36.4572 158.652 36.4572 153.766 36.4572C153.766 27.8204 153.766 19.1617 153.766 10.5029Z" fill="#252525"/>
<path d="M181.442 33.4757C185.562 33.4757 189.682 33.4757 193.845 33.4757C193.845 34.484 193.845 35.4705 193.845 36.4788C188.213 36.4788 182.604 36.4788 176.841 36.4788C176.95 35.865 176.994 35.2513 177.169 34.6813C177.717 32.8838 178.769 31.3713 180.106 30.0999C182.012 28.3243 184.028 26.6364 185.956 24.8827C187.271 23.699 188.564 22.4933 189.528 20.9808C190.208 19.9067 190.69 18.7668 190.558 17.4516C190.361 15.5444 189.331 14.3169 187.556 13.7031C185.255 12.892 182.735 13.6812 181.574 15.5006C181.092 16.2459 180.873 17.057 180.785 17.9338C180.763 18.1311 180.763 18.3284 180.741 18.5695C179.667 18.4599 178.594 18.3503 177.498 18.2407C177.761 15.5883 178.637 13.2866 181.048 11.9713C184.028 10.3492 187.184 10.2834 190.208 11.8179C193.714 13.5716 194.853 17.9338 192.925 21.5727C191.917 23.4579 190.427 24.9266 188.849 26.3076C186.942 27.9955 184.992 29.6395 183.108 31.3494C182.45 31.9412 181.902 32.6865 181.311 33.3442C181.355 33.3661 181.398 33.4099 181.442 33.4757Z" fill="#252525"/>
<path d="M127.383 10.5029C128.5 10.5029 129.596 10.5029 130.735 10.5029C130.735 18.2191 130.735 25.8913 130.735 33.6294C134.439 33.6294 138.12 33.6294 141.801 33.6294C141.801 34.5939 141.801 35.5146 141.801 36.4572C136.98 36.4572 132.203 36.4572 127.383 36.4572C127.383 27.7985 127.383 19.1617 127.383 10.5029Z" fill="#252525"/>
<path d="M109.195 10.5029C110.291 10.5029 111.386 10.5029 112.504 10.5029C112.504 18.1971 112.504 25.8913 112.504 33.6294C116.229 33.6294 119.91 33.6294 123.614 33.6294C123.614 34.5939 123.614 35.5146 123.614 36.4572C118.815 36.4572 114.016 36.4572 109.195 36.4572C109.195 27.8204 109.195 19.1617 109.195 10.5029Z" fill="#252525"/>
<path d="M145.768 23.9185C146.294 23.9185 146.798 23.9185 147.324 23.9185C147.718 23.9185 147.937 24.1157 147.937 24.5103C147.937 25.5844 147.937 26.6586 147.937 27.7108C147.937 28.0834 147.718 28.2807 147.367 28.3026C146.294 28.3245 145.22 28.3026 144.146 28.3026C143.752 28.3026 143.555 28.0615 143.555 27.6888C143.555 26.6366 143.555 25.5844 143.555 24.5322C143.555 24.1377 143.752 23.9404 144.168 23.9404C144.694 23.9185 145.242 23.9185 145.768 23.9185Z" fill="#252525"/>
</svg>
