<svg width="193" height="39" viewBox="0 0 193 39" fill="none" xmlns="http://www.w3.org/2000/svg">
<path d="M79.1411 8.98074C78.3199 9.48376 77.2471 10.0133 75.9226 10.5692L75.7637 33.8404L70.1611 34.3567L57.605 15.0964L58.2011 19.9809V31.2989L61.6977 31.8151L61.6579 33.8404H50.731L50.4927 32.5697C51.2609 32.0666 52.3866 31.5239 53.8701 30.9414V10.1721L51.0887 9.73527L51.1284 7.70996H59.9494L59.9096 7.74967L72.1876 26.9305L71.5915 21.8871V10.2912L67.7373 9.73527L67.7771 7.70996H78.9027L79.1411 8.98074Z" fill="#252525"/>
<path d="M79.3513 24.2696C79.3513 21.2779 80.2653 18.8423 82.0931 16.9626C83.9473 15.0829 86.2519 14.1431 89.0068 14.1431C91.7617 14.1431 94.0265 15.1093 95.8013 17.042C97.6029 18.9481 98.5033 21.4235 98.5033 24.4682C98.5033 27.5392 97.6162 30.0013 95.8412 31.8545C94.0928 33.7077 91.8544 34.6344 89.1259 34.6344C86.3446 34.6344 84.0135 33.6548 82.1327 31.6957C80.2785 29.7365 79.3513 27.2612 79.3513 24.2696ZM90.7551 31.1794C92.0001 30.3058 92.6226 28.2275 92.6226 24.9447C92.6226 22.7738 92.2915 20.9999 91.6292 19.6233C90.9935 18.2201 90.0134 17.5186 88.6889 17.5186C87.8943 17.5186 87.2188 17.7039 86.6625 18.0745C85.7088 19.3453 85.232 21.3838 85.232 24.1901C85.232 26.3081 85.5764 28.0421 86.2651 29.3924C86.9539 30.7161 88.0002 31.378 89.4041 31.378C89.8809 31.378 90.3313 31.3118 90.7551 31.1794Z" fill="#252525"/>
<path d="M119.924 16.7244L117.858 17.7569C115.077 25.0639 112.985 30.3852 111.581 33.7211C110.654 34.0123 109.515 34.1579 108.164 34.1579C107.262 34.1579 106.442 34.0917 105.699 33.9593L100.018 18.1143L97.5942 17.0421V14.9771H107.925L108.044 16.7244L106.097 17.7171L108.521 25.3816L109.077 28.8365H109.792C110.587 25.6331 111.422 21.9531 112.295 17.7966L110.269 17.0421L110.308 14.9771H119.805L119.924 16.7244Z" fill="#252525"/>
<path d="M135.09 24.3887L124.957 24.2696C125.064 26.2287 125.673 27.751 126.786 28.8364C127.898 29.9219 129.315 30.4646 131.037 30.4646C132.467 30.4646 134.163 29.9881 136.123 29.035L136.957 31.1397L130.719 34.3564L129.448 34.4358C126.534 34.4358 124.137 33.5224 122.255 31.6957C120.375 29.8425 119.434 27.4995 119.434 24.6666C119.434 21.7015 120.388 19.2129 122.295 17.2008C124.202 15.1623 126.52 14.1431 129.249 14.1431C131.633 14.1431 133.58 14.8843 135.09 16.3669C136.627 17.823 137.395 19.7292 137.395 22.0854L135.09 24.3887ZM127.858 17.1611C126.481 17.9554 125.593 19.4115 125.196 21.5295L132.07 21.172C131.884 20.0337 131.395 19.0805 130.6 18.3127C129.832 17.545 128.918 17.1611 127.858 17.1611Z" fill="#252525"/>
<path d="M147.502 30.703C148.747 31.1001 149.713 31.4973 150.403 31.8944L150.244 33.8402H138.84L138.721 32.4901C139.515 32.04 140.522 31.6032 141.741 31.1796V8.22609L138.76 7.90839L138.482 6.00222C140.76 5.12856 143.118 4.66526 145.555 4.6123L147.502 6.35963V30.703Z" fill="#252525"/>
<path d="M180.243 31.8151L180.203 33.8403H167.686L167.448 32.5696C168.189 32.1195 169.342 31.5635 170.905 30.9017L169.236 26.6128H159.779L158.031 31.2988L161.686 31.8151L161.647 33.8403H150.839L150.601 32.5696C151.396 32.0666 152.495 31.537 153.899 30.9811L162.68 9.41754L162.204 8.18646L167.409 6.75684L177.421 31.418L180.243 31.8151ZM168.084 23.5947L164.508 14.2226L160.931 23.5947H168.084Z" fill="#252525"/>
<path d="M192.857 31.8151L192.817 33.8404H180.023L179.784 32.5696C180.553 32.0666 181.678 31.5239 183.162 30.9414V10.1721L180.102 9.73527L180.142 7.70996H192.301L192.54 8.98074C191.559 9.56318 190.447 10.1059 189.201 10.609V31.2989L192.857 31.8151Z" fill="#252525"/>
<path fill-rule="evenodd" clip-rule="evenodd" d="M5.46069 30.3148C4.15243 28.1801 2.54947 26.4025 0.651812 25.1767C0.111602 24.8277 -0.0248082 24.0528 0.370685 23.5457C3.80807 19.1392 9.16738 7.59567 11.9707 1.30864C12.3885 0.37165 13.8216 0.67811 13.8216 1.70392V18.4483C12.3345 19.1069 11.2973 20.5949 11.2973 22.3251C11.2973 22.957 11.4356 23.5566 11.6838 24.0953L5.46069 30.3148ZM6.8417 32.9306C7.49864 34.3776 8.04678 35.929 8.4861 37.541C8.59974 37.958 8.9754 38.2528 9.40788 38.2528H15.538H21.6683C22.1007 38.2528 22.4764 37.958 22.59 37.541C23.0294 35.929 23.5775 34.3776 24.2344 32.9306L20.9737 29.6717L18.2585 32.3854C18.3279 32.6305 18.3651 32.8892 18.3651 33.1566C18.3651 34.7171 17.0993 35.9822 15.5379 35.9822C13.9765 35.9822 12.7106 34.7171 12.7106 33.1566C12.7106 31.596 13.9765 30.3309 15.5379 30.3309C15.7768 30.3309 16.0088 30.3606 16.2304 30.4164L18.9746 27.6737L17.4229 26.1229C16.8551 26.4049 16.2151 26.5635 15.538 26.5635C14.861 26.5635 14.221 26.4049 13.6532 26.1229L6.8417 32.9306ZM25.6155 30.3148C26.9237 28.1801 28.5266 26.4025 30.4243 25.1767C30.9645 24.8277 31.1009 24.0528 30.7054 23.5457C27.2681 19.1392 21.9087 7.59567 19.1054 1.30864C18.6876 0.37165 17.2546 0.67811 17.2546 1.70392V18.4483C18.7416 19.1069 19.7788 20.5949 19.7788 22.3251C19.7788 22.957 19.6405 23.5566 19.3924 24.0952L25.6155 30.3148Z" fill="#252525"/>
</svg>
