<svg width="194" height="37" viewBox="0 0 194 37" fill="none" xmlns="http://www.w3.org/2000/svg">
<path d="M135.955 7.84562C132.986 7.84562 130.865 8.86085 129.824 10.7822L129.265 11.8173V8.3474H124.427V29.4895H129.516V16.912C129.516 13.9068 131.146 12.1825 133.992 12.1825C136.839 12.1825 138.26 13.8594 138.26 16.7871V29.4895H143.348V15.8776C143.348 10.8522 140.583 7.84562 135.955 7.84562ZM111.287 7.84562C105.286 7.84562 101.556 11.5901 101.556 17.6225V20.5913C101.556 26.3882 105.318 29.9926 111.372 29.9926C115.419 29.9926 118.257 28.5058 120.043 25.4553L116.888 23.6425C115.568 25.4032 113.462 26.4925 111.372 26.4925C108.307 26.4925 106.476 24.6 106.476 21.428V20.5879H120.685V17.0788C120.685 11.4611 116.996 7.84562 111.287 7.84562ZM116.056 17.1667H106.476V16.6608C106.476 13.1778 108.184 11.2592 111.287 11.2592C114.391 11.2592 116.056 13.1517 116.056 16.3237V17.1667ZM193.856 4.8665V0.822047H176.266V4.8665H182.434V25.4471H176.266V29.4895H193.856V25.4471H187.688V4.8665H193.856ZM60.4639 0.23584C52.6051 0.23584 47.722 5.13627 47.722 13.0227V17.2875C47.722 25.176 52.603 30.0743 60.4639 30.0743C68.3247 30.0743 73.2058 25.176 73.2058 17.2875V13.0227C73.2037 5.13627 68.3206 0.23584 60.4639 0.23584ZM67.9494 17.5792C67.9494 22.8167 65.2221 25.8219 60.4639 25.8219C55.7056 25.8219 52.9763 22.8167 52.9763 17.5792V12.7309C52.9763 7.49347 55.7036 4.48828 60.4618 4.48828C65.2201 4.48828 67.9474 7.49347 67.9474 12.7309L67.9494 17.5792ZM89.1807 7.85661C86.5117 7.85661 84.1981 8.96038 82.9953 10.8144L82.4464 11.6574V8.3474H77.6107V36.7643H82.6969V26.4733L83.243 27.2812C84.3875 28.9774 86.6229 29.9926 89.2212 29.9926C93.6076 29.9926 98.0323 27.1234 98.0323 20.7169V17.1172C98.0323 12.5044 95.3043 7.84562 89.1779 7.84562L89.1807 7.85661ZM92.9475 20.4746C92.9475 23.882 90.9605 25.9997 87.7646 25.9997C84.7841 25.9997 82.7024 23.7633 82.7024 20.559V17.3829C82.7024 14.1292 84.8019 11.8578 87.8057 11.8578C90.9804 11.8578 92.9523 13.9755 92.9523 17.3829L92.9475 20.4746ZM157.407 0.832345L147.138 29.4895H152.299L154.265 23.3446H166.067L166.086 23.405L168.03 29.4895H173.198L162.92 0.822047L157.407 0.832345ZM155.535 19.3104L160.165 4.8013L164.75 19.2926L155.535 19.3104ZM34.5059 15.1836C35.332 12.6953 35.0459 9.9715 33.7217 7.70971C31.7299 4.24185 27.7271 2.45782 23.8183 3.29595C20.411 -0.495213 14.5776 -0.805478 10.7875 2.60265C9.58473 3.68447 8.68729 5.06283 8.18574 6.60112C5.6176 7.1283 3.40143 8.7366 2.10398 11.0149C0.0909041 14.4772 0.547874 18.845 3.23403 21.8159C2.4052 24.3028 2.68857 27.0273 4.01141 29.2897C6.00527 32.759 10.0108 34.543 13.9217 33.7035C15.6617 35.6633 18.1606 36.7787 20.7808 36.7636C24.7878 36.767 28.3377 34.1792 29.5611 30.3626C32.1285 29.8348 34.3447 28.2264 35.6429 25.9489C37.6319 22.4927 37.1729 18.1476 34.5059 15.1836ZM20.7808 34.3735C19.1815 34.3762 17.6322 33.8154 16.4048 32.7892L16.6209 32.667L23.8903 28.4688C24.2581 28.2525 24.4852 27.8585 24.4879 27.4316V17.1777L27.5611 18.9562C27.5919 18.972 27.6132 19.0015 27.6187 19.0351V27.5318C27.6104 31.3065 24.5538 34.3652 20.7808 34.3735ZM6.08417 28.0947C5.2821 26.7094 4.99392 25.0854 5.27111 23.5079L5.48723 23.6377L12.7635 27.8352C13.1299 28.0507 13.5848 28.0507 13.9512 27.8352L22.8399 22.7089V26.2591C22.8378 26.2962 22.8193 26.3305 22.7898 26.3525L15.427 30.6008C12.1549 32.4864 7.97443 31.3655 6.08417 28.0947ZM4.1699 12.2532C4.97747 10.8584 6.25225 9.79508 7.76858 9.25074V17.8915C7.76309 18.3164 7.98883 18.7111 8.35865 18.9212L17.2041 24.0262L14.131 25.8047C14.0973 25.8226 14.0569 25.8226 14.0232 25.8047L6.67491 21.5633C3.40967 19.6701 2.28994 15.4911 4.1699 12.2168V12.2532ZM29.4177 18.1215L20.5434 12.9657L23.609 11.1947C23.6426 11.1769 23.6831 11.1769 23.7167 11.1947L31.0651 15.443C34.3358 17.3314 35.4569 21.5152 33.5694 24.7867C32.7749 26.1644 31.5254 27.2215 30.0359 27.7775V19.1367C30.0228 18.7125 29.7882 18.3267 29.4177 18.1215ZM32.4764 13.5203L32.2603 13.3906L24.9984 9.1567C24.6293 8.94048 24.1723 8.94048 23.8039 9.1567L14.9227 14.283V10.7327C14.9193 10.6964 14.9358 10.66 14.966 10.6394L22.3143 6.39794C25.5898 4.51025 29.7752 5.63599 31.662 8.91302C32.4593 10.2969 32.7474 11.9162 32.4771 13.4901V13.519L32.4764 13.5203ZM13.2459 19.8136L10.1727 18.0426C10.1419 18.024 10.1206 17.9918 10.1151 17.9561V9.4807C10.1199 5.69846 13.1889 2.63697 16.9688 2.64178C18.564 2.64384 20.1091 3.20328 21.3359 4.22401L21.1198 4.34619L13.8503 8.5444C13.4826 8.76063 13.2555 9.15464 13.2527 9.5816L13.2459 19.8136ZM14.9152 16.2132L18.8734 13.9308L22.8392 16.2132V20.778L18.8878 23.0611L14.9227 20.778L14.9152 16.2132Z" fill="#252525"/>
</svg>
