<svg width="194" height="39" viewBox="0 0 194 39" fill="none" xmlns="http://www.w3.org/2000/svg">
<path d="M60.6177 0.636611C62.3227 0.655966 64.0297 0.651349 65.7366 0.639367C65.7836 4.81005 65.7449 8.98443 65.7559 13.156C66.7668 11.6094 68.3199 10.4407 70.0895 9.91257C72.3893 9.19365 74.9929 9.57524 76.9981 10.9108C78.9481 12.1717 80.3098 14.2114 80.9773 16.417C81.585 18.4438 81.6687 20.6163 81.317 22.6965C80.8511 25.3473 79.4352 27.8765 77.2228 29.447C75.3124 30.8277 72.8192 31.3992 70.5111 30.8692C68.412 30.4296 66.603 29.0433 65.4485 27.2562C65.2698 28.3493 65.1004 29.4452 64.9384 30.5411C63.4966 30.5549 62.0557 30.5319 60.614 30.5531C60.567 22.5841 60.6085 14.6114 60.5946 6.64054C60.6094 4.63861 60.5633 2.63485 60.6177 0.634766M69.91 14.3294C68.6597 14.5911 67.5319 15.3607 66.8128 16.4142C65.8461 17.8078 65.5313 19.5821 65.7347 21.2485C65.9097 22.6947 66.5422 24.1196 67.6451 25.0929C68.7453 26.0884 70.3096 26.5262 71.767 26.2893C73.2235 26.1004 74.551 25.2072 75.3336 23.9694C76.3528 22.3712 76.5683 20.3416 76.1245 18.5166C75.759 16.9829 74.7904 15.5561 73.3763 14.8169C72.3258 14.2446 71.0765 14.1174 69.9109 14.3294H69.91Z" fill="#252525"/>
<path d="M96.4289 0.644043C98.1441 0.650495 99.8592 0.649573 101.575 0.644043C101.576 10.6122 101.575 20.5813 101.575 30.5495C99.8592 30.5439 98.1441 30.5458 96.4289 30.5495C96.4289 20.5813 96.428 10.6122 96.4289 0.644043Z" fill="#252525"/>
<path d="M87.92 0.946127C88.9161 0.783909 89.9897 1.15443 90.625 1.94986C91.6165 3.10659 91.4553 5.05506 90.241 5.99242C89.161 6.87633 87.444 6.82841 86.4119 5.89012C85.6386 5.21728 85.3145 4.09372 85.5686 3.10566C85.8135 1.9904 86.7931 1.10097 87.9191 0.945205L87.92 0.946127Z" fill="#252525"/>
<path d="M109.103 0.951131C110.133 0.770479 111.251 1.17419 111.884 2.01662C112.797 3.15492 112.645 5.00568 111.508 5.94213C110.503 6.81498 108.898 6.84908 107.832 6.06563C107.181 5.59925 106.766 4.83333 106.706 4.03606C106.537 2.58347 107.656 1.14837 109.104 0.950209L109.103 0.951131Z" fill="#252525"/>
<path d="M189.282 1.07087C190.129 0.786067 191.115 0.87916 191.865 1.38333C192.689 1.92068 193.188 2.91058 193.14 3.89311C193.126 4.9973 192.38 6.04343 191.349 6.43055C190.004 6.96237 188.288 6.4029 187.65 5.0692C186.87 3.59172 187.676 1.56122 189.282 1.07087Z" fill="#252525"/>
<path d="M20.9977 5.28184C22.6631 5.27907 24.3277 5.27631 25.9914 5.28276C25.9969 6.869 25.9914 8.45617 25.9942 10.0443C27.8511 10.0498 29.7099 10.0111 31.5669 10.0636C31.542 11.4858 31.5559 12.908 31.5586 14.3302C29.7044 14.3311 27.8511 14.3292 25.9969 14.3311C25.9932 17.1865 25.9886 20.0419 25.9988 22.8983C26.0052 24.0495 26.5355 25.2597 27.5722 25.8339C28.8896 26.5915 30.4879 26.4864 31.9315 26.2403C31.9379 27.7049 31.9149 29.1686 31.9425 30.6341C29.6694 31.1309 27.1854 31.1253 25.0302 30.1659C23.4061 29.446 22.1448 28.0238 21.5492 26.3574C21.1091 25.1638 20.9562 23.8808 20.9746 22.6135C20.9774 19.8567 20.9728 17.0989 20.9755 14.3431C19.9895 14.32 19.0035 14.3348 18.0175 14.3338C18.0202 12.9034 18.0211 11.4729 18.0175 10.0433C19.0109 10.0406 20.0052 10.0369 20.9977 10.0443V5.28184Z" fill="#252525"/>
<path d="M118.747 5.271C120.406 5.28851 122.064 5.27745 123.723 5.27653C123.723 6.86646 123.705 8.45731 123.732 10.0491C125.587 10.0325 127.442 10.0426 129.299 10.0436C129.299 11.4731 129.299 12.9036 129.299 14.3341C127.439 14.3304 125.581 14.3313 123.723 14.3331C123.715 17.1388 123.723 19.9454 123.719 22.7501C123.713 23.9289 124.199 25.1834 125.25 25.8027C126.575 26.6083 128.202 26.4719 129.67 26.2553C129.636 27.7254 129.672 29.1974 129.652 30.6693C127.259 31.1163 124.645 31.1458 122.434 30.0029C120.682 29.108 119.454 27.3715 119.014 25.47C118.621 23.9981 118.735 22.4671 118.719 20.962C118.716 18.7517 118.723 16.5424 118.716 14.3341C117.725 14.3313 116.733 14.3285 115.742 14.335C115.739 12.9027 115.741 11.4722 115.742 10.0417C116.743 10.0417 117.746 10.0362 118.747 10.0445C118.743 8.4527 118.743 6.86093 118.748 5.271H118.747Z" fill="#252525"/>
<path d="M5.90529 9.7556C7.95285 9.39521 10.086 9.52701 12.0829 10.1012C12.9548 10.3547 13.8018 10.7031 14.5696 11.1916C14.5816 12.6995 14.5779 14.2083 14.5724 15.7162C12.5331 14.3189 9.99767 13.6608 7.53857 13.8627C6.71089 13.9687 5.76533 14.247 5.33814 15.0314C4.93397 15.7347 5.17885 16.707 5.87211 17.131C7.03675 17.8859 8.43339 18.1265 9.74349 18.5117C11.4762 19.0002 13.3029 19.5984 14.5587 20.9598C15.6496 22.1248 15.9709 23.8253 15.7721 25.3701C15.6137 27.055 14.6544 28.6292 13.243 29.5574C11.3805 30.8099 9.05762 31.1215 6.86183 31.0542C4.51965 30.9546 2.13511 30.3463 0.210915 28.9629C0.228408 27.3398 0.202665 25.7148 0.224761 24.0917C2.29626 25.9102 5.0684 26.9416 7.83132 26.7407C8.71607 26.6595 9.67815 26.4734 10.3217 25.807C10.8419 25.2991 10.9809 24.4373 10.6246 23.8004C10.2932 23.2437 9.68645 22.9423 9.11287 22.6962C6.90512 21.7976 4.44598 21.5008 2.4242 20.1699C1.38016 19.5062 0.556215 18.4629 0.285539 17.2398C-0.0541866 15.6701 0.212749 13.9447 1.12421 12.6092C2.20783 11.0119 4.04646 10.092 5.90529 9.75467V9.7556Z" fill="#252525"/>
<path d="M37.5827 12.0658C39.1616 10.5072 41.3483 9.50901 43.5846 9.56155C45.703 9.54404 47.827 10.3984 49.2973 11.9322C49.7281 12.3414 50.0375 12.8529 50.4251 13.2981C50.5779 12.217 50.7713 11.1423 50.9121 10.0593C52.3566 10.0178 53.8003 10.0473 55.2448 10.0445C55.2384 16.8789 55.2448 23.7142 55.242 30.5486C53.803 30.5431 52.365 30.5431 50.926 30.5486C50.7639 29.4509 50.5807 28.3568 50.4242 27.2581C49.6508 28.3559 48.7219 29.3716 47.5315 30.0214C45.4572 31.1984 42.8499 31.3984 40.6301 30.5173C38.5494 29.7172 36.8342 28.1006 35.7708 26.1558C34.4027 23.6774 34.0446 20.7113 34.5436 17.9425C34.9395 15.7424 35.9633 13.6244 37.5818 12.0658M43.916 14.3147C42.6178 14.5571 41.4339 15.3295 40.6799 16.4134C39.68 17.8301 39.355 19.6523 39.5944 21.3519C39.7914 22.763 40.4294 24.1465 41.514 25.0912C42.6556 26.1069 44.2732 26.5429 45.772 26.2756C47.2138 26.0553 48.5018 25.129 49.2402 23.8829C50.228 22.2432 50.4049 20.1933 49.9399 18.3573C49.544 16.7812 48.4852 15.3295 46.9772 14.6631C46.027 14.217 44.9407 14.1553 43.9142 14.3147H43.916Z" fill="#252525"/>
<path d="M166.175 10.8248C168.069 9.61281 170.456 9.2515 172.631 9.81005C174.163 10.1944 175.577 11.0534 176.613 12.2498C176.907 12.5844 177.142 12.9659 177.434 13.3061C177.603 12.2185 177.782 11.1308 177.938 10.0414C179.384 10.0386 180.828 10.0405 182.274 10.0414C182.289 16.8666 182.252 23.6945 182.293 30.5197C180.849 30.5833 179.4 30.5215 177.957 30.551C177.765 29.4551 177.609 28.3537 177.434 27.256C176.905 27.9804 176.362 28.7049 175.652 29.2634C173.508 31.0414 170.408 31.5492 167.802 30.5759C165.572 29.7667 163.744 28.0246 162.665 25.9278C161.349 23.4134 161.069 20.4372 161.613 17.6749C162.164 14.9181 163.758 12.3134 166.175 10.8248ZM170.859 14.3291C169.231 14.6462 167.84 15.8269 167.166 17.3311C166.563 18.5883 166.458 20.0225 166.617 21.393C166.839 22.9664 167.636 24.4992 168.954 25.4227C170.792 26.7463 173.535 26.6559 175.222 25.1185C177.041 23.5185 177.528 20.8354 177.007 18.5496C176.649 16.9495 175.633 15.4518 174.136 14.7273C173.129 14.2204 171.956 14.1356 170.86 14.3291H170.859Z" fill="#252525"/>
<path d="M85.8319 10.0469C87.5499 10.0442 89.2688 10.0183 90.9867 10.0607C90.9646 16.8896 90.9831 23.7194 90.9785 30.5482C89.2651 30.5446 87.5499 30.5427 85.8365 30.5482C85.8337 23.7148 85.842 16.8813 85.8328 10.0469H85.8319Z" fill="#252525"/>
<path d="M107.03 10.0653C108.746 10.01 110.466 10.0515 112.183 10.045C112.175 16.8794 112.182 23.7147 112.179 30.551C110.465 30.5427 108.751 30.5482 107.038 30.5482C107.037 23.7203 107.054 16.8923 107.029 10.0662L107.03 10.0653Z" fill="#252525"/>
<path d="M131.179 10.0461C133.026 10.0285 134.873 10.0553 136.721 10.0322C138.358 14.7504 139.888 19.5064 141.529 24.2236C142.025 23.1286 142.322 21.9535 142.737 20.8244C143.907 17.3579 145.093 13.8951 146.258 10.4249C146.324 10.2774 146.346 9.9843 146.584 10.0405C148.286 10.0414 149.989 10.035 151.694 10.0442C147.986 19.487 144.283 28.9307 140.559 38.3652C138.833 38.3514 137.106 38.3717 135.379 38.3542C136.527 35.5301 137.733 32.7272 138.858 29.8948C136.33 23.2678 133.725 16.6675 131.179 10.0461Z" fill="#252525"/>
<path d="M187.683 10.0433C189.404 10.0378 191.123 10.0405 192.844 10.0424C192.832 16.8795 192.871 23.7185 192.824 30.5566C191.115 30.5373 189.405 30.5456 187.697 30.5529C187.663 23.7167 187.689 16.8805 187.683 10.0442V10.0433Z" fill="#252525"/>
<path d="M152.103 26.6296C152.468 25.3697 153.855 24.5992 155.123 24.7217C156.228 24.7715 157.259 25.5116 157.685 26.5292C158.037 27.3744 158.006 28.3809 157.56 29.1864C157.111 30.039 156.223 30.639 155.268 30.7441C154.274 30.8722 153.218 30.4814 152.578 29.7035C151.927 28.945 151.722 27.8518 151.987 26.896C152.015 26.8287 152.075 26.696 152.103 26.6306V26.6296Z" fill="#E80000"/>
</svg>
