<svg width="469" height="360" viewBox="0 0 469 360" fill="none" xmlns="http://www.w3.org/2000/svg">
<path d="M385.404 152.957C385.404 152.957 408.333 155.228 419.948 169.444C419.948 169.444 432.232 152.977 454.281 153.317C459.669 146.817 463.1 138.92 464.174 130.545C465.248 122.17 463.921 113.663 460.348 106.013C456.775 98.3631 451.101 91.8858 443.99 87.3351C436.878 82.7844 428.619 80.3476 420.176 80.3083C411.733 80.2691 403.452 82.6291 396.298 87.1135C389.144 91.5979 383.411 98.0222 379.767 105.638C376.122 113.255 374.716 121.75 375.713 130.134C376.709 138.518 380.066 146.447 385.394 152.997L385.404 152.957Z" fill="#60ABC9"/>
<path opacity="0.5" d="M385.404 152.957C385.404 152.957 408.333 155.228 419.948 169.444C419.948 169.444 432.232 152.977 454.281 153.317C459.669 146.817 463.1 138.92 464.174 130.545C465.248 122.17 463.921 113.663 460.348 106.013C456.775 98.3631 451.101 91.8858 443.99 87.3351C436.878 82.7844 428.619 80.3476 420.176 80.3083C411.733 80.2691 403.452 82.6291 396.298 87.1135C389.144 91.5979 383.411 98.0222 379.767 105.638C376.122 113.255 374.716 121.75 375.713 130.134C376.709 138.518 380.066 146.447 385.394 152.997L385.404 152.957Z" fill="white"/>
<path d="M419.177 83.4498L418.407 232.048H422.278L419.177 83.4498Z" fill="#B8B8B8"/>
<path d="M420.348 165.112C420.348 165.112 428.081 151.176 442.016 146.915C442.016 146.915 427.31 150.406 420.008 162.401L420.348 165.112Z" fill="#B8B8B8"/>
<path d="M420.348 125.636C420.348 125.636 428.081 111.701 442.016 107.439C442.016 107.439 427.31 110.921 420.008 122.925L420.348 125.636Z" fill="#B8B8B8"/>
<path d="M420.348 145.354C420.348 145.354 428.081 131.419 442.016 127.157C442.016 127.157 427.31 130.648 420.008 142.643L420.348 145.354Z" fill="#B8B8B8"/>
<path d="M419.197 135.69C419.197 135.69 411.724 121.765 398.279 117.503C398.279 117.503 412.475 120.985 419.567 132.989L419.197 135.69Z" fill="#B8B8B8"/>
<path d="M419.197 155.048C419.197 155.048 411.724 141.113 398.279 136.861C398.279 136.861 412.475 140.342 419.567 152.337L419.197 155.048Z" fill="#B8B8B8"/>
<path d="M10.1266 152.957C10.1266 152.957 33.0556 155.228 44.6702 169.444C44.6702 169.444 56.955 152.977 79.0037 153.317C84.392 146.817 87.8229 138.92 88.897 130.545C89.9711 122.17 88.6441 113.663 85.0706 106.013C81.4972 98.3631 75.8242 91.8858 68.7122 87.3351C61.6002 82.7844 53.3419 80.3476 44.8987 80.3083C36.4555 80.2691 28.1748 82.6291 21.0209 87.1135C13.8669 91.5979 8.13395 98.0222 4.48953 105.638C0.845103 113.255 -0.560854 121.75 0.435353 130.134C1.43156 138.518 4.78894 146.447 10.1166 152.997L10.1266 152.957Z" fill="#60ABC9"/>
<path opacity="0.5" d="M10.1266 152.957C10.1266 152.957 33.0556 155.228 44.6702 169.444C44.6702 169.444 56.955 152.977 79.0037 153.317C84.392 146.817 87.8229 138.92 88.897 130.545C89.9711 122.17 88.6441 113.663 85.0706 106.013C81.4972 98.3631 75.8242 91.8858 68.7122 87.3351C61.6002 82.7844 53.3419 80.3476 44.8987 80.3083C36.4555 80.2691 28.1748 82.6291 21.0209 87.1135C13.8669 91.5979 8.13395 98.0222 4.48953 105.638C0.845103 113.255 -0.560854 121.75 0.435353 130.134C1.43156 138.518 4.78894 146.447 10.1166 152.997L10.1266 152.957Z" fill="white"/>
<path d="M43.92 83.4498L43.1396 232.048H47.0112L43.92 83.4498Z" fill="#B8B8B8"/>
<path d="M45.0804 165.112C45.0804 165.112 52.8134 151.176 66.7489 146.915C66.7489 146.915 52.0431 150.406 44.7402 162.401L45.0804 165.112Z" fill="#B8B8B8"/>
<path d="M45.0804 125.636C45.0804 125.636 52.8134 111.701 66.7489 107.439C66.7489 107.439 52.0431 110.921 44.7402 122.925L45.0804 125.636Z" fill="#B8B8B8"/>
<path d="M45.0804 145.354C45.0804 145.354 52.8134 131.419 66.7489 127.157C66.7489 127.157 52.0431 130.648 44.7402 142.643L45.0804 145.354Z" fill="#B8B8B8"/>
<path d="M43.9299 135.69C43.9299 135.69 36.457 121.765 23.0117 117.503C23.0117 117.503 37.2073 120.985 44.3001 132.989L43.9299 135.69Z" fill="#B8B8B8"/>
<path d="M43.9299 155.048C43.9299 155.048 36.457 141.113 23.0117 136.861C23.0117 136.861 37.2073 140.342 44.3001 152.337L43.9299 155.048Z" fill="#B8B8B8"/>
<path d="M292.237 167.363C292.237 167.363 311.005 169.213 320.509 180.848C320.509 180.848 330.563 167.373 348.61 167.643C353.018 162.322 355.823 155.858 356.701 149.004C357.578 142.15 356.49 135.188 353.564 128.929C350.638 122.669 345.994 117.369 340.173 113.647C334.351 109.924 327.593 107.931 320.683 107.901C313.773 107.87 306.997 109.803 301.143 113.474C295.289 117.145 290.599 122.403 287.617 128.636C284.636 134.87 283.486 141.822 284.302 148.683C285.118 155.544 287.867 162.033 292.227 167.393L292.237 167.363Z" fill="#60ABC9"/>
<path opacity="0.5" d="M292.237 167.363C292.237 167.363 311.005 169.213 320.509 180.848C320.509 180.848 330.563 167.373 348.61 167.643C353.018 162.322 355.823 155.858 356.701 149.004C357.578 142.15 356.49 135.188 353.564 128.929C350.638 122.669 345.994 117.369 340.173 113.647C334.351 109.924 327.593 107.931 320.683 107.901C313.773 107.87 306.997 109.803 301.143 113.474C295.289 117.145 290.599 122.403 287.617 128.636C284.636 134.87 283.486 141.822 284.302 148.683C285.118 155.544 287.867 162.033 292.227 167.393L292.237 167.363Z" fill="white"/>
<path d="M319.888 110.42L319.258 232.048H322.429L319.888 110.42Z" fill="#B8B8B8"/>
<path d="M320.839 177.267C320.839 177.267 327.181 165.862 338.576 162.371C338.576 162.371 326.571 165.222 320.569 175.046L320.839 177.267Z" fill="#B8B8B8"/>
<path d="M320.839 144.954C320.839 144.954 327.181 133.549 338.576 130.068C338.576 130.068 326.571 132.919 320.569 142.733L320.839 144.954Z" fill="#B8B8B8"/>
<path d="M320.839 161.11C320.839 161.11 327.181 149.706 338.576 146.214C338.576 146.214 326.571 149.066 320.569 158.889L320.839 161.11Z" fill="#B8B8B8"/>
<path d="M319.898 153.187C319.898 153.187 313.786 141.783 302.781 138.301C302.781 138.301 314.396 141.153 320.208 150.966L319.898 153.187Z" fill="#B8B8B8"/>
<path d="M319.898 169.023C319.898 169.023 313.786 157.619 302.781 154.138C302.781 154.138 314.396 156.989 320.208 166.813L319.898 169.023Z" fill="#B8B8B8"/>
<path d="M110.656 167.363C110.656 167.363 129.424 169.213 138.927 180.848C138.927 180.848 148.931 167.373 167.028 167.643C171.436 162.322 174.242 155.858 175.119 149.004C175.996 142.15 174.908 135.188 171.982 128.929C169.056 122.669 164.412 117.369 158.591 113.647C152.77 109.924 146.011 107.931 139.102 107.901C132.192 107.87 125.416 109.803 119.562 113.474C113.708 117.145 109.017 122.403 106.036 128.636C103.054 134.87 101.905 141.822 102.721 148.683C103.537 155.544 106.286 162.033 110.646 167.393L110.656 167.363Z" fill="#60ABC9"/>
<path opacity="0.5" d="M110.656 167.363C110.656 167.363 129.424 169.213 138.927 180.848C138.927 180.848 148.931 167.373 167.028 167.643C171.436 162.322 174.242 155.858 175.119 149.004C175.996 142.15 174.908 135.188 171.982 128.929C169.056 122.669 164.412 117.369 158.591 113.647C152.77 109.924 146.011 107.931 139.102 107.901C132.192 107.87 125.416 109.803 119.562 113.474C113.708 117.145 109.017 122.403 106.036 128.636C103.054 134.87 101.905 141.822 102.721 148.683C103.537 155.544 106.286 162.033 110.646 167.393L110.656 167.363Z" fill="white"/>
<path d="M138.307 110.42L137.677 232.048H140.848L138.307 110.42Z" fill="#B8B8B8"/>
<path d="M139.307 177.267C139.307 177.267 145.65 165.862 157.044 162.371C157.044 162.371 145.039 165.222 139.037 175.046L139.307 177.267Z" fill="#B8B8B8"/>
<path d="M139.307 144.954C139.307 144.954 145.65 133.549 157.044 130.068C157.044 130.068 145.039 132.919 139.037 142.733L139.307 144.954Z" fill="#B8B8B8"/>
<path d="M139.307 161.11C139.307 161.11 145.65 149.706 157.044 146.214C157.044 146.214 145.039 149.066 139.037 158.889L139.307 161.11Z" fill="#B8B8B8"/>
<path d="M138.307 153.187C138.307 153.187 132.205 141.783 121.2 138.351C121.2 138.351 132.815 141.203 138.627 151.016L138.307 153.187Z" fill="#B8B8B8"/>
<path d="M138.307 169.023C138.307 169.023 132.195 157.619 121.19 154.138C121.19 154.138 132.805 156.989 138.617 166.813L138.307 169.023Z" fill="#B8B8B8"/>
<path d="M17.0293 232.578H448.739" stroke="#263238" stroke-width="1.04742" stroke-miterlimit="10"/>
<path d="M170.83 45.0347C170.83 37.3016 174.911 32.8799 182.364 32.8799C189.817 32.8799 193.909 37.3016 193.909 45.0347V70.1845C193.909 77.9176 189.827 82.3393 182.364 82.3393C174.901 82.3393 170.83 77.9176 170.83 70.1845V45.0347ZM178.433 70.6647C178.433 74.1161 179.953 75.4266 182.364 75.4266C184.775 75.4266 186.306 74.1161 186.306 70.6647V44.5545C186.306 41.1031 184.785 39.7926 182.364 39.7926C179.943 39.7926 178.433 41.1031 178.433 44.5545V70.6647Z" fill="#263238"/>
<path d="M199.641 45.0347C199.641 37.3016 203.713 32.8799 211.176 32.8799C218.639 32.8799 222.71 37.3016 222.71 45.0347V70.1845C222.71 77.9176 218.629 82.3393 211.176 82.3393C203.723 82.3393 199.641 77.9176 199.641 70.1845V45.0347ZM207.234 70.6647C207.234 74.1161 208.755 75.4266 211.176 75.4266C213.597 75.4266 215.107 74.1161 215.107 70.6647V44.5545C215.107 41.1031 213.587 39.7926 211.176 39.7926C208.765 39.7926 207.234 41.1031 207.234 44.5545V70.6647Z" fill="#263238"/>
<path d="M251.582 45.3848V51.6672C251.582 59.4103 247.85 63.6719 240.257 63.6719H236.666V81.8391H229.063V33.4401H240.257C247.85 33.4401 251.582 37.6517 251.582 45.3848ZM236.666 40.3828V56.7492H240.257C242.668 56.7492 243.979 55.6488 243.979 52.1974V44.9446C243.979 41.4832 242.668 40.3828 240.257 40.3828H236.666Z" fill="#263238"/>
<path d="M267.128 32.8799C274.511 32.8799 278.312 37.3016 278.312 45.0347V46.5553H271.129V44.5545C271.129 41.1031 269.749 39.7926 267.328 39.7926C264.907 39.7926 263.526 41.1031 263.526 44.5545C263.526 54.4984 278.382 56.3691 278.382 70.1845C278.382 77.9176 274.511 82.3393 267.058 82.3393C259.605 82.3393 255.723 77.9176 255.723 70.1845V67.1834H262.906V70.6347C262.906 74.0861 264.427 75.3366 266.848 75.3366C269.268 75.3366 270.779 74.0861 270.779 70.6347C270.779 60.6908 255.933 58.8201 255.933 45.0046C255.933 37.3116 259.735 32.8799 267.128 32.8799Z" fill="#263238"/>
<path d="M285.155 71.0749L284.154 53.608V33.4401H291.757V53.608L290.757 71.0749H285.155ZM291.647 74.4662V81.7891H284.364V74.4662H291.647Z" fill="#263238"/>
<path d="M154.433 336.599C157.995 336.599 159.515 338.71 159.515 342.141V344.862C159.515 348.454 157.835 350.335 154.243 350.335H152.002V359.268H149.481V336.599H154.433ZM154.243 348.064C156.114 348.064 157.024 347.193 157.024 345.063V342.061C157.024 339.991 156.274 338.95 154.433 338.95H152.002V348.114L154.243 348.064Z" fill="#263238"/>
<path d="M164.377 354.696L163.497 359.268H161.166L165.508 336.599H169.169L173.511 359.268H170.98L170.11 354.696H164.377ZM164.697 352.535H169.749L167.188 339.43L164.697 352.535Z" fill="#263238"/>
<path d="M186.136 342.071V344.012H183.735V341.941C183.735 339.941 182.925 338.68 181.084 338.68C179.243 338.68 178.433 339.901 178.433 341.941V353.946C178.433 355.947 179.273 357.217 181.084 357.217C182.895 357.217 183.735 355.987 183.735 353.946V349.434H181.404V347.163H186.136V353.836C186.136 357.267 184.515 359.528 181.024 359.528C177.533 359.528 175.932 357.267 175.932 353.836V342.071C175.932 338.64 177.553 336.379 181.024 336.379C184.495 336.379 186.136 338.64 186.136 342.071Z" fill="#263238"/>
<path d="M197.24 346.643V348.904H191.708V356.967H198.501V359.268H189.177V336.599H198.501V338.9H191.708V346.643H197.24Z" fill="#263238"/>
<path d="M209.385 359.268H207.124V336.599H210.335L215.577 352.986V336.599H217.818V359.268H215.187L209.395 340.941L209.385 359.268Z" fill="#263238"/>
<path d="M220.849 342.071C220.849 338.61 222.56 336.379 226.031 336.379C229.503 336.379 231.243 338.61 231.243 342.071V353.796C231.243 357.227 229.523 359.488 226.031 359.488C222.54 359.488 220.849 357.227 220.849 353.796V342.071ZM223.34 353.926C223.34 355.997 224.221 357.197 226.031 357.197C227.842 357.197 228.712 355.997 228.712 353.926V341.921C228.712 339.921 227.872 338.66 226.031 338.66C224.191 338.66 223.34 339.881 223.34 341.921V353.926Z" fill="#263238"/>
<path d="M237.586 359.268V338.9H233.415V336.599H244.289V338.9H240.117V359.268H237.586Z" fill="#263238"/>
<path d="M260.095 347.153V349.434H254.883V359.248H252.352V336.599H261.355V338.9H254.883V347.153H260.095Z" fill="#263238"/>
<path d="M263.816 342.071C263.816 338.61 265.537 336.379 268.998 336.379C272.46 336.379 274.211 338.61 274.211 342.071V353.796C274.211 357.227 272.5 359.488 268.998 359.488C265.497 359.488 263.816 357.227 263.816 353.796V342.071ZM266.317 353.926C266.317 355.997 267.188 357.197 268.998 357.197C270.809 357.197 271.689 355.997 271.689 353.926V341.921C271.689 339.921 270.849 338.66 268.998 338.66C267.148 338.66 266.317 339.881 266.317 341.921V353.926Z" fill="#263238"/>
<path d="M279.653 353.926C279.653 355.927 280.463 357.197 282.304 357.197C284.144 357.197 284.935 355.967 284.935 353.926V336.599H287.296V353.796C287.296 357.227 285.705 359.528 282.214 359.528C278.722 359.528 277.162 357.227 277.162 353.796V336.599H279.653V353.926Z" fill="#263238"/>
<path d="M292.668 359.268H290.367V336.599H293.568L298.81 352.986V336.599H301.051V359.268H298.47L292.668 340.941V359.268Z" fill="#263238"/>
<path d="M309.634 336.599C313.166 336.599 314.786 338.74 314.786 342.231V353.666C314.786 357.127 313.166 359.268 309.634 359.268H304.372V336.599H309.634ZM309.634 356.967C311.445 356.967 312.325 355.837 312.325 353.766V342.101C312.325 340.031 311.445 338.9 309.604 338.9H306.883V356.967H309.634Z" fill="#263238"/>
<path opacity="0.3" d="M134.896 280.857C134.896 283.859 116.458 286.249 93.6994 286.249C70.9404 286.249 52.5032 283.839 52.5032 280.857C52.5032 277.876 70.9504 275.465 93.6994 275.465C116.448 275.465 134.896 277.886 134.896 280.857Z" fill="black"/>
<path opacity="0.3" d="M221.139 280.857C221.139 283.859 202.692 286.249 179.943 286.249C157.194 286.249 138.747 283.839 138.747 280.857C138.747 277.876 157.194 275.465 179.943 275.465C202.692 275.465 221.139 277.886 221.139 280.857Z" fill="black"/>
<path opacity="0.3" d="M335.384 280.857C335.384 283.859 316.947 286.249 294.198 286.249C271.449 286.249 253.002 283.839 253.002 280.857C253.002 277.876 271.439 275.465 294.198 275.465C316.957 275.465 335.384 277.886 335.384 280.857Z" fill="black"/>
<path opacity="0.3" d="M430.822 280.857C430.822 283.859 412.375 286.249 389.626 286.249C366.877 286.249 348.389 283.839 348.389 280.857C348.389 277.876 366.837 275.465 389.586 275.465C412.335 275.465 430.822 277.886 430.822 280.857Z" fill="black"/>
<path d="M298.65 123.115C298.65 123.115 296.959 130.118 296.959 131.299C296.958 132.029 296.878 132.757 296.719 133.469C296.719 133.469 293.108 137.801 293.588 139.002C294.172 139.935 295.007 140.684 295.999 141.162C295.999 141.162 297.92 148.165 299.85 148.625C301.833 148.996 303.838 149.236 305.853 149.346L306.573 155.118L316.197 153.677L313.796 145.014L314.796 137.551C314.796 137.551 316.477 134.43 314.796 129.378C313.116 124.326 309.504 124.086 307.093 124.086C304.264 123.907 301.446 123.583 298.65 123.115Z" fill="white" stroke="#263238" stroke-width="1.04742" stroke-linecap="round" stroke-linejoin="round"/>
<path d="M302.981 119.514C302.981 119.514 294.558 119.264 294.798 121.435C295.038 123.606 303.702 126.437 303.702 126.437C303.702 126.437 300.811 128.357 302.251 130.288C303.692 132.219 307.063 133.9 307.063 133.9C307.063 133.9 306.063 137.991 307.553 138.231C309.044 138.471 309.954 136.3 310.194 135.58C310.434 134.86 313.085 135.1 313.806 137.021C314.213 138.019 314.456 139.076 314.526 140.152C314.526 140.152 317.417 131.489 317.897 127.637C318.378 123.786 307.553 119.514 302.981 119.514Z" fill="#263238" stroke="#263238" stroke-width="1.04742" stroke-linecap="round" stroke-linejoin="round"/>
<path d="M308.314 138.351C308.314 138.351 311.225 131.949 312.966 135.1C314.706 138.251 313.966 141.532 312.255 141.883C310.545 142.233 309.114 142.573 309.114 142.573" fill="white"/>
<path d="M308.314 138.351C308.314 138.351 311.225 131.949 312.966 135.1C314.706 138.251 313.966 141.532 312.255 141.883C310.545 142.233 309.114 142.573 309.114 142.573" stroke="#263238" stroke-width="1.04742" stroke-linecap="round" stroke-linejoin="round"/>
<path d="M296.479 205.168C296.009 205.718 288.296 222.254 287.335 227.786C286.375 233.319 280.123 266.292 279.872 267.732C279.622 269.173 266.407 272.064 265.437 272.304C264.466 272.544 266.437 275.195 269.288 275.915C272.139 276.636 280.363 280.007 282.293 278.076C284.224 276.145 286.865 265.321 287.586 264.121C288.306 262.92 301.851 231.008 301.851 231.008C301.851 231.008 308.794 215.692 310.234 214.241C311.675 212.791 308.524 206.378 307.313 204.447C306.103 202.517 299.85 201.316 296.479 205.168Z" fill="#263238" stroke="#263238" stroke-width="1.04742" stroke-linecap="round" stroke-linejoin="round"/>
<path d="M295.038 205.378C295.038 205.378 298.41 221.504 300.09 227.276C301.664 232.124 304.03 236.678 307.093 240.751C309.024 243.403 318.408 266.762 318.408 266.762L319.848 270.373C319.848 270.373 319.368 271.814 316.727 273.734C314.086 275.655 306.613 278.786 308.544 279.517C310.475 280.247 318.168 280.237 321.779 279.997C324.888 279.777 327.803 278.403 329.952 276.145C331.403 274.455 327.551 269.643 327.551 268.682C327.551 267.722 319.128 238.371 318.648 236.92C318.168 235.469 315.757 225.135 315.757 225.135V213.381C315.757 213.381 316.967 211.22 316.967 206.378C316.967 201.536 313.356 200.596 313.356 200.596L293.618 202.526L295.038 205.378Z" fill="#263238" stroke="#263238" stroke-width="1.04742" stroke-linecap="round" stroke-linejoin="round"/>
<path d="M293.368 203.967C293.368 203.967 293.858 208.059 295.298 208.299C296.739 208.539 311.655 212.631 318.157 207.819C318.157 207.819 319.358 204.207 318.638 203.247C317.917 202.286 316.227 202.767 307.573 202.767C298.92 202.767 293.368 202.767 293.368 203.967Z" fill="#60ABC9" stroke="#263238" stroke-width="1.04742" stroke-linecap="round" stroke-linejoin="round"/>
<path d="M315.486 150.066C315.486 150.066 306.583 151.266 302.731 155.068C298.88 158.869 295.519 165.902 293.838 172.395C292.157 178.887 290.947 202.717 293.348 203.917C295.749 205.118 315.967 206.328 319.358 204.917C322.749 203.507 319.118 192.162 319.118 187.831C319.118 183.499 322.969 168.823 322.249 160.65C321.529 152.477 315.486 150.066 315.486 150.066Z" fill="#60ABC9" stroke="#263238" stroke-width="1.04742" stroke-linecap="round" stroke-linejoin="round"/>
<path d="M283.364 175.076C283.254 165.172 279.212 156.719 273.84 153.067V151.066L259.034 151.216C250.701 151.306 244.028 162.221 244.198 175.526C244.369 188.831 251.201 199.605 259.545 199.535L274.35 199.385V197.384C279.552 193.513 283.414 184.98 283.364 175.076Z" fill="#263238" stroke="#263238" stroke-width="1.04742" stroke-linecap="round" stroke-linejoin="round"/>
<path d="M290.006 175.006C289.896 164.602 285.885 155.718 280.243 151.857V149.726L273.9 149.796C265.137 149.886 258.164 161.32 258.314 175.336C258.464 189.351 265.677 200.636 274.44 200.546L280.783 200.476V198.355C286.295 194.373 290.116 185.37 290.006 175.006Z" fill="white" stroke="#263238" stroke-width="1.04742" stroke-linecap="round" stroke-linejoin="round"/>
<path d="M296.369 174.936C296.519 188.941 289.536 200.386 280.783 200.476C272.029 200.566 264.777 189.281 264.657 175.276C264.537 161.27 271.489 149.826 280.243 149.726C288.996 149.626 296.199 160.92 296.369 174.936Z" fill="#737373" stroke="#263238" stroke-width="1.04742" stroke-linecap="round" stroke-linejoin="round"/>
<path d="M292.727 174.505C292.797 181.138 289.486 186.56 285.335 186.61C281.183 186.66 277.762 181.298 277.692 174.606C277.621 167.913 280.933 162.601 285.084 162.501C289.236 162.401 292.657 167.863 292.727 174.505Z" fill="#263238" stroke="#263238" stroke-width="1.04742" stroke-linecap="round" stroke-linejoin="round"/>
<path d="M410.614 224.385C411.44 218.219 411.791 211.998 411.664 205.778C408.413 207.278 389.445 207.829 387.705 207.869C385.964 207.909 366.997 207.278 363.745 205.778C363.602 211.997 363.937 218.217 364.746 224.385C366.056 232.498 377.581 264.981 377.841 266.552C378.178 268.066 378.616 269.557 379.151 271.013C379.151 271.013 372.599 275.725 369.718 277.556C366.837 279.387 368.937 280.177 371.819 280.177C374.7 280.177 380.722 279.387 382.553 279.387C384.173 279.387 386.994 277.976 387.655 277.636C388.315 277.976 391.136 279.387 392.747 279.387C394.587 279.387 400.61 280.177 403.491 280.177C406.372 280.177 408.493 279.387 405.592 277.556C402.691 275.725 396.158 271.013 396.158 271.013C396.693 269.557 397.131 268.066 397.469 266.552C397.779 264.951 409.303 232.468 410.614 224.385Z" fill="#263238" stroke="#263238" stroke-width="1.04742" stroke-linecap="round" stroke-linejoin="round"/>
<path d="M383.743 154.848C383.743 154.848 373.609 158.159 368.377 161.48C363.145 164.802 357.893 182.789 357.893 183.489C357.592 184.742 357.184 185.967 356.673 187.15C356.673 187.15 351.431 185.93 350.39 190.292C349.35 194.653 355.622 200.246 358.944 200.426C362.265 200.606 363.305 199.555 363.305 199.555C363.305 199.555 361.214 203.747 362.085 205.488C362.955 207.228 370.298 213.701 384.794 213.491C399.289 213.281 409.804 210.87 411.334 208.779C412.865 206.688 413.085 202.316 413.085 202.316C413.085 202.316 418.497 200.916 420.418 197.424C422.338 193.933 421.988 190.262 420.938 186.6C419.887 182.939 414.475 172.305 410.814 166.362C407.152 160.42 399.459 157.109 395.808 156.058C392.157 155.008 386.184 154.848 383.743 154.848Z" fill="#60ABC9" stroke="#263238" stroke-width="1.04742" stroke-linecap="round" stroke-linejoin="round"/>
<path d="M386.814 169.554C388.265 169.073 392.817 165.032 394.568 160.99C395.26 159.443 395.748 157.812 396.018 156.138L395.788 156.068C392.127 155.018 386.184 154.848 383.783 154.848C383.783 154.848 381.662 155.538 378.861 156.608C378.879 158.771 379.285 160.913 380.062 162.931C381.642 166.973 385.404 170.044 386.814 169.554Z" fill="white" stroke="#263238" stroke-width="1.04742" stroke-linecap="round" stroke-linejoin="round"/>
<path d="M403.471 177.717C403.471 177.717 407.663 200.076 412.414 202.376" stroke="#263238" stroke-width="1.04742" stroke-linecap="round" stroke-linejoin="round"/>
<path d="M363.305 199.555C363.305 199.555 368.547 179.818 368.897 177.897" stroke="#263238" stroke-width="1.04742" stroke-linecap="round" stroke-linejoin="round"/>
<path d="M410.244 187.821C410.244 187.821 407.343 188.471 407.343 190.572" stroke="#263238" stroke-width="1.04742" stroke-linecap="round" stroke-linejoin="round"/>
<path d="M360.954 188.141C360.954 188.141 364.186 190.242 363.865 193.473" stroke="#263238" stroke-width="1.04742" stroke-linecap="round" stroke-linejoin="round"/>
<path d="M382.603 279.407C384.224 279.407 387.045 277.996 387.705 277.656C388.365 277.996 391.186 279.407 392.797 279.407C394.638 279.407 400.66 280.197 403.541 280.197C406.422 280.197 408.543 279.407 405.642 277.576C403.131 275.985 397.869 272.224 396.528 271.264C393.437 274.085 387.325 273.384 387.325 273.384C386.086 273.198 384.86 272.937 383.653 272.604C381.823 272.074 379.202 271.033 379.202 271.033C379.202 271.033 372.649 275.745 369.768 277.576C366.887 279.407 368.988 280.197 371.869 280.197C374.75 280.197 380.772 279.407 382.603 279.407Z" fill="#60ABC9" stroke="#263238" stroke-width="1.04742" stroke-linecap="round" stroke-linejoin="round"/>
<path d="M387.325 271.073V225.396" stroke="white" stroke-width="1.04742" stroke-linecap="round" stroke-linejoin="round"/>
<path d="M387.705 277.606L387.325 273.334V271.073" stroke="#263238" stroke-width="1.04742" stroke-linecap="round" stroke-linejoin="round"/>
<path d="M383.653 223.825H391.246" stroke="white" stroke-width="1.04742" stroke-linecap="round" stroke-linejoin="round"/>
<path d="M373.729 128.637C373.729 128.637 368.287 131.899 369.097 134.76C369.908 137.621 372.369 138.171 371.828 139.762C371.288 141.353 369.398 142.353 371.548 143.353C372.773 143.902 374.055 144.314 375.37 144.584C375.37 144.584 377.371 151.526 380.812 152.747C384.253 153.967 390.216 153.157 394.437 152.617C395.863 152.477 397.213 151.907 398.307 150.981C399.401 150.055 400.186 148.818 400.56 147.435C400.97 145.944 398.789 147.715 397.699 146.074C396.608 144.434 398.249 140.222 399.469 136.541C400.69 132.859 397.018 125.916 392.257 123.606C387.495 121.295 378.401 122.505 373.729 128.637Z" fill="#263238" stroke="#263238" stroke-width="1.04742" stroke-linecap="round" stroke-linejoin="round"/>
<path d="M382.873 152.357C382.181 154.64 381.712 156.985 381.472 159.36C381.292 162.361 383.743 165.652 386.364 165.472C388.985 165.292 391.246 160.06 391.596 157.469C391.947 154.878 390.726 147.865 390.726 147.865C390.726 147.865 386.725 148.045 385.134 149.436C384.2 150.255 383.432 151.247 382.873 152.357Z" fill="white" stroke="#263238" stroke-width="1.04742" stroke-linecap="round" stroke-linejoin="round"/>
<path d="M379.321 132.449C379.321 132.449 379.451 136.531 383.543 140.452C386.003 142.831 388.919 144.685 392.116 145.904C392.045 146.798 391.815 147.672 391.436 148.485C391.258 148.825 390.981 149.103 390.642 149.282C390.302 149.46 389.916 149.531 389.535 149.486H388.165C388.165 149.486 386.164 154.178 383.743 154.858C381.322 155.538 375.37 155.068 374.55 149.076C373.729 143.083 373.599 138.181 374.279 136.951C374.96 135.72 379.321 132.449 379.321 132.449Z" fill="white" stroke="#263238" stroke-width="1.04742" stroke-linecap="round" stroke-linejoin="round"/>
<path d="M422.128 185.17C422.749 183.918 423.126 182.56 423.239 181.168C423.239 179.347 419.857 176.736 419.237 176.086C418.617 175.436 417.997 175.506 417.867 176.416C417.865 176.927 417.968 177.433 418.169 177.903C418.371 178.373 418.666 178.796 419.037 179.147C419.544 179.547 419.912 180.097 420.088 180.718C420.148 181.168 418.967 183.379 419.557 184.81C420.148 186.24 421.808 186.67 422.128 185.17Z" fill="white" stroke="#263238" stroke-width="1.04742" stroke-linecap="round" stroke-linejoin="round"/>
<path d="M286.645 174.956C286.645 174.956 301.371 179.668 310.224 190.672C319.078 201.676 324.89 200.096 335.894 196.434C346.899 192.773 351.09 179.668 366.286 190.672C381.482 201.676 384.624 205.858 397.198 199.575C409.773 193.293 416.576 178.097 428.111 183.329C439.645 188.561 434.393 215.342 435.443 228.347C436.494 241.352 434.913 273.935 437.534 278.126C440.155 282.318 466.876 279.127 466.876 279.127" stroke="#263238" stroke-width="3.14226" stroke-linecap="round" stroke-linejoin="round"/>
<path d="M314.226 157.469C314.226 157.469 311.295 152.687 306.973 153.937C302.401 155.258 300.04 161.791 298.97 165.862C297.9 169.934 297.179 174.335 295.218 178.127C295.218 178.127 286.555 177.977 281.723 176.576C278.036 175.427 274.41 174.091 270.859 172.575C270.859 172.575 269.148 170.184 267.938 169.714C266.727 169.243 263.586 168.323 263.356 169.043C263.126 169.764 266.997 172.135 266.997 172.135C266.997 172.135 259.795 173.135 259.074 173.905C258.354 174.676 264.166 176.976 264.166 176.976C264.166 176.976 266.337 177.677 271.619 176.416C271.619 176.416 290.997 188.721 294.858 190.132C298.72 191.542 300.861 191.992 303.492 186.91C306.123 181.828 314.856 169.223 316.247 164.151" fill="#60ABC9"/>
<path d="M314.226 157.469C314.226 157.469 311.295 152.687 306.973 153.937C302.401 155.258 300.04 161.791 298.97 165.862C297.9 169.934 297.179 174.335 295.218 178.127C295.218 178.127 286.555 177.977 281.723 176.576C278.036 175.427 274.41 174.091 270.859 172.575C270.859 172.575 269.148 170.184 267.938 169.714C266.727 169.243 263.586 168.323 263.356 169.043C263.126 169.764 266.997 172.135 266.997 172.135C266.997 172.135 259.795 173.135 259.074 173.905C258.354 174.676 264.166 176.976 264.166 176.976C264.166 176.976 266.337 177.677 271.619 176.416C271.619 176.416 290.997 188.721 294.858 190.132C298.72 191.542 300.861 191.992 303.492 186.91C306.123 181.828 314.856 169.223 316.247 164.151" stroke="#263238" stroke-width="1.04742" stroke-linecap="round" stroke-linejoin="round"/>
<path d="M275.891 174.616C273.06 173.555 270.889 172.615 270.889 172.615C270.889 172.615 269.178 170.224 267.968 169.754C266.757 169.283 263.616 168.363 263.386 169.083C263.156 169.804 267.027 172.175 267.027 172.175C267.027 172.175 259.825 173.175 259.104 173.945C258.384 174.716 264.196 177.017 264.196 177.017C264.196 177.017 266.367 177.717 271.649 176.456L274.36 178.167L275.891 174.616Z" fill="white" stroke="#263238" stroke-width="1.04742" stroke-linecap="round" stroke-linejoin="round"/>
<path d="M350.58 187.01C349.959 185.759 349.583 184.401 349.47 183.009C349.47 181.188 352.861 178.587 353.471 177.937C354.082 177.287 354.702 177.357 354.832 178.267C354.834 178.778 354.731 179.284 354.529 179.754C354.328 180.223 354.033 180.647 353.661 180.998C353.154 181.398 352.787 181.948 352.611 182.569C352.551 183.009 353.731 185.23 353.141 186.66C352.551 188.091 350.9 188.501 350.58 187.01Z" fill="white" stroke="#263238" stroke-width="1.04742" stroke-linecap="round" stroke-linejoin="round"/>
<path d="M352.911 181.518C352.911 181.518 350.12 186.67 351.741 188.521C353.361 190.372 354.932 184.359 355.232 182.699C355.532 181.038 353.942 179.367 352.911 181.518Z" fill="white" stroke="#263238" stroke-width="1.04742" stroke-linecap="round" stroke-linejoin="round"/>
<path d="M355.212 183.369C355.212 183.369 352.421 188.521 354.042 190.372C355.662 192.222 357.233 186.21 357.533 184.549C357.833 182.889 356.242 181.158 355.212 183.369Z" fill="white" stroke="#263238" stroke-width="1.04742" stroke-linecap="round" stroke-linejoin="round"/>
<path d="M357.743 183.799C357.743 183.799 354.952 188.951 356.573 190.802C358.193 192.653 359.764 186.64 360.064 184.98C360.364 183.319 358.773 181.638 357.743 183.799Z" fill="white" stroke="#263238" stroke-width="1.04742" stroke-linecap="round" stroke-linejoin="round"/>
<path d="M360.984 183.839C360.984 183.839 358.383 187.841 359.804 189.351C361.224 190.862 362.755 186.11 363.055 184.74C363.355 183.369 361.945 182.038 360.984 183.839Z" fill="white" stroke="#263238" stroke-width="1.04742" stroke-linecap="round" stroke-linejoin="round"/>
<path d="M420.268 181.718C420.268 181.718 423.059 186.87 421.438 188.721C419.817 190.572 418.247 184.549 417.947 182.889C417.647 181.228 419.237 179.557 420.268 181.718Z" fill="white" stroke="#263238" stroke-width="1.04742" stroke-linecap="round" stroke-linejoin="round"/>
<path d="M417.967 183.519C417.967 183.519 420.758 188.671 419.137 190.522C417.517 192.373 415.946 186.35 415.646 184.69C415.346 183.029 416.936 181.368 417.967 183.519Z" fill="white" stroke="#263238" stroke-width="1.04742" stroke-linecap="round" stroke-linejoin="round"/>
<path d="M415.416 183.999C415.416 183.999 418.207 189.151 416.586 191.002C414.966 192.853 413.395 186.84 413.105 185.17C412.815 183.499 414.415 181.838 415.416 183.999Z" fill="white" stroke="#263238" stroke-width="1.04742" stroke-linecap="round" stroke-linejoin="round"/>
<path d="M412.195 184.039C412.195 184.039 414.796 188.091 413.375 189.551C411.954 191.012 410.424 186.31 410.134 184.94C409.844 183.569 411.234 182.239 412.195 184.039Z" fill="white" stroke="#263238" stroke-width="1.04742" stroke-linecap="round" stroke-linejoin="round"/>
<path d="M67.9991 241.042V246.724C66.0273 248.879 64.6093 251.481 63.8675 254.307C62.657 258.949 58.8655 278.927 59.8659 279.447C60.8663 279.967 70.28 282.118 73.2812 281.668C76.7226 281.147 79.6537 281.327 77.923 279.427C76.1924 277.526 67.0988 272.214 67.0988 272.214C67.0988 272.214 77.1027 257.748 79.3236 252.406C81.5445 247.064 81.9046 238.801 81.9046 238.801L68.4793 238.291L67.9991 241.042Z" fill="white" stroke="#263238" stroke-width="1.04742" stroke-linecap="round" stroke-linejoin="round"/>
<path d="M73.2814 281.668C76.7228 281.147 79.6539 281.327 77.9233 279.427C76.1926 277.526 67.099 272.214 67.099 272.214L66.7589 274.275L60.2063 273.474C59.7261 276.816 59.516 279.267 59.8662 279.477C60.9366 279.957 70.2803 282.118 73.2814 281.668Z" fill="#263238" stroke="#263238" stroke-width="1.04742" stroke-linecap="round" stroke-linejoin="round"/>
<path d="M100.892 243.983L102.443 246.744C101.8 247.983 101.422 249.343 101.332 250.736C101.243 252.129 101.444 253.526 101.923 254.837C103.473 259.659 107.095 277.396 107.095 278.426C107.095 279.457 109.326 280.147 111.096 280.147C112.867 280.147 117.769 280.487 118.459 280.487C119.149 280.487 124.141 281.347 125.862 280.317C127.583 279.287 123.671 277.216 121.09 276.015C118.509 274.815 112.827 271.714 112.827 271.714C112.827 271.714 114.197 257.588 114.197 251.386C114.197 245.183 115.578 243.122 113.687 239.331C111.797 235.539 99.9119 241.062 99.9119 241.062L100.892 243.983Z" fill="white" stroke="#263238" stroke-width="1.04742" stroke-linecap="round" stroke-linejoin="round"/>
<path d="M121.04 276.015C118.459 274.805 112.777 271.714 112.777 271.714L112.087 274.295L106.554 275.295C106.885 277.016 107.095 278.196 107.095 278.436C107.095 279.437 109.326 280.157 111.096 280.157C112.867 280.157 117.769 280.497 118.459 280.497C119.149 280.497 124.141 281.358 125.862 280.327C127.583 279.297 123.621 277.216 121.04 276.015Z" fill="#263238" stroke="#263238" stroke-width="1.04742" stroke-linecap="round" stroke-linejoin="round"/>
<path d="M91.6184 129.348C90.2684 127.041 88.7257 124.852 87.0066 122.805C84.6357 120.134 77.2027 120.284 73.9415 123.806C70.6802 127.327 71.7106 133.609 72.9411 135.39C74.1716 137.171 76.6525 145.494 76.6525 145.494L77.2428 151.436L91.0582 156.338L88.2371 146.685C88.2371 146.685 93.5892 145.684 94.0293 144.014C94.4695 142.343 93.139 136.731 93.139 136.731C93.139 136.731 94.9197 135.54 94.7696 134.5C94.6196 133.459 91.6184 129.348 91.6184 129.348Z" fill="white" stroke="#263238" stroke-width="1.04742" stroke-linecap="round" stroke-linejoin="round"/>
<path d="M75.7222 135.75C75.7222 135.75 78.0831 137.751 79.3736 135.46C80.6641 133.169 81.6445 130.928 81.6445 128.988C81.6445 127.047 76.7926 125.436 80.0239 124.136C83.2551 122.835 85.5861 125.726 87.0266 122.825C88.4672 119.924 87.1567 119.614 79.3936 119.614C71.6306 119.614 67.7491 123.495 69.3897 128.347C70.7018 131.93 72.3253 135.392 74.2416 138.691L75.7222 135.75Z" fill="#263238" stroke="#263238" stroke-width="1.04742" stroke-linecap="round" stroke-linejoin="round"/>
<path d="M92.0587 132.779C92.0587 133.513 91.841 134.231 91.4332 134.841C91.0253 135.451 90.4457 135.927 89.7675 136.208C89.0893 136.489 88.3431 136.562 87.6231 136.419C86.9032 136.276 86.2419 135.923 85.7228 135.403C85.2037 134.884 84.8503 134.223 84.7071 133.503C84.5639 132.783 84.6374 132.037 84.9183 131.359C85.1992 130.681 85.6749 130.101 86.2852 129.693C86.8956 129.285 87.6131 129.068 88.3472 129.068C89.3315 129.068 90.2756 129.459 90.9716 130.155C91.6676 130.851 92.0587 131.795 92.0587 132.779Z" stroke="#263238" stroke-width="1.04742" stroke-linecap="round" stroke-linejoin="round"/>
<path d="M91.5186 129.488C91.9504 129.311 92.4124 129.219 92.8791 129.218C93.6519 129.219 94.4024 129.477 95.013 129.951C95.6236 130.424 96.0597 131.087 96.2531 131.836C96.4464 132.584 96.3861 133.375 96.0814 134.085C95.7768 134.795 95.2451 135.385 94.5697 135.76" stroke="#263238" stroke-width="1.04742" stroke-linecap="round" stroke-linejoin="round"/>
<path d="M84.6357 132.779L75.7222 135.75" stroke="#263238" stroke-width="1.04742" stroke-linecap="round" stroke-linejoin="round"/>
<path d="M78.2832 137.681C78.2832 137.681 76.5026 133.97 74.7219 134.68C72.9412 135.39 73.8315 141.222 75.6122 141.813C76.2106 141.947 76.8325 141.937 77.426 141.782C78.0195 141.627 78.5673 141.332 79.0235 140.922C79.0235 140.922 80.5141 144.043 82.2948 144.924" fill="white"/>
<path d="M78.2832 137.681C78.2832 137.681 76.5026 133.97 74.7219 134.68C72.9412 135.39 73.8315 141.222 75.6122 141.813C76.2106 141.947 76.8325 141.937 77.426 141.782C78.0195 141.627 78.5673 141.332 79.0235 140.922C79.0235 140.922 80.5141 144.043 82.2948 144.924" stroke="#263238" stroke-width="1.04742" stroke-linecap="round" stroke-linejoin="round"/>
<path d="M66.5987 204.377L65.4883 218.603L62.167 239.661C62.167 239.661 69.93 245.753 77.1729 245.753C84.4157 245.753 86.4065 244.833 86.4065 244.833L90.4681 223.225L94.5297 245.944C94.5297 245.944 102.533 244.653 107.835 243.353C111.522 242.327 115.016 240.705 118.179 238.551L107.465 210.66L105.144 196.274C105.144 196.274 93.1392 197.384 85.9263 197.755C78.7135 198.125 69.1197 196.274 69.1197 196.274L66.5987 204.377Z" fill="#60ABC9" stroke="#263238" stroke-width="1.04742" stroke-linecap="round" stroke-linejoin="round"/>
<path d="M74.2118 147.535C74.2118 147.535 91.2185 153.467 96.4705 159.229C99.3717 162.431 102.623 184.339 103.793 189.691C104.964 195.044 107.005 205.698 107.005 205.698C107.005 205.698 96.6306 210.38 88.6074 210.55C80.5843 210.72 65.1882 207.038 65.1882 207.038C65.1882 207.038 67.0189 183.299 67.0189 172.265C67.0189 161.23 67.189 154.027 69.0197 150.516C69.0297 150.546 72.0409 147.195 74.2118 147.535Z" fill="#263238" stroke="#263238" stroke-width="1.04742" stroke-linecap="round" stroke-linejoin="round"/>
<path d="M69.74 208.759C69.74 208.759 70.6604 224.275 69.74 230.007C69.0937 233.706 67.9776 237.306 66.4187 240.721" stroke="#263238" stroke-width="1.04742" stroke-linecap="round" stroke-linejoin="round"/>
<path d="M70.1101 216.152C71.4992 215.675 72.7403 214.845 73.7119 213.743C74.6835 212.642 75.3522 211.307 75.6523 209.869" stroke="#263238" stroke-width="1.04742" stroke-linecap="round" stroke-linejoin="round"/>
<path d="M63.0874 236.66C63.0874 236.66 72.331 244.603 86.7367 241.662" stroke="#263238" stroke-width="1.04742" stroke-linecap="round" stroke-linejoin="round"/>
<path d="M94.1294 241.272C94.1294 241.272 109.275 239.611 115.928 235.179" stroke="#263238" stroke-width="1.04742" stroke-linecap="round" stroke-linejoin="round"/>
<path d="M161.876 140.352C161.876 140.352 160.416 141.432 155.324 145.154C150.232 148.875 154.243 154.498 154.243 154.498C154.243 154.498 150.602 155.068 145.74 160.18C140.878 165.292 147.911 174.065 154.483 175.436C161.056 176.806 168.739 168.673 171.04 161.13C173.341 153.587 170.299 142.213 168.769 139.862C167.238 137.511 161.876 140.352 161.876 140.352Z" fill="#263238" stroke="#263238" stroke-width="1.04742" stroke-linecap="round" stroke-linejoin="round"/>
<path d="M181.164 139.352C181.164 139.352 183.695 135.44 181.404 129.768C179.113 124.096 172.27 121.505 165.607 125.616C163.387 126.938 161.664 128.955 160.707 131.355C159.751 133.756 159.613 136.405 160.315 138.892C160.966 141.513 164.247 145.544 164.937 145.604C165.628 145.664 171.62 147.845 175.711 145.934C179.803 144.024 181.164 139.352 181.164 139.352Z" fill="#263238" stroke="#263238" stroke-width="1.04742" stroke-linecap="round" stroke-linejoin="round"/>
<path d="M151.722 271.404C151.722 271.404 156.474 278.797 164.727 280.057C172.981 281.317 165.558 273.915 164.167 272.794C162.777 271.674 152.843 269.253 151.722 271.404Z" fill="#737373" stroke="#263238" stroke-width="1.04742" stroke-linecap="round" stroke-linejoin="round"/>
<path d="M195.689 273.304C195.689 273.304 204.763 275.535 204.063 277.496C203.362 279.457 195.969 279.307 191.648 278.186C187.326 277.066 183.264 275.395 183.825 273.584C184.385 271.774 195.689 273.304 195.689 273.304Z" fill="#737373" stroke="#263238" stroke-width="1.04742" stroke-linecap="round" stroke-linejoin="round"/>
<path d="M169.889 154.057C169.889 154.057 157.745 155.838 155.524 160.13C153.303 164.422 156.434 187.801 156.434 187.801C156.434 187.801 151.252 199.235 151.182 206.598C151.112 213.961 154.393 226.916 154.133 230.147C153.873 233.379 150.552 270.163 150.552 271.164C150.552 272.164 157.555 274.405 167.648 275.605C177.742 276.806 197.05 273.214 197.05 273.214C197.05 273.214 196.67 251.506 197.68 238.561C198.691 225.616 197.25 213.981 194.679 209.149C192.108 204.317 180.133 186.92 180.133 186.92C180.133 186.92 185.936 176.396 186.296 171.794C186.656 167.193 184.785 164.792 180.403 159.5C179.101 157.939 177.5 156.653 175.695 155.719C173.89 154.784 171.916 154.219 169.889 154.057Z" fill="#60ABC9" stroke="#263238" stroke-width="1.04742" stroke-linecap="round" stroke-linejoin="round"/>
<path d="M180.163 186.93C180.163 186.93 185.966 176.406 186.326 171.804C186.686 167.203 184.815 164.802 180.433 159.51C180.223 159.249 180.003 159.019 179.783 158.779L179.623 158.929C175.121 166.282 160.235 178.847 155.804 182.509C156.144 185.64 156.434 187.801 156.434 187.801C156.434 187.801 151.252 199.235 151.182 206.598C151.265 209.953 151.599 213.297 152.182 216.602C162.696 210.6 176.762 199.365 184.375 193.103C181.994 189.581 180.163 186.93 180.163 186.93Z" fill="#737373" stroke="#263238" stroke-width="1.04742" stroke-linecap="round" stroke-linejoin="round"/>
<path d="M167.648 145.474C167.984 148.22 168.168 150.982 168.199 153.747C168.039 155.798 168.699 160.48 172.2 161.951C175.702 163.421 177.902 161.37 177.892 159.31C177.765 157.608 177.429 155.928 176.892 154.308L176.992 148.655C176.992 148.655 170.95 144.874 167.648 145.474Z" fill="white" stroke="#263238" stroke-width="1.04742" stroke-linecap="round" stroke-linejoin="round"/>
<path d="M164.507 141.803C164.507 141.803 161.936 139.542 161.856 142.803C161.776 146.064 164.777 147.145 165.437 147.365C165.995 147.441 166.56 147.301 167.018 146.975C167.018 146.975 171.68 150.976 175.421 151.236C179.163 151.496 180.683 149.766 181.564 142.973C182.444 136.18 175.431 129.288 175.431 129.288C175.431 129.288 169.429 140.352 164.507 141.803Z" fill="white" stroke="#263238" stroke-width="1.04742" stroke-linecap="round" stroke-linejoin="round"/>
<path d="M107.295 205.558C107.261 204.398 107.451 203.243 107.855 202.156C108.475 200.796 111.856 200.016 112.607 199.755C113.357 199.495 113.737 199.755 113.517 200.466C113.342 200.848 113.091 201.19 112.78 201.472C112.469 201.754 112.104 201.97 111.706 202.106C111.189 202.23 110.724 202.514 110.376 202.917C110.186 203.237 110.306 205.288 109.375 206.158C108.445 207.028 106.985 206.788 107.295 205.558Z" fill="white" stroke="#263238" stroke-width="1.04742" stroke-linecap="round" stroke-linejoin="round"/>
<path d="M183.965 175.476C183.965 175.476 171.96 173.905 166.668 182.289C161.376 190.672 151.482 220.003 133.145 224.725C114.808 229.447 109.566 191.712 98.5612 192.763C88.0771 193.763 80.7542 192.763 74.4618 204.287C71.1005 210.46 54.2939 277.856 46.3507 278.546C21.0508 280.757 4.7644 279.317 4.7644 279.317" stroke="#263238" stroke-width="3.14226" stroke-linecap="round" stroke-linejoin="round"/>
<path d="M74.9919 148.015C74.9919 148.015 72.2208 146.905 68.5194 149.115C64.8179 151.326 54.854 175.536 55.5943 178.127C56.3346 180.718 66.8587 185.52 72.7711 187.18C78.6834 188.841 89.3976 190.882 89.3976 190.882C89.3976 190.882 92.7189 196.054 93.8293 196.234C95.4444 196.212 97.0531 196.028 98.6312 195.684C98.6312 195.684 100.632 197.344 101.402 195.494C102.173 193.643 100.662 191.252 99.0014 189.401C97.3407 187.551 90.3179 186.63 90.3179 186.63L71.2805 173.505L79.2836 158.729" fill="#263238"/>
<path d="M74.9919 148.015C74.9919 148.015 72.2208 146.905 68.5194 149.115C64.8179 151.326 54.854 175.536 55.5943 178.127C56.3346 180.718 66.8587 185.52 72.7711 187.18C78.6834 188.841 89.3976 190.882 89.3976 190.882C89.3976 190.882 92.7189 196.054 93.8293 196.234C95.4444 196.212 97.0531 196.028 98.6312 195.684C98.6312 195.684 100.632 197.344 101.402 195.494C102.173 193.643 100.662 191.252 99.0014 189.401C97.3407 187.551 90.3179 186.63 90.3179 186.63L71.2805 173.505L79.2836 158.729" stroke="#263238" stroke-width="1.04742" stroke-linecap="round" stroke-linejoin="round"/>
<path d="M93.8294 196.224C95.4445 196.202 97.0532 196.018 98.6313 195.674C98.6313 195.674 100.632 197.335 101.402 195.484C102.173 193.633 100.662 191.242 99.0015 189.391C97.3408 187.541 90.3181 186.62 90.3181 186.62L71.2806 173.505L74.1217 168.213C67.0089 163.781 62.2871 164.111 59.7361 165.002C57.185 171.124 55.2443 176.927 55.5844 178.117C56.3247 180.708 66.8488 185.51 72.7612 187.171C78.6735 188.831 89.3877 190.872 89.3877 190.872C89.3877 190.872 92.719 196.044 93.8294 196.224Z" fill="white" stroke="#263238" stroke-width="1.04742" stroke-linecap="round" stroke-linejoin="round"/>
<path d="M212.826 175.886C212.016 167.153 207.824 159.98 202.822 157.129L202.662 155.348L189.597 156.558C182.244 157.239 177.172 167.333 178.263 179.097C179.353 190.862 186.196 199.836 193.549 199.105L206.614 197.895L206.444 196.114C210.845 192.433 213.636 184.62 212.826 175.886Z" fill="#263238" stroke="#263238" stroke-width="1.04742" stroke-linecap="round" stroke-linejoin="round"/>
<path d="M218.738 175.366C217.888 166.192 213.736 158.639 208.444 155.638L208.264 153.767L202.672 154.288C194.949 155.008 189.617 165.602 190.757 177.967C191.898 190.332 199.101 199.765 206.824 199.045L212.416 198.525L212.246 196.654C216.868 192.713 219.589 184.509 218.738 175.366Z" fill="white" stroke="#263238" stroke-width="1.04742" stroke-linecap="round" stroke-linejoin="round"/>
<path d="M224.341 174.816C225.491 187.18 220.159 197.775 212.426 198.495C204.693 199.215 197.5 189.772 196.33 177.417C195.159 165.062 200.511 154.408 208.234 153.737C215.957 153.067 223.18 162.461 224.341 174.816Z" fill="white" stroke="#263238" stroke-width="1.04742" stroke-linecap="round" stroke-linejoin="round"/>
<path d="M230.343 167.593L208.644 169.594C208.34 169.622 208.033 169.591 207.741 169.501C207.449 169.411 207.178 169.264 206.943 169.069C206.707 168.874 206.513 168.634 206.371 168.364C206.229 168.093 206.141 167.797 206.113 167.493C206.085 167.188 206.116 166.882 206.206 166.589C206.296 166.297 206.443 166.026 206.638 165.791C206.833 165.556 207.073 165.361 207.343 165.219C207.614 165.077 207.91 164.989 208.214 164.962L229.913 162.961C230.217 162.932 230.524 162.964 230.816 163.054C231.108 163.144 231.38 163.29 231.615 163.486C231.85 163.681 232.044 163.921 232.186 164.191C232.329 164.461 232.416 164.757 232.444 165.062C232.473 165.366 232.441 165.673 232.351 165.965C232.261 166.257 232.114 166.529 231.919 166.764C231.724 166.999 231.484 167.193 231.214 167.335C230.943 167.478 230.647 167.565 230.343 167.593Z" fill="#737373" stroke="#263238" stroke-width="1.04742" stroke-linecap="round" stroke-linejoin="round"/>
<path d="M231.954 184.79L210.255 186.79C209.951 186.819 209.644 186.788 209.352 186.698C209.06 186.608 208.788 186.461 208.553 186.266C208.318 186.071 208.124 185.831 207.981 185.56C207.839 185.29 207.752 184.994 207.724 184.69C207.695 184.385 207.727 184.078 207.817 183.786C207.907 183.494 208.053 183.223 208.249 182.988C208.444 182.752 208.684 182.558 208.954 182.416C209.225 182.274 209.52 182.186 209.825 182.159L231.523 180.158C232.137 180.105 232.746 180.296 233.22 180.689C233.694 181.082 233.994 181.646 234.054 182.259C234.083 182.563 234.052 182.87 233.962 183.162C233.872 183.454 233.725 183.725 233.53 183.96C233.335 184.196 233.095 184.39 232.824 184.532C232.554 184.674 232.258 184.762 231.954 184.79Z" fill="#737373" stroke="#263238" stroke-width="1.04742" stroke-linecap="round" stroke-linejoin="round"/>
<path d="M162.386 155.688C162.386 155.688 157.164 156.689 154.693 159.69C152.222 162.691 147.15 185.85 148.321 188.511C149.491 191.172 168.249 194.513 174.041 194.994C178.698 195.178 183.363 194.97 187.986 194.373C187.986 194.373 192.988 194.243 194.359 194.013C195.729 193.783 198.25 192.433 198.29 191.922C198.33 191.412 198.08 190.192 196.209 190.042C194.339 189.892 190.327 188.551 189.817 188.511C191.019 188.195 192.238 187.948 193.468 187.771C193.468 187.771 193.729 186.77 191.668 186.77C189.607 186.77 187.736 186.63 186.956 187.771C186.398 188.659 185.922 189.597 185.535 190.572C185.535 190.572 173.981 191.382 167.708 188.321C161.436 185.26 159.455 184.239 159.455 184.239L163.957 166.232" fill="#60ABC9"/>
<path d="M162.386 155.688C162.386 155.688 157.164 156.689 154.693 159.69C152.222 162.691 147.15 185.85 148.321 188.511C149.491 191.172 168.249 194.513 174.041 194.994C178.698 195.178 183.363 194.97 187.986 194.373C187.986 194.373 192.988 194.243 194.359 194.013C195.729 193.783 198.25 192.433 198.29 191.922C198.33 191.412 198.08 190.192 196.209 190.042C194.339 189.892 190.327 188.551 189.817 188.511C191.019 188.195 192.238 187.948 193.468 187.771C193.468 187.771 193.729 186.77 191.668 186.77C189.607 186.77 187.736 186.63 186.956 187.771C186.398 188.659 185.922 189.597 185.535 190.572C185.535 190.572 173.981 191.382 167.708 188.321C161.436 185.26 159.455 184.239 159.455 184.239L163.957 166.232" stroke="#263238" stroke-width="1.04742" stroke-linecap="round" stroke-linejoin="round"/>
<path d="M194.329 194.043C195.719 193.813 198.22 192.463 198.26 191.952C198.3 191.442 198.05 190.222 196.18 190.072C194.309 189.922 190.297 188.581 189.787 188.541C190.989 188.225 192.208 187.978 193.438 187.801C193.438 187.801 193.699 186.8 191.638 186.8C189.577 186.8 187.706 186.66 186.926 187.801C186.368 188.689 185.892 189.627 185.505 190.602C185.505 190.602 173.951 191.412 167.678 188.351C161.406 185.29 159.425 184.269 159.425 184.269L162.166 173.265C158.598 171.797 154.833 170.863 150.992 170.494C149.121 178.037 147.59 186.92 148.291 188.501C149.451 191.162 168.219 194.503 174.011 194.983C178.668 195.168 183.333 194.96 187.956 194.363C187.956 194.363 192.968 194.273 194.329 194.043Z" fill="white" stroke="#263238" stroke-width="1.04742" stroke-linecap="round" stroke-linejoin="round"/>
<path d="M109.836 203.617C109.836 203.617 105.974 206.508 106.564 208.419C107.155 210.33 110.376 206.418 111.176 205.268C111.976 204.117 111.346 202.376 109.836 203.617Z" fill="white" stroke="#263238" stroke-width="1.04742" stroke-linecap="round" stroke-linejoin="round"/>
<path d="M110.596 206.208C110.596 206.208 106.744 209.099 107.325 211.01C107.905 212.921 111.146 209.009 111.936 207.859C112.727 206.708 112.107 204.947 110.596 206.208Z" fill="white" stroke="#263238" stroke-width="1.04742" stroke-linecap="round" stroke-linejoin="round"/>
<path d="M112.427 207.889C112.427 207.889 108.575 210.78 109.166 212.69C109.756 214.601 112.977 210.69 113.777 209.539C114.578 208.389 113.947 206.628 112.427 207.889Z" fill="white" stroke="#263238" stroke-width="1.04742" stroke-linecap="round" stroke-linejoin="round"/>
<path d="M113.937 209.249C113.937 209.249 110.606 211.39 111.166 212.971C111.726 214.551 114.478 211.56 115.168 210.64C115.858 209.719 115.298 208.239 113.937 209.249Z" fill="white" stroke="#263238" stroke-width="1.04742" stroke-linecap="round" stroke-linejoin="round"/>
</svg>
