<svg width="477" height="380" viewBox="0 0 477 408" fill="none" xmlns="http://www.w3.org/2000/svg">
<path d="M301.293 360.584H473.285V84.8324H301.293V360.584ZM391.036 294.292H466.514V287.592H391.036V226.035H466.514V219.358H391.036V159.103H466.514V152.403H391.036V91.509H467.011V353.896H391.036V294.292ZM307.579 91.5208H384.75V152.403H307.579V91.5208ZM307.579 159.115H384.75V219.382H307.579V159.115ZM307.579 226.058H384.75V287.615H307.579V226.058ZM307.579 294.292H384.75V353.907H307.579V294.292Z" fill="#B5B5B5"/>
<path d="M472.705 78.5109C470.753 57.0566 460.851 37.1072 444.942 22.5807C429.034 8.05405 408.269 -0.00012207 386.727 -0.00012207C365.184 -0.00012207 344.419 8.05405 328.511 22.5807C312.603 37.1072 302.7 57.0566 300.748 78.5109L300.346 83.0211H473.108L472.705 78.5109ZM309.52 74.7464C311.762 59.3449 318.58 44.9722 329.088 33.4914L377.623 74.7464H309.52ZM381.731 67.4424L335.019 27.679C348.021 16.2368 364.476 9.46996 381.767 8.45428L381.731 67.4424ZM390.018 8.35958C406.31 8.97867 421.996 14.7015 434.859 24.7195L390.018 66.8387V8.35958ZM393.675 74.7464L441.122 30.1768C453.443 42.1031 461.465 57.7766 463.933 74.7464H393.675Z" fill="#B5B5B5"/>
<path d="M99.6817 264.543C95.894 265.541 92.4821 267.628 89.8681 270.545C87.5881 272.988 85.6016 275.69 83.9491 278.595C82.8837 280.441 81.913 282.347 81.0134 284.277C80.4333 285.532 79.9953 287.106 79.4389 288.55C78.6458 289.829 77.8645 291.143 77.1897 292.374C79.5573 283.839 87.2046 268.13 87.3348 263.667C87.4887 258.814 82.8245 266.035 80.232 275.919C78.762 281.522 77.6471 287.211 76.8938 292.954C76.6215 293.463 76.3847 293.948 76.1717 294.398C75.6981 295.393 74.8813 297.085 73.8041 299.287C76.1717 292.042 77.0358 283.436 75.6034 282.371C73.5318 280.832 72.786 284.608 72.7979 291.581C72.5964 296.568 71.7732 301.511 70.3474 306.295C69.0453 308.876 67.5892 311.717 66.0266 314.712C67.6602 309.491 68.6073 301.974 69.5069 296.34C70.8091 288.148 70.2527 285.591 67.601 289.533C64.9493 293.475 65.411 299.181 66.0384 306.165C66.26 310.63 65.4498 315.086 63.6709 319.187C61.6703 322.987 59.5513 326.905 57.4086 330.764C59.2268 326.81 60.3788 322.582 60.8179 318.252C61.7413 308.781 60.522 300.08 58.332 302.543C56.142 305.005 57.4323 311.599 57.1482 319.625C56.9863 324.483 56.436 329.32 55.5027 334.091L54.8398 335.274C55.7201 331.201 55.9518 327.014 55.5264 322.868C55.9644 321.282 55.8105 320.276 55.2778 319.79C55.2068 318.003 55.3488 315.316 54.5912 313.954C52.6735 310.533 50.5782 315.138 50.5545 316.961C50.5548 318.351 50.6497 319.739 50.8386 321.116C50.0927 321.813 49.4473 322.61 48.9209 323.484C48.6368 323.969 48.329 324.514 48.0093 325.106C48.0093 324.537 48.0804 323.922 48.104 323.377C48.2016 321.831 47.8741 320.288 47.157 318.914C48.3142 316.614 49.1468 314.164 49.6311 311.634C49.8365 310.793 49.7617 309.908 49.4181 309.113C49.2925 308.836 49.1075 308.591 48.8762 308.395C48.645 308.198 48.3731 308.056 48.0802 307.976C47.7873 307.897 47.4804 307.884 47.1817 307.937C46.8829 307.99 46.5996 308.109 46.352 308.284C42.706 310.214 41.7353 314.854 41.3209 318.571C40.9376 321.772 40.3043 324.939 39.4269 328.041C38.6811 330.847 38.03 333.38 37.6038 335.144C37.2842 333.191 36.9173 331.297 36.4201 329.545C36.0057 328.018 35.6151 326.538 35.2363 325.117C34.8887 319.947 35.9009 314.776 38.1721 310.119C42.4811 301.264 45.5944 297.097 42.6113 296.943C39.6281 296.789 35.2955 301.406 34.6799 308.698C34.2223 313.122 34.1273 317.576 34.3958 322.016C33.4488 318.618 32.5136 315.422 31.5429 312.167C30.7934 308.57 30.9768 304.841 32.0756 301.335C34.1117 295.322 40.1845 284.644 36.9883 285.484C33.7921 286.325 29.9566 292.516 29.5304 299.074C29.4137 302.504 29.7925 305.933 30.655 309.255C29.9566 306.97 29.2226 304.614 28.4295 302.152C28.098 301.087 27.7429 299.962 27.3996 298.79C27.3996 298.601 27.3996 298.399 27.3049 298.198C26.8626 294.809 27.4743 291.366 29.0569 288.337C32.1111 282.844 37.7933 278.133 34.4431 276.866C31.093 275.6 26.0146 284.549 25.7305 289.024C25.662 290.723 25.7971 292.424 26.133 294.09C26.0027 293.747 25.8607 293.392 25.7186 293.049C24.9965 290.492 24.2981 287.958 23.6825 285.709C23.5455 282.399 24.2116 279.105 25.6239 276.109C28.6071 269.266 32.407 261.442 28.536 263.43C25.4108 265.04 22.037 274.274 22.7 282.063C22.4395 281.045 22.2028 280.169 22.0134 279.459C21.5043 274.996 20.5455 264.484 22.0134 258.222C22.9722 254.043 24.5348 250.089 25.0202 245.792C25.1099 245.351 25.0854 244.895 24.9492 244.466C23.9074 241.874 20.5336 246.916 19.9772 247.745C17.8929 251.063 16.8269 254.92 16.9112 258.837C16.9143 262.179 17.3117 265.509 18.095 268.757C18.5685 270.829 19.1486 272.889 19.8234 274.913C20.2495 276.227 21.0071 277.683 21.5872 279.104C21.8713 280.583 22.2028 282.087 22.5461 283.436C18.4502 275.517 13.2652 258.802 10.3649 255.392C7.15683 251.746 8.70759 260.234 13.5138 269.219C16.2728 274.333 19.3529 279.268 22.7355 283.993C22.8894 284.549 23.0433 285.07 23.1972 285.543C23.5286 286.597 24.085 288.396 24.7953 290.74C21.5398 283.862 16.343 276.949 14.5673 277.139C12.0104 277.423 14.0465 280.69 18.8053 285.792C22.0407 289.573 24.7962 293.74 27.009 298.198C27.8139 300.98 28.6899 304.046 29.5896 307.301C27.222 302.365 22.7828 296.221 19.5984 291.498C14.958 284.62 12.8035 283.129 13.5493 287.816C14.2951 292.504 18.533 296.363 23.7772 301.039C26.9754 304.171 29.4133 307.994 30.9036 312.214C32.0282 316.346 33.1528 320.666 34.2182 324.952C32.8519 320.818 30.812 316.938 28.1809 313.469C22.3803 305.893 15.5499 300.376 15.6328 303.667C15.7156 306.958 21.1492 310.9 26.4407 316.926C29.6445 320.585 32.5427 324.5 35.1061 328.633C35.2126 329.059 35.3191 329.497 35.4138 329.924C33.0463 325.579 29.27 322.04 25.6002 318.772C24.3099 317.589 22.3567 315.103 20.6875 314.57C16.9704 313.386 18.5685 318.181 19.7997 319.518C23.7772 323.875 29.3884 326.562 33.0699 331.143C34.458 332.869 35.7012 334.706 36.787 336.636C37.0475 338.139 37.2369 339.548 37.3908 340.862C35.976 339.525 34.4943 338.261 32.9516 337.074C28.4532 334.043 25.8488 329.888 22.3803 325.887C21.3386 324.703 19.5748 323.223 17.9056 323.152C15.538 323.046 14.8396 325.52 15.538 327.473C18.2726 335.523 28.5597 335.878 34.5852 340.057C35.688 340.762 36.7084 341.588 37.6275 342.519C37.8773 345.005 37.9446 347.505 37.8288 350.001H23.9903V355.766H28.098L31.4363 376.293H59.0896L62.4279 355.766H66.5356V350.001H45.7365C46.6835 348.817 47.7016 347.633 48.7196 346.284L53.0996 346.414C53.0996 346.414 68.2995 347.077 73.8751 344.046C79.4507 341.016 74.4788 338.127 69.14 339.678C63.8011 341.229 53.3127 345.964 50.9925 345.893L49.0274 345.834C50.1165 344.425 51.2056 342.957 52.2355 341.466C56.4224 340.418 60.5384 339.105 64.5587 337.535C68.9269 335.807 74.029 334.41 77.7461 331.486C78.4671 331.008 79.0151 330.311 79.3087 329.498C79.4035 329.211 79.4343 328.907 79.3987 328.607C79.3632 328.308 79.2622 328.02 79.103 327.763C78.9438 327.507 78.7302 327.289 78.4773 327.124C78.2244 326.959 77.9384 326.852 77.6395 326.81C73.6502 325.733 69.7674 328.456 66.9855 330.894C64.518 332.972 61.8941 334.855 59.137 336.529C56.6747 338.056 54.4728 339.477 52.9694 340.448C54.0703 338.814 55.0884 337.168 55.9526 335.57C56.6983 334.173 57.4205 332.836 58.1071 331.522C61.3817 327.505 65.6506 324.416 70.4895 322.56C79.6757 319.009 84.7778 318.133 82.7298 315.967C80.6819 313.8 74.3249 314.227 68.9032 319.139C65.5437 322.058 62.4315 325.249 59.5986 328.681C61.2204 325.555 62.7357 322.572 64.2391 319.53C66.15 316.39 68.8312 313.791 72.0284 311.977C77.6159 308.982 89.3354 305.313 86.4233 303.75C83.5111 302.188 76.4913 304.082 71.7088 308.592C69.2782 311.019 67.2127 313.787 65.5768 316.807C66.6303 314.653 67.6957 312.427 68.8203 310.072C69.3057 309.053 69.8266 308 70.3593 306.911C70.4776 306.745 70.596 306.579 70.7026 306.402C72.6913 303.623 75.4905 301.526 78.7168 300.4C84.6357 298.47 92.0699 298.897 90.4718 295.665C88.8737 292.433 79.0719 295.535 75.8047 298.601C74.602 299.801 73.5415 301.135 72.644 302.578C72.786 302.247 72.9281 301.892 73.0583 301.536C74.2421 299.169 75.4259 296.801 76.6097 294.789C78.7664 292.275 81.5 290.321 84.5765 289.095C91.4307 286.135 99.5515 282.998 95.3609 281.815C91.9752 280.856 83.2034 285.295 78.3853 291.451L79.652 289.083C82.3274 285.461 88.8027 277.127 94.1297 273.54C97.6811 271.172 101.528 269.314 104.784 266.508C105.145 266.242 105.438 265.893 105.636 265.49C106.607 262.921 100.7 264.306 99.6817 264.543ZM37.7933 336.304C38.6811 334.943 40.2555 332.433 41.9957 329.202C42.5314 330.673 43.1439 332.115 43.8306 333.522C42.2206 336.825 40.7527 339.702 39.9004 340.436L38.4325 341.738C38.2668 339.927 38.0537 338.104 37.7933 336.304ZM47.8555 345.881C46.6006 347.503 45.4879 348.852 44.3751 349.989H38.977C38.8942 347.787 38.7403 345.088 38.4799 342.211L41.7708 339.311C41.7708 339.311 43.215 338.127 45.1564 336.221C46.0905 338.061 46.8171 339.998 47.3227 341.998C47.6507 343.267 47.8295 344.571 47.8555 345.881ZM52.3302 334.493C52.1652 336.703 51.8208 338.897 51.3003 341.051C50.4598 342.33 49.643 343.49 48.8617 344.603C48.7906 342.614 48.2579 339.027 48.1988 338.778C47.8325 337.169 47.6302 335.527 47.595 333.878C49.175 332.261 50.6686 330.561 52.0697 328.787C52.3608 330.674 52.4481 332.587 52.3302 334.493Z" fill="#263238"/>
<path d="M376.688 336.257L395.854 367.119C396.402 368.01 396.704 369.03 396.73 370.076C396.755 371.122 396.503 372.156 395.999 373.073C395.495 373.989 394.757 374.756 393.86 375.295C392.963 375.833 391.94 376.125 390.894 376.139H351.71C352.759 376.135 353.787 375.852 354.691 375.319C355.594 374.787 356.34 374.024 356.852 373.109C357.363 372.194 357.623 371.159 357.603 370.111C357.584 369.062 357.287 368.038 356.741 367.142L338.203 336.944L376.688 336.257Z" fill="white" stroke="#263238" stroke-width="1.14832" stroke-linecap="round" stroke-linejoin="round"/>
<path d="M376.712 336.257L338.203 336.944L345.33 348.557H384.347L376.712 336.257Z" fill="#263238" stroke="#263238" stroke-width="1.14832" stroke-linecap="round" stroke-linejoin="round"/>
<path d="M274.243 343.135H431.036C432.938 343.135 434.481 341.593 434.481 339.69V208.337C434.481 206.434 432.938 204.892 431.036 204.892L274.243 204.892C272.341 204.892 270.798 206.434 270.798 208.337V339.69C270.798 341.593 272.341 343.135 274.243 343.135Z" fill="white" stroke="#263238" stroke-width="1.14832" stroke-linecap="round" stroke-linejoin="round"/>
<path d="M268.052 343.135H424.845C426.747 343.135 428.289 341.593 428.289 339.69V208.337C428.289 206.434 426.747 204.892 424.845 204.892L268.052 204.892C266.149 204.892 264.607 206.434 264.607 208.337V339.69C264.607 341.593 266.149 343.135 268.052 343.135Z" fill="white" stroke="#263238" stroke-width="1.14832" stroke-linecap="round" stroke-linejoin="round"/>
<path d="M270.147 204.892H422.856C424.314 204.895 425.711 205.477 426.741 206.509C427.77 207.541 428.349 208.939 428.349 210.397V318.37H264.607V210.409C264.606 209.682 264.748 208.962 265.026 208.29C265.304 207.619 265.713 207.009 266.228 206.496C266.743 205.983 267.354 205.577 268.027 205.302C268.7 205.027 269.42 204.888 270.147 204.892Z" fill="#263238" stroke="#263238" stroke-width="1.14832" stroke-linecap="round" stroke-linejoin="round"/>
<path d="M271.485 310.806H421.412V210.397H271.485V310.806Z" fill="white" stroke="#263238" stroke-width="1.14832" stroke-linecap="round" stroke-linejoin="round"/>
<path d="M227.247 369.226H222.488V370.812H227.247V369.226Z" fill="white" stroke="#263238" stroke-width="1.14832" stroke-linecap="round" stroke-linejoin="round"/>
<path d="M233.592 369.226H228.833V370.812H233.592V369.226Z" fill="white" stroke="#263238" stroke-width="1.14832" stroke-linecap="round" stroke-linejoin="round"/>
<path d="M239.949 369.226H235.19V370.812H239.949V369.226Z" fill="white" stroke="#263238" stroke-width="1.14832" stroke-linecap="round" stroke-linejoin="round"/>
<path d="M246.294 369.226H241.535V370.812H246.294V369.226Z" fill="white" stroke="#263238" stroke-width="1.14832" stroke-linecap="round" stroke-linejoin="round"/>
<path d="M252.639 369.226H247.88V370.812H252.639V369.226Z" fill="white" stroke="#263238" stroke-width="1.14832" stroke-linecap="round" stroke-linejoin="round"/>
<path d="M258.996 369.226H254.237V370.812H258.996V369.226Z" fill="white" stroke="#263238" stroke-width="1.14832" stroke-linecap="round" stroke-linejoin="round"/>
<path d="M265.341 369.226H260.582V370.812H265.341V369.226Z" fill="white" stroke="#263238" stroke-width="1.14832" stroke-linecap="round" stroke-linejoin="round"/>
<path d="M271.686 369.226H266.927V370.812H271.686V369.226Z" fill="white" stroke="#263238" stroke-width="1.14832" stroke-linecap="round" stroke-linejoin="round"/>
<path d="M278.043 369.226H273.284V370.812H278.043V369.226Z" fill="white" stroke="#263238" stroke-width="1.14832" stroke-linecap="round" stroke-linejoin="round"/>
<path d="M284.388 369.226H279.629V370.812H284.388V369.226Z" fill="white" stroke="#263238" stroke-width="1.14832" stroke-linecap="round" stroke-linejoin="round"/>
<path d="M290.733 369.226H285.974V370.812H290.733V369.226Z" fill="white" stroke="#263238" stroke-width="1.14832" stroke-linecap="round" stroke-linejoin="round"/>
<path d="M297.09 369.226H292.331V370.812H297.09V369.226Z" fill="white" stroke="#263238" stroke-width="1.14832" stroke-linecap="round" stroke-linejoin="round"/>
<path d="M303.435 369.226H298.677V370.812H303.435V369.226Z" fill="white" stroke="#263238" stroke-width="1.14832" stroke-linecap="round" stroke-linejoin="round"/>
<path d="M309.78 369.226H305.022V370.812H309.78V369.226Z" fill="white" stroke="#263238" stroke-width="1.14832" stroke-linecap="round" stroke-linejoin="round"/>
<path d="M316.137 369.226H311.379V370.812H316.137V369.226Z" fill="white" stroke="#263238" stroke-width="1.14832" stroke-linecap="round" stroke-linejoin="round"/>
<path d="M322.482 369.226H317.724V370.812H322.482V369.226Z" fill="white" stroke="#263238" stroke-width="1.14832" stroke-linecap="round" stroke-linejoin="round"/>
<path d="M328.828 369.226H324.069V370.812H328.828V369.226Z" fill="white" stroke="#263238" stroke-width="1.14832" stroke-linecap="round" stroke-linejoin="round"/>
<path d="M335.184 369.226H330.426V370.812H335.184V369.226Z" fill="white" stroke="#263238" stroke-width="1.14832" stroke-linecap="round" stroke-linejoin="round"/>
<path d="M341.53 369.226H336.771V370.812H341.53V369.226Z" fill="white" stroke="#263238" stroke-width="1.14832" stroke-linecap="round" stroke-linejoin="round"/>
<path d="M347.875 369.226H343.116V370.812H347.875V369.226Z" fill="white" stroke="#263238" stroke-width="1.14832" stroke-linecap="round" stroke-linejoin="round"/>
<path d="M354.232 369.226H349.473V370.812H354.232V369.226Z" fill="white" stroke="#263238" stroke-width="1.14832" stroke-linecap="round" stroke-linejoin="round"/>
<path d="M357.688 371.049H220.026V376.186H357.688V371.049Z" fill="white" stroke="#263238" stroke-width="1.14832" stroke-linecap="round" stroke-linejoin="round"/>
<path d="M357.7 371.049H324.116V376.186H357.7V371.049Z" fill="#263238" stroke="#263238" stroke-width="1.14832" stroke-linecap="round" stroke-linejoin="round"/>
<path d="M289.384 272.534L310.455 222.708H323.098V272.534H328.567V283.07H323.098V296.446H311.722V283.07H289.384V272.534ZM311.722 272.534V244.833L300.026 272.534H311.722Z" fill="#263238"/>
<path d="M332.888 240.406C332.888 228.568 339.103 221.868 350.479 221.868C361.855 221.868 368.07 228.603 368.07 240.406V278.749C368.07 290.587 361.855 297.287 350.479 297.287C339.103 297.287 332.888 290.539 332.888 278.749V240.406ZM344.477 279.471C344.477 284.739 346.845 286.739 350.479 286.739C354.113 286.739 356.493 284.739 356.493 279.471V239.672C356.493 234.404 354.125 232.403 350.479 232.403C346.833 232.403 344.477 234.404 344.477 239.672V279.471Z" fill="#263238"/>
<path d="M382.714 231.977C391.675 231.977 393.675 227.656 395.463 222.708H403.252V296.446H391.675V240.193H382.714V231.977Z" fill="#263238"/>
<path d="M288.058 402.928C288.058 404.668 288.745 405.722 290.319 405.722C291.893 405.722 292.544 404.668 292.544 402.928V388.178H294.569V402.822C294.569 405.746 293.207 407.711 290.236 407.711C287.265 407.711 285.927 405.746 285.927 402.822V388.178H288.058V402.928Z" fill="#263238"/>
<path d="M298.558 407.486H296.664V388.178H299.387L303.862 402.182V388.178H305.767V407.486H303.53L298.558 391.872V407.486Z" fill="#263238"/>
<path d="M310.147 403.591L309.402 407.486H307.413L311.118 388.178H314.231L317.925 407.486H315.77L315.036 403.591H310.147ZM310.42 401.744H314.729L312.55 390.605L310.42 401.744Z" fill="#263238"/>
<path d="M321.654 402.928C321.654 404.668 322.34 405.722 323.915 405.722C325.489 405.722 326.14 404.668 326.14 402.928V388.178H328.153V402.822C328.153 405.746 326.791 407.711 323.82 407.711C320.849 407.711 319.511 405.746 319.511 402.822V388.178H321.642L321.654 402.928Z" fill="#263238"/>
<path d="M333.066 407.486V390.131H329.514V388.178H338.807V390.131H335.256V407.486H333.066Z" fill="#263238"/>
<path d="M342.358 398.797V407.486H340.216V388.178H342.358V396.867H347.093V388.178H349.248V407.486H347.093V398.797H342.358Z" fill="#263238"/>
<path d="M351.296 392.842C351.296 389.883 352.764 387.977 355.711 387.977C358.659 387.977 360.151 389.883 360.151 392.842V402.822C360.151 405.746 358.695 407.675 355.711 407.675C352.728 407.675 351.296 405.746 351.296 402.822V392.842ZM353.427 402.928C353.427 404.704 354.172 405.722 355.711 405.722C357.25 405.722 358.008 404.704 358.008 402.928V392.712C358.008 390.972 357.286 389.93 355.711 389.93C354.137 389.93 353.427 390.972 353.427 392.712V402.928Z" fill="#263238"/>
<path d="M366.496 388.178C369.538 388.178 370.805 389.717 370.805 392.594V394.156C370.805 396.287 370.059 397.613 368.437 398.134C370.201 398.655 370.864 400.087 370.864 402.159V405.165C370.789 405.975 370.923 406.79 371.254 407.533H369.076C368.766 406.785 368.64 405.973 368.709 405.165V402.123C368.709 399.945 367.691 399.258 365.904 399.258H364.377V407.545H362.234V388.178H366.496ZM365.951 397.281C367.656 397.281 368.674 396.725 368.674 394.63V392.783C368.674 391.043 368.046 390.131 366.448 390.131H364.341V397.234L365.951 397.281Z" fill="#263238"/>
<path d="M375.208 388.178V407.486H373.066V388.178H375.208Z" fill="#263238"/>
<path d="M385.886 407.486H377.114V405.556L383.732 390.167H377.422V388.214H385.945V390.143L379.292 405.532H385.886V407.486Z" fill="#263238"/>
<path d="M394.741 396.725V398.631H390.006V405.509H395.794V407.462H387.851V388.178H395.794V390.131H390.006V396.725H394.741Z" fill="#263238"/>
<path d="M402.329 388.178C405.336 388.178 406.709 390.001 406.709 392.972V402.715C406.709 405.663 405.336 407.45 402.329 407.45H397.807V388.178H402.329ZM402.329 405.532C403.868 405.532 404.614 404.562 404.614 402.798V392.866C404.614 391.102 403.868 390.131 402.246 390.131H399.878V405.521L402.329 405.532Z" fill="#263238"/>
<path d="M240.99 147.502C243.263 152.443 244.396 157.832 244.305 163.27C244.305 172.74 239.747 181.927 240.99 185.667C242.233 189.408 242.66 202.548 240.091 205.117C238.623 206.585 232.396 204.691 232.396 204.691C232.396 204.691 230.727 209.663 229.07 209.663C227.412 209.663 222.855 208.834 221.197 211.734C219.54 214.635 222.026 217.961 220.369 219.618C219.227 220.714 217.974 221.686 216.628 222.519C216.628 222.519 212.236 226.532 209.324 226.532C206.412 226.532 192.1 216.434 192.1 216.434C192.1 216.434 181.174 223.43 176.628 226.768C172.082 230.107 169.525 241.471 169.525 241.471C169.525 241.471 144.926 224.01 149.081 207.84C153.236 191.669 201.996 168.656 217.741 159.529C233.485 150.402 240.99 147.502 240.99 147.502Z" fill="white" stroke="#263238" stroke-width="1.14832" stroke-linecap="round" stroke-linejoin="round"/>
<path d="M237.261 181.098C237.261 181.098 238.658 174.67 232.858 174.67" stroke="#263238" stroke-width="2.29665" stroke-linecap="round" stroke-linejoin="round"/>
<path d="M231.745 168.041C231.165 166.94 237.475 163.306 241.961 167.212" stroke="#263238" stroke-width="2.29665" stroke-linecap="round" stroke-linejoin="round"/>
<path d="M236.551 180.909C235.829 182.412 234.574 183.276 233.746 182.921C232.917 182.566 232.846 180.98 233.568 179.476C234.29 177.973 235.557 177.109 236.374 177.452C237.19 177.795 237.285 179.393 236.551 180.909Z" fill="#263238"/>
<path d="M193.923 198.251C193.923 198.902 193.73 199.538 193.368 200.079C193.007 200.62 192.493 201.042 191.891 201.291C191.29 201.54 190.628 201.606 189.99 201.479C189.352 201.352 188.765 201.038 188.305 200.578C187.845 200.118 187.531 199.531 187.404 198.893C187.277 198.255 187.343 197.593 187.592 196.992C187.841 196.39 188.263 195.876 188.804 195.515C189.345 195.153 189.981 194.96 190.632 194.96C191.505 194.96 192.342 195.307 192.959 195.924C193.576 196.541 193.923 197.378 193.923 198.251Z" fill="white" stroke="#263238" stroke-width="1.14832" stroke-linecap="round" stroke-linejoin="round"/>
<path d="M190.632 201.542V213.155" stroke="#263238" stroke-width="1.14832" stroke-linecap="round" stroke-linejoin="round"/>
<path d="M190.443 209.284C190.443 209.284 185.412 223.608 186.181 224.768C186.95 225.928 195.284 225.348 195.864 224.768C196.444 224.188 190.443 209.284 190.443 209.284Z" fill="white" stroke="#263238" stroke-width="1.14832" stroke-linecap="round" stroke-linejoin="round"/>
<path d="M212.639 263.016C212.639 263.016 222.973 269.693 220.31 270.024C217.28 270.326 214.235 269.623 211.644 268.023C209.213 266.62 206.436 265.926 203.63 266.023H196.965C196.965 266.023 199.629 261.288 202.967 260.684C206.305 260.08 212.639 263.016 212.639 263.016Z" fill="white" stroke="#263238" stroke-width="1.14832" stroke-miterlimit="10" stroke-linecap="round"/>
<path d="M211.976 257.677C211.976 257.677 225.98 264.354 225.648 266.023C225.317 267.692 224.642 268.023 220.973 267.692C217.303 267.36 209.975 263.016 209.975 263.016L201.689 261.678C201.689 261.678 206.637 254.351 211.976 257.677Z" fill="white" stroke="#263238" stroke-width="1.14832" stroke-miterlimit="10" stroke-linecap="round"/>
<path d="M176.948 261.678C176.948 261.678 190.289 254.682 193.296 253.013C196.302 251.344 202.304 252.007 206.637 252.007C210.97 252.007 224.986 252.338 225.649 255.014C226.311 257.689 221.647 258.352 216.971 258.352C212.295 258.352 208.306 257.677 204.636 261.678C202.237 264.453 200.32 267.61 198.966 271.019C202.474 271.757 206.038 272.204 209.62 272.356C213.953 272.356 220.617 274.025 219.955 276.026C219.292 278.027 217.587 280.027 212.284 279.364C206.98 278.701 199.605 279.696 193.935 280.027C188.265 280.359 179.599 278.689 179.599 278.689L176.948 261.678Z" fill="white" stroke="#263238" stroke-width="1.14832" stroke-miterlimit="10" stroke-linecap="round"/>
<path d="M181.848 238.583C181.848 238.583 185.4 238.583 182.926 246.467C180.452 254.351 178.995 269.373 178.995 269.373L167.536 231.421L181.848 238.583Z" fill="#545454" stroke="#263238" stroke-width="1.14832" stroke-miterlimit="10" stroke-linecap="round"/>
<path d="M170.792 376.234C171.579 375.118 172.299 373.955 172.946 372.753C180.215 359.069 182.784 316.31 181.505 288.077C180.227 259.843 179.303 243.341 173.751 233.078C173.751 233.078 160.611 218.269 147.353 211.853C134.094 205.437 109.649 223.927 97.6337 242.323C85.6182 260.719 59.4328 353.517 51.7027 371.049C50.9791 372.685 50.5772 374.445 50.5189 376.234H170.792Z" fill="#55A4C4" stroke="#263238" stroke-width="1.14832" stroke-linecap="round" stroke-linejoin="round"/>
<path d="M281.109 301.904C283.348 302 285.59 301.941 287.821 301.726C288.851 301.726 300.121 300.069 297.09 296.991C296.155 296.056 293.397 296.162 292.189 296.008C286.061 295.17 279.855 295.047 273.698 295.641L281.44 292.41C283.089 292.197 284.75 292.094 286.412 292.102C287.359 292.102 288.425 292.102 289.526 292.102C291.408 292.102 296.072 291.439 297.007 289.569C298.511 286.562 285.655 285.2 283.796 285.2C281.938 285.2 272.361 286.384 271.852 286.384L269.946 286.763H269.603C269.603 286.763 278.576 284.194 282.423 284.194C286.27 284.194 291.408 285.484 292.686 281.625C293.965 277.766 284.139 279.068 275.581 279.494C267.022 279.921 261.044 285.046 255.918 289.332C250.792 293.617 240.943 311.989 230.253 321.401C219.564 330.812 197.32 339.441 197.32 339.441C197.32 339.441 184.465 266.686 178.913 245.733C173.361 224.78 158.788 219.346 158.788 219.346L138.96 284.111C141.469 297.654 156.717 368.16 157.51 369.806C158.49 372.109 159.755 374.28 161.274 376.269H210.993C213.227 374.389 215.342 372.373 217.326 370.232C224.169 362.952 247.264 322.762 247.264 322.762C247.264 322.762 249.833 322.336 255.823 318.903C259.706 316.689 265.779 310.829 270.49 311.883C274.372 312.608 278.328 312.851 282.269 312.605C285.489 312.51 289.301 312.368 291.739 309.93C293.74 307.929 289.549 308.296 288.425 308.201C284.873 307.905 281.618 306.544 278.209 305.656C277.131 305.372 273.107 303.845 272.065 304.366C273.093 303.851 274.092 303.282 275.06 302.661C276.445 301.762 278.54 301.904 281.109 301.904Z" fill="#60ABC9" stroke="#263238" stroke-width="1.14832" stroke-linecap="round" stroke-linejoin="round"/>
<path d="M281.109 301.904C283.348 302 285.59 301.941 287.821 301.726C288.851 301.726 300.121 300.069 297.09 296.991C296.155 296.056 293.397 296.162 292.189 296.008C286.061 295.17 279.855 295.047 273.698 295.641L281.44 292.41C283.089 292.197 284.75 292.094 286.412 292.102C287.359 292.102 288.425 292.102 289.526 292.102C291.408 292.102 296.072 291.439 297.007 289.568C298.511 286.562 285.655 285.2 283.796 285.2C281.938 285.2 272.361 286.384 271.852 286.384L269.946 286.763H269.603C269.603 286.763 278.576 284.194 282.423 284.194C286.27 284.194 291.408 285.484 292.686 281.625C293.965 277.766 284.139 279.068 275.581 279.494C267.022 279.921 261.044 285.046 255.918 289.332C250.792 293.617 240.943 311.989 230.253 321.4C219.564 330.812 197.32 339.441 197.32 339.441C197.32 339.441 191.33 306.674 185.767 279.246C169.346 282.763 154.405 291.248 142.973 303.549C148.359 329.19 156.941 368.586 157.557 369.841C158.537 372.144 159.802 374.316 161.321 376.305H211.041C213.274 374.425 215.389 372.408 217.374 370.267C224.216 362.987 247.312 322.797 247.312 322.797C247.312 322.797 249.881 322.371 255.871 318.938C259.753 316.725 265.826 310.865 270.538 311.918C274.419 312.643 278.375 312.886 282.316 312.64C285.536 312.546 289.348 312.404 291.787 309.965C293.787 307.964 289.597 308.331 288.472 308.237C284.921 307.941 281.665 306.579 278.256 305.692C277.179 305.407 273.154 303.88 272.112 304.401C273.14 303.886 274.14 303.317 275.107 302.697C276.445 301.761 278.54 301.904 281.109 301.904Z" fill="#263238" stroke="#263238" stroke-width="1.14832" stroke-linecap="round" stroke-linejoin="round"/>
<path d="M281.109 301.904C283.348 302 285.591 301.941 287.821 301.726C288.851 301.726 300.121 300.069 297.09 296.991C296.155 296.056 293.397 296.162 292.189 296.008C286.061 295.17 279.855 295.047 273.698 295.641L281.44 292.41C283.089 292.197 284.75 292.094 286.412 292.102C287.359 292.102 288.425 292.102 289.526 292.102C291.408 292.102 296.072 291.439 297.007 289.568C298.511 286.562 285.655 285.2 283.796 285.2C281.938 285.2 272.361 286.384 271.852 286.384L269.946 286.763H269.603C269.603 286.763 278.576 284.194 282.423 284.194C286.27 284.194 291.408 285.484 292.686 281.625C293.965 277.766 284.139 279.068 275.581 279.494C267.022 279.921 261.044 285.046 255.918 289.332C250.792 293.617 240.943 311.989 230.253 321.4C219.564 330.812 197.32 339.441 197.32 339.441C197.32 339.441 192.396 312.498 187.329 287.023C170.704 289.707 155.549 298.146 144.512 310.865C149.851 336.056 157.001 368.693 157.533 369.806C158.514 372.109 159.778 374.28 161.298 376.269H211.017C213.25 374.389 215.366 372.373 217.35 370.232C224.192 362.951 247.288 322.762 247.288 322.762C247.288 322.762 249.857 322.336 255.847 318.903C259.73 316.689 265.803 310.829 270.514 311.883C274.396 312.608 278.352 312.85 282.293 312.605C285.513 312.51 289.324 312.368 291.763 309.93C293.764 307.929 289.573 308.296 288.448 308.201C284.897 307.905 281.642 306.544 278.232 305.656C277.155 305.372 273.13 303.845 272.089 304.366C273.116 303.851 274.116 303.282 275.084 302.661C276.445 301.761 278.54 301.904 281.109 301.904Z" fill="white" stroke="#263238" stroke-width="1.14832" stroke-linecap="round" stroke-linejoin="round"/>
<path d="M197.32 339.406L201.819 361.424" stroke="#263238" stroke-width="1.14832" stroke-linecap="round" stroke-linejoin="round"/>
<path d="M154.811 213.001C154.811 213.001 135.74 209.39 124.198 231.208C114.467 249.568 74.2657 346.189 61.8123 376.234H111.531C122.032 328.468 142.31 241.507 151.117 238.263C163.298 233.765 181.825 238.583 181.825 238.583L154.811 213.001Z" fill="#60ABC9"/>
<mask id="mask0_363_1037" style="mask-type:luminance" maskUnits="userSpaceOnUse" x="61" y="212" width="121" height="165">
<path d="M154.811 213.001C154.811 213.001 135.74 209.39 124.198 231.208C114.467 249.568 74.2657 346.189 61.8123 376.234H111.531C122.032 328.468 142.31 241.507 151.117 238.263C163.298 233.765 181.825 238.583 181.825 238.583L154.811 213.001Z" fill="white"/>
</mask>
<g mask="url(#mask0_363_1037)">
<path opacity="0.5" d="M111.519 376.234C122.02 328.468 142.298 241.507 151.105 238.263C163.287 233.765 181.813 238.583 181.813 238.583L154.775 213.001C154.775 213.001 135.704 209.39 124.162 231.208C114.432 249.568 74.2302 346.189 61.7767 376.234H111.519Z" fill="white"/>
</g>
<path d="M154.811 213.001C154.811 213.001 135.74 209.39 124.198 231.208C114.467 249.568 74.2657 346.189 61.8123 376.234H111.531C122.032 328.468 142.31 241.507 151.117 238.263C163.298 233.765 181.825 238.583 181.825 238.583L154.811 213.001Z" stroke="#263238" stroke-width="1.14832" stroke-linecap="round" stroke-linejoin="round"/>
<path d="M357.7 371.049H317.925V376.186H357.7V371.049Z" fill="white" stroke="#263238" stroke-width="1.14832" stroke-linecap="round" stroke-linejoin="round"/>
<path d="M245.217 147.384C245.217 147.384 240.091 165.342 215.29 177.322C190.49 189.302 180.179 196.558 173.372 202.122C166.566 207.686 161.831 216.233 145.577 206.396C129.324 196.558 131.893 161.921 137.456 144.389C143.02 126.857 157.119 107.182 188.774 108.035C220.428 108.887 247.785 128.988 249.076 137.12C250.366 145.253 245.217 147.384 245.217 147.384Z" fill="#263238" stroke="#263238" stroke-width="1.14832" stroke-linecap="round" stroke-linejoin="round"/>
<path d="M164.565 139.275C164.687 140.603 164.404 141.938 163.754 143.103C163.103 144.268 162.116 145.21 160.921 145.804C159.726 146.398 158.38 146.617 157.058 146.432C155.737 146.247 154.502 145.667 153.516 144.768C152.53 143.868 151.839 142.692 151.534 141.393C151.228 140.094 151.323 138.733 151.804 137.489C152.286 136.245 153.133 135.175 154.233 134.42C155.334 133.666 156.637 133.262 157.971 133.261C159.642 133.187 161.275 133.778 162.511 134.906C163.746 136.033 164.485 137.604 164.565 139.275Z" fill="white"/>
<path d="M158.196 156.724C158.196 156.724 162.162 144.614 152.999 141.335C143.837 138.055 143.304 145.655 118.67 156.416C94.035 167.177 77.2371 171.178 72.6322 184.117C68.0272 197.055 77.3673 203.886 77.3673 203.886C77.3673 203.886 58.7937 212.622 55.2541 226.129C51.7146 239.636 62.7238 253.818 88.4002 259.737C114.077 265.656 132.567 254.232 138.356 244.561C144.145 234.889 145.79 222.069 145.79 222.069C145.79 222.069 152.301 228.592 160.256 211.545C168.211 194.498 158.196 156.724 158.196 156.724Z" fill="#263238" stroke="#263238" stroke-width="1.14832" stroke-linecap="round" stroke-linejoin="round"/>
<g opacity="0.25">
<path d="M165.252 202.548C169.099 186.295 159.262 144.389 159.262 144.389" stroke="white" stroke-width="1.14832" stroke-linecap="round" stroke-linejoin="round"/>
<path d="M123.831 254.872C106.512 258.672 94.2362 238.026 106.275 224.638C108.43 222.291 111.13 220.51 114.136 219.453C117.142 218.396 120.362 218.095 123.511 218.577C127.063 219.157 130.756 221.063 132.117 224.425C132.938 226.847 132.832 229.487 131.821 231.835C129.063 239.116 110.644 248.657 110.644 234.795C110.644 228.485 120.043 222.329 122.114 226.769C124.186 231.208 122.694 234.226 119.25 234.226" stroke="white" stroke-width="1.14832" stroke-linecap="round" stroke-linejoin="round"/>
<path d="M127.276 188.331C122.695 188.331 120.398 199.802 128.46 200.95C136.521 202.098 149.247 197.197 139.93 185.466C135.29 179.547 115.272 176.86 109.531 187.751C103.789 198.642 110.715 212.421 129.655 215.298C142.499 217.239 159.747 213.415 160.635 197.541C161.203 187.218 161.203 153.942 161.203 153.942" stroke="white" stroke-width="1.14832" stroke-linecap="round" stroke-linejoin="round"/>
<path d="M101.457 179.145C101.457 179.145 81.3329 191.196 87.6898 203.247C94.0468 215.298 121.546 213.569 121.546 213.569" stroke="white" stroke-width="1.14832" stroke-linecap="round" stroke-linejoin="round"/>
<path d="M92.2829 208.408C92.2829 208.408 69.9093 211.273 73.3423 233.078" stroke="white" stroke-width="1.14832" stroke-linecap="round" stroke-linejoin="round"/>
</g>
<path d="M15.325 376.281H447.502" stroke="#263238" stroke-width="1.14832" stroke-linecap="round" stroke-linejoin="round"/>
</svg>
