<?xml version="1.0" encoding="UTF-8"?>
<svg version="1.1" viewBox="0 0 1464 1632" width="1280" height="1280" xmlns="http://www.w3.org/2000/svg">
<path transform="translate(0)" d="m0 0h1464v1632h-1464z" fill="#F9F9FB"/>
<path transform="translate(1229,683)" d="m0 0h12l14 2 17 5 17 9 12 9 8 8 8 11 8 15 5 15 2 10 1 16-2 15-4 15-8 16-8 12-9 10-12 9-19 10-16 5-5 1h-29l-15-4-13-5-13-8-13-11-10-13-9-16-6-17-2-11v-23l4-17 6-15 5-9 10-13 9-9 14-9 15-7 13-4z" fill="#03AEF8"/>
<path transform="translate(906,287)" d="m0 0 18 1 17 4 15 6 16 10 12 11 10 14 8 16 4 13 2 12v21l-5 21-6 14-8 12-11 12-8 7-15 9-14 6-16 4h-25l-13-3-15-5-11-6-12-9-10-10-7-10-6-10-6-15-3-12-1-5v-21l3-15 5-15 6-11 8-11 11-12 17-11 16-7 16-4z" fill="#1CA0F7"/>
<path transform="translate(629,644)" d="m0 0h22l18 4 15 6 16 10 9 8 12 16 9 17 5 17 1 6v23l-4 18-6 15-9 14-11 12-8 7-13 8-11 5-17 5-6 1h-22l-15-3-16-6-13-8-10-8-5-5-7-8-8-13-7-16-3-12-1-5v-22l3-16 5-14 6-11 9-12 7-8 13-10 15-8 15-5z" fill="#4169B5"/>
<path transform="translate(294,236)" d="m0 0h19l16 3 16 6 11 6 13 10 7 7 10 14 8 16 5 17 1 7v19l-3 16-6 16-8 14-11 13-12 10-14 8-14 6-11 3-8 1h-18l-16-3-18-7-13-8-11-9-3-3v-2h-2l-9-13-8-16-5-15-2-11v-16l2-14 5-16 9-17 9-11 9-9 13-9 12-6 16-5z" fill="#6F89DE"/>
<path transform="translate(624,561)" d="m0 0h30l20 3 23 6 16 6 21 11 17 12 10 9 8 7 10 11 10 14 9 15 9 20 5 15 4 17 3 26v23l-3 19-5 19-8 20-11 21-14 19-12 13-7 7-14 11-19 12-21 10-26 8-23 4h-31l-24-4-24-7-15-6-17-9-14-10-10-9-4-3v-2l-4-2v-2h-2l-16-20-10-16 1-3 5 3v-2l5-1 2 1v2h2v2h2v2h2v3h2l6 8 11 12 13 12 14 10 14 8 14 7 19 6 20 4 21 2 18-1 25-5 10-3 16-6 16-8 12-8 13-10 7-7h2v-2h2l2-4 8-9 7-10 10-17 9-20 6-21 3-20v-25l-2-16-3-17-7-21-8-15-7-11-10-13-1-3-3-1-7-8-15-14-4-2v-2l-5-2-11-7-16-8-15-6-24-5-21-2h-16l-18 2-21 5-16 6-21 11-19 14-12 11-12 13-4 5h-2l-2 5-5 3-8 9-1 2h-2l-3 6h-2l-1 4-4 4-2-2 4-11 10-18 10-14 12-14 14-14 14-11 13-8 15-8 15-6 23-6z" fill="#DADDEA"/>
<path transform="translate(1204,720)" d="m0 0h10l11 3h16l14 3 14 7 11 10 6 9 4 8 2 8 1 12v10l3 9v14l-4 10-10 11-11 5-4 1h-10l-9-3-20-1-12-3-14-7-9-8-7-11-5-12-1-4-1-21-3-9v-14l5-12 7-8 12-6z" fill="#F9F9FB"/>
<path transform="translate(1449,287)" d="m0 0 3 1v52l-4 1h-52l-3 3-1 25v40l1 12 5 5h53l1 1v53l-2 1-22-4-15-5-13-7-13-10-8-8-9-13-8-16-4-14-2-12v-16l3-17 6-17 8-13 9-11 8-8 15-10 15-7 16-4z" fill="#E4352D"/>
<path transform="translate(321,287)" d="m0 0 9 1 12 4 9 6 6 9 5 13 5 22 1 5v13l-7 8-13 6-7 2h-7l-6-5v-5l5-3 8-3 3-1v-2l-16 7-12 3h-23l-17-4-12-6v2l4 2 10 4 2 2-1 5-5 4h-7l-13-4-10-6-4-5v-13l4-22 5-15 5-9 5-6 8-5 9-3h10l2 1v2l-12 4v1l17-4h16l19 3 6 1-7-3-7-2z" fill="#F8F8FB"/>
<path transform="translate(928,340)" d="m0 0h12l13 6 5-1 3-2 5 1-1 4-3 4h6v4l-6 5-2 1-1 15-6 18-6 10-8 10-9 7-10 6-12 4-6 1h-18l-14-3-9-3-2-3 1-1 13-2 15-6h2v-2l-6-1-10-5-4-5v-5l2-4-8-6-3-6v-7l8 1-6-8-2-4v-14l2-3 4 1 6 5 5 5 12 6 13 4 8 1 1-11 4-8 7-6z" fill="#F9F9FB"/>
<path transform="translate(624,561)" d="m0 0h30l20 3 23 6 16 6 21 11 6 4v3h2l-1 4 9 10 4 4v3l4 5-1 2-6-3-10-9-4-2v-2l-5-2-11-7-16-8-15-6-24-5-21-2h-16l-18 2-21 5-16 6-21 11-19 14-12 11-12 13-4 5h-2l-2 5-5 3-8 9-1 2h-2l-3 6h-2l-1 4-4 4-2-2 4-11 10-18 10-14 12-14 14-14 14-11 13-8 15-8 15-6 23-6z" fill="#DEDAE9"/>
<path transform="translate(645,676)" d="m0 0h19l5 2 1 8-1 10-1 1-14 1-7 2v22l21 1 1 3-3 19-19 1-1 57-1 1h-22l-1-58h-16l-2-1v-21l1-1h18v-26l5-10 7-7z" fill="#F8F9FB"/>
<path transform="translate(140,1195)" d="m0 0h8l9 2 10 9 3 7v31l-2 9-6 7-9 5-5 1h-8l-9-3-8-7-4-8-1-6v-23l2-9 5-8 5-4z" fill="#535864"/>
<path transform="translate(201,1195)" d="m0 0h9l10 3 7 6 4 9 1 10v18l-2 10-4 6-7 6-9 3h-7l-10-3-6-4-2-5h-2l-3-9v-29l3-9 7-8 6-3z" fill="#525662"/>
<path transform="translate(485,826)" d="m0 0 6 3v-2l5-1 2 1v2h2v2h2v2h2v3h2l6 8 11 12 13 12 14 10 14 8 14 7 19 6 20 4 21 2 18-1 16-2 9 2 6-1 1 3 8-3v2l-3 3h4l-1 2-17 5-23 4h-31l-24-4-24-7-15-6-17-9-14-10-10-9-4-3v-2l-4-2v-2h-2l-16-20-10-16z" fill="#DEDAE9"/>
<path transform="translate(1220,621)" d="m0 0h27l16 2 15 4 18 6 2 2-9-1 5 2h8v2l6 2 4 1v2l5 2 6 4-2 1-7-3-6-1 2 4 4 2 7 6-2 1-16-8-7-6v-2l-10-5 2 5v3l-5-1-6-1h-12l-7-1-13-2-11 2-4 2-7-1-8-1-9 2h-7l-2-1v-2l-11 3-12 4-13 5-8 5-6 2h-9l1-5 9-10 9-6 22-10 20-6z" fill="#EEEAF2"/>
<path transform="translate(58,1621)" d="m0 0 1286 1h47v1l-22 1-1239 1h-73l-1-2h2z" fill="#DCDBE9"/>
<path transform="translate(539,1213)" d="m0 0h14l3 2 5-1 2-1h9l1 6v47l-3 7-7 6-8 3h-11l-11-4-3-3v-2h-2l-1-6h9l5 2v2h13l5-5 1-9-14 5-9-1-6-4-5-7-2-8v-9l3-10 7-8z" fill="#525662"/>
<path transform="translate(800,1194)" d="m0 0h13v69l-1 1h-10l-2-3-3-1v2l-7 3h-10l-8-4-6-10-2-7v-11l3-10 7-8 5-2h12l9 4z" fill="#525560"/>
<path transform="translate(125,495)" d="m0 0 5 2 16 10 5 6 9 5 6 3 8 7 7 4h6l3 2 1 3 17 9 16 6 10 3 4 3h12l3 3v-7h4l1 3v3h-2l-1 5 3-1 15 2 3 2v2l6 3 1-4h16l5 1-2 1-1 5 8 1 1-1 18-2 1-4 9-2 10-2 2 5v3l-4-1v-2l-13 2h7l-1 2-4 2v1h-6l-4 1h-44l-31-5-19-5-21-7-18-8-22-13-14-10-11-9-6-5-7-8-6-7z" fill="#EEEAF2"/>
<path transform="translate(1233,742)" d="m0 0 14 2 9 5 6 7-1 6-4 3-6-1-7-6-8-3-10 2-3 4 2 5 8 3 19 5 8 5 4 6 1 4v8l-4 8-7 6-9 3-12 1-10-2-8-4-5-5-2-3v-7l3-3 5-1 5 5 7 6 3 1h8l8-4 1-1v-8l-11-3-20-6-7-6-2-4v-13l4-7 8-5z" fill="#04ADF8"/>
<path transform="translate(1407,362)" d="m0 0 6 2 16 9 21 12 2 6v36h-45z" fill="#6F89DE"/>
<path transform="translate(781,518)" d="m0 0 4 1 3 3 9 3 5 1 14 9 16 9 6 3 7 3 30 10 5 2 9 1 6 3h12l19 3 3 2 7 2v4l-6 1v-2l-27 2h-15l-22-4-21-6-14-5-22-12-16-12-5-5-3-2v-2h-2l-3-4v-7z" fill="#EEEAF2"/>
<path transform="translate(896,189)" d="m0 0h30l13 1 24 5v1h-14l2 6v3l-6-2-5 1-3 4-12-1h-31l-8 1h-13l-3-1h-6l-1 2-7 1-13 5-11 5-9 3-17 5-3-1-1-2-5 2 5-5 13-8 5-2h2v-2l18-8 18-6 16-4z" fill="#EEEAF2"/>
<path transform="translate(1133,886)" d="m0 0 5 1 16 8 19 8 5 5 15 6 20 5 5 3h15l-4-2 18-1h12l9-1 1 1h13l3 3-13 4-10 4-4 1-1 2-12 2h-20l-23-3-15-4-12-4-17-8-12-9-10-9-3-4z" fill="#EEEAF2"/>
<path transform="translate(1449,239)" d="m0 0 2 1 1 4v10l-1 1-22 3-16 4-18 6-18 10-6 5-15 12-7 8-8 9-4 2-1 2h-2v2l-8 6-2-1 1-7 10-16 9-11 20-20 15-10 17-8 20-6 20-4z" fill="#DFDAE9"/>
<path transform="translate(637,1213)" d="m0 0h16l6 4 4 5 3 10v29l-3 3h-9l-1-4-7 4-5 1h-9l-8-4-4-7-1-9 4-7 4-3 4-1h14l7 2-2-9-5-3-10 2-3 2h-6l-2-1 1-5 8-7z" fill="#525663"/>
<path transform="translate(1337,456)" d="m0 0h6l8 7v2l4 2 8 7 5 5 8 6 16 9 8 4 15 5 20 5 16 2 1 3-1 11-16-1-27-6-18-7-14-7-14-10-6-5-7-8-4-6v-2l-4-1-5-7z" fill="#DFDAE9"/>
<path transform="translate(726,1213)" d="m0 0h15l7 3 6 7 2 4v16l-13 1h-19l3 9 1 1h11l6-4 1-1 10-1-1 6-6 7-9 4h-12l-7-2-7-8-3-7v-16l4-11 8-7z" fill="#535867"/>
<path transform="translate(486,1213)" d="m0 0h16l7 4 5 6 3 9v11l-14 1h-19l2 7 5 4h9l5-6 11-1-1 6-6 7-7 3-5 1h-9l-8-3-5-5-4-9v-16l4-11 7-6z" fill="#525662"/>
<path transform="translate(381,1213)" d="m0 0h9l2 4 9-4h12l6 3 5 6 1 5v37h-13l-1-35-4-3-11-1v2h-2l-1 37h-13v-50z" fill="#525660"/>
<path transform="translate(100,1196)" d="m0 0h5l1 1v67h-14v-53l-9 3-5-1 1-10 12-5z" fill="#535765"/>
<path transform="translate(441,1200)" d="m0 0h10l2 1v13h10v10l-5 1-5-1 1 29h8l1 1v9l-1 1h-12l-5-2-4-4-1-3-1-30-6-1-1-2v-7l7-2 1-12z" fill="#51555F"/>
<path transform="translate(681,1200)" d="m0 0h10l2 1 1 12 9 1v11h-9v28h7l2 2v8l-2 1h-11l-7-3-3-8v-29h-7l-1-2v-7l7-2 1-12z" fill="#52555F"/>
<path transform="translate(202,1206)" d="m0 0h8l6 4 2 4v32l-3 5-8 4-7-1-5-5-2-7v-23l3-9z" fill="#F5F6FA"/>
<path transform="translate(141,1206)" d="m0 0h7l6 4 2 3v34l-4 5h-2v2h-11l-5-5-2-4v-29l4-7z" fill="#F7F7FB"/>
<path transform="translate(252,1196)" d="m0 0h8l8 4 4 8v12l-2 6-4 5-3 2h-13l-6-4-3-6v-17l4-6 4-3z" fill="#494C58"/>
<path transform="translate(295,1228)" d="m0 0h15l6 7 1 5v10l-3 9-5 4-3 1h-12l-6-6-2-5v-14l3-7z" fill="#2A2831"/>
<path transform="translate(352,1197)" d="m0 0h14v66h-14z" fill="#51545C"/>
<path transform="translate(118,1427)" d="m0 0 4 1 1 2 2-2 4-1h10l6 5 2 4v12l-3 8-6 4h-10l-6-4 1 15h-5z" fill="#F2F3F9"/>
<path transform="translate(1131,1351)" d="m0 0h11l9 1 1 10v21l-3 7-4 4-3 1h-11l-6-4-1-3 4 1 5 2h8l5-2 1-3v-8l-8 4h-8l-5-4-3-6v-11l4-8z" fill="#31303C"/>
<path transform="translate(201,1195)" d="m0 0h9l10 3 7 6 3 6v5l-2-2-4 3-2 6-1 19-1 4-2 1-1-32-3-5-4-2h-8l-6 4-2 8v28l-2-2-2 1-2-6-1-9v-9l1-5h-2l-1 2-3-3-1 3v-8l5-8 6-5z" fill="#484B57"/>
<path transform="translate(611,1213)" d="m0 0 4 1v12l-1 1-10 2-4 7-1 27-1 1h-12l-1-1v-15l1-34h12v4z" fill="#525661"/>
<path transform="translate(157,1427)" d="m0 0 3 1 1 2 6-3h10l7 6 1 3v12l-3 7-4 4-2 1h-9l-7-4 1 15h-4l-1-31z" fill="#F3F4FA"/>
<path transform="translate(140,1195)" d="m0 0h8l9 2 10 9 2 4v4l-4 2-3-1-1-2-2 3-1 25h-1l-1-24-3-7-5-3h-7l-5 3-3 6-1 31-1 2h-2l-1-7-1-20-1-6-5 1v16l-1 8h-1v-28l5-10 6-5z" fill="#494C58"/>
<path transform="translate(489,1351)" d="m0 0h11l6 4 3 5v13l-3 6-4 4-3 1h-10l-6-5-2-4-1-9 2-9 4-5z" fill="#F4F5FA"/>
<path transform="translate(826,1351)" d="m0 0h11l6 4 3 5v16l-4 5-6 3h-10l-6-5-2-5v-14l3-5z" fill="#F4F5FA"/>
<path transform="translate(940,1350)" d="m0 0 9 1 6 5 2 5v11l-3 7-4 4-3 1h-9l-5-3-3-5-1-4v-10l4-8z" fill="#40445B"/>
<path transform="translate(279,1350)" d="m0 0 10 1 5 4 2 3v18l-6 7-3 1h-10l-5-4-3-6-1-11 4-8 5-4z" fill="#353542"/>
<path transform="translate(603,1350)" d="m0 0 9 1 6 5 1 2v18l-4 6-5 2h-9l-6-5-3-7v-11l4-7 4-3z" fill="#373846"/>
<path transform="translate(1396,340)" d="m0 0h56v30l-14-8-25-14-8-6-9-1z" fill="#D7D4E8"/>
<path transform="translate(295,1196)" d="m0 0h4l-1 6-5 12-10 19-6 11-7 14-3 5-2 1h-7l2-6 14-29 10-19 7-12z" fill="#484B59"/>
<path transform="translate(785,1223)" d="m0 0 9 1 6 6v15l-3 6-5 4h-7l-5-5-2-3v-16l5-7z" fill="#F6F7FA"/>
<path transform="translate(513,616)" d="m0 0 5 1v5l-4 7-4 5-5 5-5 7-3 5-8 9-1 2h-2l-3 6h-2l-1 4-4 4-2-2 4-11 10-18 10-14 12-14z" fill="#DADDE9"/>
<path transform="translate(717,1350)" d="m0 0 9 2 4 7v23l-8 2h-13l-6-5v-10l6-4h14l5 2-4-10-3-2h-7l-6 3-2-1 4-5z" fill="#31303D"/>
<path transform="translate(90,1427)" d="m0 0h10l6 5 1 2v25l-10 1h-10l-6-5-1-2v-7l6-5h14l4 1-3-11h-9l-7 4h-2l2-4z" fill="#2B2932"/>
<path transform="translate(132,1350)" d="m0 0 9 1 7 6 1 3v9h-24l3 9 3 2h7l6-3 4-4-1 6-6 5h-11l-5-3-4-7v-13l4-7 4-3z" fill="#2F2E38"/>
<path transform="translate(167,1351)" d="m0 0h10l4 2 3 7 1 23h-5v-2l-7 3h-9l-5-3-2-5v-6l6-5h14l3 2-1-9-4-3h-7l-6 4h-2l2-4z" fill="#2B2831"/>
<path transform="translate(1442,255)" d="m0 0h10v17l-3 2-1-8-4 1-4-1-6 1-2-1h-6l-3 2-19 2-15 6-5 4h-2l-1-4 8-6 14-6 21-6z" fill="#EFEBF3"/>
<path transform="translate(545,1223)" d="m0 0 8 1 6 5 1 2v13l-7 7h-10l-4-5-1-4v-11l5-7z" fill="#F6F6FA"/>
<path transform="translate(208,1350)" d="m0 0 7 1 5 5 4-2 3-3h10l6 5 1 4v23h-4l-1-23-2-4-2-1h-7l-4 3h-2v25h-5v-22l-3-6h-7l-6 1-1 4v23l-5 1v-33l4 1v3z" fill="#32303B"/>
<path transform="translate(118,1427)" d="m0 0 4 1 1 2 2-2 4-1h10l6 5 2 4v12l-3 8-6 4h-10l-6-4 1 15h-5zm12 3-6 3-2 6v9l2 5 6 4 9-1 3-4 1-4v-11l-4-6-2-1z" fill="#2B2932"/>
<path transform="translate(1134,1354)" d="m0 0h7l5 3 1 2v16l-8 4h-6l-5-5-1-3v-11l5-5z" fill="#F4F5FA"/>
<path transform="translate(92,1338)" d="m0 0h7l8 3 5 7v4l-4-2-3-5-7-3-7 1-5 5 1 7 8 3 12 4 6 5v7l-3 5-4 4-7 2-9-1-6-4-4-7v-3l4 1 3 6 4 3 9 1 8-5v-8l-4-3-15-4-6-4-2-3 1-9 7-6z" fill="#2E2C36"/>
<path transform="translate(300,93)" d="m0 0h19l10 2 15 2 6 4 14 4v1h-8l-9-3-1-1h-12l-4 1-3-3-4-1-5 1-2-1h-11l-1 3-6-2-4 1-11 1-5-2-1-4 18-1z" fill="#EEEAF2"/>
<path transform="translate(451,1338)" d="m0 0h7l7 3 6 7 1 7h-2l-6-9-5-3h-10l-5 4-3 9v8l2 10 4 5 3 1h8l6-3 4-5 1-4h3l-1 7-5 6-5 3-10 1-8-4-5-7-2-7v-12l3-8 3-5 5-3z" fill="#31313E"/>
<path transform="translate(157,1427)" d="m0 0 3 1 1 2 6-3h10l7 6 1 3v12l-3 7-4 4-2 1h-9l-7-4 1 15h-4l-1-31zm10 3-5 3-2 9 1 10 6 5h7l5-3 2-5v-12l-3-5-3-2z" fill="#2C2A35"/>
<path transform="translate(320,327)" d="m0 0h6l6 4 2 4v7l-4 6-3 1h-8l-5-5-2-7 3-6z" fill="#6F89DE"/>
<path transform="translate(284,327)" d="m0 0 7 2 4 5 1 6-3 6-4 3h-9l-5-5-1-2v-7l4-6z" fill="#6F89DE"/>
<path transform="translate(802,811)" d="m0 0 1 3-11 21-14 19-12 13-7 7-14 11-16 10-3-1 5-3h2l1-3 6-3 6-7h2l2-3 6-2v-2h2v-3l4-4h2l2-5 4-4h2l2-5 4-1v-2h2l1-4h2l2-4 10-15 3-7h2z" fill="#DEDAE9"/>
<path transform="translate(1351,285)" d="m0 0 2 1-2 6-7 11-4 6-1 4-3 3h-2v2l-8 6-2-1 1-7 10-16 9-11z" fill="#DADDE9"/>
<path transform="translate(801,1194)" d="m0 0h12l-1 13-1-2-3 1-2-2-2-1v3l2 2-4 1 4 2-2 4h-2l1 9 2 4 2 1v2l2 8h-2l-1 5-1 2h-2l-1 2-2-1-1-17-3-3 1-4h3z" fill="#484A54"/>
<path transform="translate(528,1351)" d="m0 0h11l5 5 1 3v25l-4-1-1-24-3-4h-7l-6 3-1 7v18h-5v-31h7z" fill="#2E2C35"/>
<path transform="translate(381,1213)" d="m0 0h9l2 2-1 4-3 1-2 9-1 11-1 3v5l3 2 2 6 2 1v-17h1v23h-11z" fill="#474954"/>
<path transform="translate(826,1351)" d="m0 0h11l6 4 3 5v16l-4 5-6 3h-10l-6-5-2-5v-14l3-5zm2 3-5 4-1 3v13l6 7h7l5-3 3-7v-9l-4-6-4-2z" fill="#2D2B35"/>
<path transform="translate(299,1234)" d="m0 0h7l3 3 1 4v9l-2 5-4 3h-6l-3-3v-18l1-2z" fill="#F0F1F9"/>
<path transform="translate(1098,1351)" d="m0 0h10l5 5 1 4 1 23h-5l-1-22-2-5-2-1h-7l-5 2-1 2-1 24h-4v-31z" fill="#353542"/>
<path transform="translate(489,1351)" d="m0 0h11l6 4 3 5v13l-3 6-4 4-3 1h-10l-6-5-2-4-1-9 2-9 4-5zm2 3-6 5-1 3v9l3 7 4 3h7l5-3 3-7v-7l-3-7-5-3z" fill="#2D2B34"/>
<path transform="translate(527,1267)" d="m0 0h9l5 2v2l14 1 3 2 2 3-1 3-4 2h-11l-11-4-3-3v-2h-2zm35 7 1 2-3-1z" fill="#50545F"/>
<path transform="translate(293,1229)" d="m0 0h2l3 4h-3l1 4v18l2 4 11 3-3 2h-12l-6-6-2-5v-14l3-7z" fill="#474A56"/>
<path transform="translate(253,1203)" d="m0 0h7l4 5v11l-3 6-5 2-4-1v-2h-2l-1-5v-11z" fill="#F2F3F9"/>
<path transform="translate(856,1351)" d="m0 0h3l1 19 2 7 3 3 9-1 2-1 1-3 1-24h4v31l-10 2h-10l-6-7z" fill="#2B2832"/>
<path transform="translate(743,1215)" d="m0 0 5 1 6 7 2 4v16h-18v-1l7-1 1-2h-2v-2l-2-2 3-1-2-9 1-1-2-7z" fill="#474A54"/>
<path transform="translate(1021,1350)" d="m0 0h7l6 3 2 3v6l-4-5-5-3-7 1-1 2v6l15 4 5 4-1 8-5 4-4 1h-9l-6-5-1-5 9 6h7l5-3v-5l-8-3-7-2-5-3v-7l5-6z" fill="#2F2D39"/>
<path transform="translate(556,1351)" d="m0 0 5 1v2l6-3h10l5 5 1 4v23h-4l-1-22-1-6h-10l-6 1v28h-4z" fill="#32313C"/>
<path transform="translate(202,1426)" d="m0 0 9 1 5 3 1 7-4-3v-2l-5-2h-6l-4 4 1 5 15 4 5 5-1 7-4 4-3 1h-11l-6-5-1-6h2l5 6 2 1h9l4-4-1-4-7-3-8-2-5-4v-6l5-6z" fill="#2C2933"/>
<path transform="translate(313,1350)" d="m0 0 10 1 5 5 1 7-8-8-7-1-5 5 2 4 17 5 3 3-1 7-5 5-3 1h-10l-7-6 1-4 7 6h9l4-4v-4l-8-3-8-2-3-2v-2h-2v-5l6-7z" fill="#302F3A"/>
<path transform="translate(347,1350)" d="m0 0 9 1 5 4 2 3v3l-4-2-6-5-7 1-2 1v8l12 2 8 4v8l-5 5-3 1h-10l-5-3-3-6 1-3 4 5 4 3h8l4-2 1-5-8-4-10-3-2-3v-7l5-5z" fill="#2F2D38"/>
<path transform="translate(785,1351)" d="m0 0 4 1 7 21 2 5 4-10 6-16 4-1-3 11-5 14-5 12-3 7h-4l3-9-1-8-7-18z" fill="#343341"/>
<path transform="translate(386,1351)" d="m0 0 4 1 4 9 6 16 4-9 6-16 3-1-1 7-11 29-3 7-4 1 2-6v-11l-7-18z" fill="#31313D"/>
<path transform="translate(639,1350)" d="m0 0h6l7 4 3 5-1 4-6-7-2-1h-9l-3 3-2 4v10l2 5 3 3h9l5-5 3-4h2l-1 5-6 7-3 1h-10l-6-5-2-5v-14l6-8z" fill="#2D2C36"/>
<path transform="translate(1050,1342)" d="m0 0h4v7l-1 2h9l1 2-1 2h-6l-2-1 1 22 1 3 7 2v2h-10l-3-4-1-9v-15h-4v-4l5-1z" fill="#2A2833"/>
<path transform="translate(712,1367)" d="m0 0h9l5 3v7l-4 4-2 1h-7l-5-3-2-4 1-5z" fill="#F1F2F9"/>
<path transform="translate(965,1351)" d="m0 0 4 1 7 11 5-5 5-7h3l-1 4-8 10 1 5 9 12v1h-5l-7-10v-2h-3l-2 5-5 7h-4l2-5 7-9-1-5-7-11z" fill="#2D2B33"/>
<path transform="translate(668,1341)" d="m0 0 3 1v9h9v4h-9l1 20 2 4 6 2v3l-9-1-4-7v-21h-6v-3l7-1-1-9z" fill="#333240"/>
<path transform="translate(88,1443)" d="m0 0h8l7 3v9l-6 3h-7l-5-3-1-9z" fill="#F1F2F9"/>
<path transform="translate(637,1242)" d="m0 0h10l5 3v8l-5 3h-11l-4-5v-5z" fill="#F6F6FA"/>
<path transform="translate(165,1367)" d="m0 0h8l7 1 1 7-4 5-3 1h-10l-4-6 2-5z" fill="#F3F4FA"/>
<path transform="translate(144,1368)" d="m0 0 5 1-1 4-5 6-5 2h-7l-5-4-1-8z" fill="#F0F2F8"/>
<path transform="translate(125,1215)" d="m0 0 2 1 1 8 1 18 1 9-3-1-3-3-2-4-2-2v-22l3-3z" fill="#51545C"/>
<path transform="translate(252,1196)" d="m0 0h8l8 4 4 8v12l-2 2-3-7-6-10-1-1h-9v-2h-3l1-5z" fill="#2C2A34"/>
<path transform="translate(280,1353)" d="m0 0h6l5 3 2 3v7h-21l1-5 4-6z" fill="#F0F1F9"/>
<path transform="translate(741,1337)" d="m0 0h4l1 17v30h-5z" fill="#505771"/>
<path transform="translate(272,1368)" d="m0 0h22v7l-6 5-2 1h-7l-5-4z" fill="#F4F5F9"/>
<path transform="translate(596,1368)" d="m0 0h21v6l-2 4-5 3h-8l-6-6z" fill="#F2F3F9"/>
<path transform="translate(604,1353)" d="m0 0 7 1 5 5v7h-20v-6l5-6z" fill="#F2F3F9"/>
<path transform="translate(787,813)" d="m0 0h2l-1 7-6 11-4 6-12 16h-2l-2 4-7 8-2-1 2-5 3-1-1-3h2l2-4 8-9 7-10 10-17z" fill="#DDDAE9"/>
<path transform="translate(933,1368)" d="m0 0 15 1 1-1h5l-1 9-5 3-2 1h-7l-5-4z" fill="#F3F4F9"/>
<path transform="translate(133,1353)" d="m0 0 7 1 5 5 1 6-1 1h-19l-1-4 3-6z" fill="#F1F2F9"/>
<path transform="translate(941,1353)" d="m0 0 7 1 5 5 1 6-1 1h-19v-7z" fill="#F0F2F9"/>
<path transform="translate(730,1222)" d="m0 0h9l5 5 1 7h-21v-6l5-5z" fill="#F3F3F9"/>
<path transform="translate(490,1222)" d="m0 0h9l5 5 1 7h-21v-5l3-5z" fill="#F2F3F9"/>
<path transform="translate(374,1337)" d="m0 0h4v47h-4z" fill="#474952"/>
<path transform="translate(255,1337)" d="m0 0h4v47h-4z" fill="#35343D"/>
<path transform="translate(1230,672)" d="m0 0h21l16 4 13 5v1h-6l-9-2-3-2-5-2-15 1-23-1-2-2z" fill="#EEEAF2"/>
<path transform="translate(726,1213)" d="m0 0h14v2h-5l-2 1 1 4-6 1-5 3-3 4-3 1-1 5h-2l-1-2v-7l4-6 6-5z" fill="#484B55"/>
<path transform="translate(758,1337)" d="m0 0h3v46h-4v-45z" fill="#434550"/>
<path transform="translate(513,1248)" d="m0 0h3l-1 6-6 7-6 1-11-1-1-2 10-5 4-5z" fill="#484B54"/>
<path transform="translate(893,1352)" d="m0 0h4v4l5-4h7v3l-9 3-2 5v20h-5z" fill="#3E3F4C"/>
<path transform="translate(382,550)" d="m0 0 1 4-1 6 10-1 9-1-4 3-17 5-2-1-8 3-4-1 1-4 6-1 3 2v-2l-3-3 6-8z" fill="#EEEAF2"/>
<path transform="translate(600,1351)" d="m0 0 3 1 1 2-5 3-4 1v11l4 9 3 2h8l5-3h2l1-2-1 5-4 3-3 1h-9l-6-5-3-7v-11l4-7z" fill="#2B2831"/>
<path transform="translate(504,1215)" d="m0 0 5 2 5 6 2 4v9h-2l-1 4-2-3-4 1-1-3 3-4-1-3-5-1 1-2 1-1 1-3-2-1 1-1-2-2z" fill="#484A54"/>
<path transform="translate(163,1365)" d="m0 0h14l3 3h-15l-4 5 2 6 1 1h10l6-3 1 1v5l-1-2-7 3h-9l-5-3-2-5v-6z" fill="#363744"/>
<path transform="translate(807,713)" d="m0 0h2l4 16v24l-2 4-2-2-1-23z" fill="#FAFAFC"/>
<path transform="translate(148,1199)" d="m0 0 5 1 5 5v2l3 1-1 7-1 1-1 25h-1l-1-24-3-7-5-3-5-1 2-3 1-3z" fill="#51545D"/>
<path transform="translate(86,1441)" d="m0 0h14l4 1-1 4-7-2h-8l-3 2 1 9 4 2h11l3 2-7 1h-10l-6-5-1-2v-7z" fill="#31303C"/>
<path transform="translate(747,865)" d="m0 0 4 1-1 3-4 1v2l-9 6h-2l-1 3-8 3-4 3-4 2h-4l-1 2-1-3 16-9 15-11z" fill="#DDDBE9"/>
<path transform="translate(230,1351)" d="m0 0h7l6 5 1 4v23h-4l-1-23-2-4-3-2-5-1z" fill="#2D2C36"/>
<path transform="translate(878,1351)" d="m0 0h4v31h-9l1-3 2-1 1-3z" fill="#34333D"/>
<path transform="translate(228,1249)" d="m0 0 1 3-3 5-7 6-9 2-3-1v-3h-2v-2l9-2 5-3 4-2z" fill="#494B57"/>
<path transform="translate(935,1354)" d="m0 0 3 1-3 4-1 7h19l1 2-9 2-12-2 1 7-4 1-1-4v-10h2l2-6z" fill="#4A4F65"/>
<path transform="translate(195,1351)" d="m0 0 4 1 1 8v23l-5 1z" fill="#302E39"/>
<path transform="translate(1427,268)" d="m0 0 10 1-2 2-8 3v2l-18 4-3-1 5-3 1-2 5-3 1-1z" fill="#EEEAF2"/>
<path transform="translate(93,1222)" d="m0 0h1l1 20 1 7 3 5v3l1 3 5 2v1h-13z" fill="#464852"/>
<path transform="translate(709,1365)" d="m0 0 3 1v2l-4 2-1 5 3 5 3 1h7l6-3 2-3-1 5 2 1 1-2v3l-8 2h-13l-6-5v-10z" fill="#31303B"/>
<path transform="translate(1087,1352)" d="m0 0h4l1 7-1 24h-4z" fill="#32313C"/>
<path transform="translate(1131,1351)" d="m0 0h11l5 1v3l-4 1-2-1h-7l-5 3-1 2-1 10-2-2-2 4v-11l4-8z" fill="#34343F"/>
<path transform="translate(122,1366)" d="m0 0h3l1 8 3 5 2 1h7l6-3 4-4-1 6-6 5h-11l-5-3-3-5z" fill="#2E2C35"/>
<path transform="translate(801,1194)" d="m0 0h12l-1 13-1-2-3 1-2-2-2-1-2 4h-1z" fill="#474952"/>
<path transform="translate(998,1351)" d="m0 0 5 1v32l-4-1z" fill="#2E2C38"/>
<path transform="translate(118,1446)" d="m0 0 3 3 2-1 2 5 3 2-1 3-5-2 1 15h-5z" fill="#35353F"/>
<path transform="translate(753,1248)" d="m0 0h3l-1 6-6 7-9 1-9-1v-2l11-1v-2l8-2 2-4z" fill="#4B4F5D"/>
<path transform="translate(352,1197)" d="m0 0h1v52h2l1 11 8 1 1 2h-13z" fill="#5D6A9A"/>
<path transform="translate(118,1219)" d="m0 0h1v22l3-1 2 6 4 4v5l1 4-4-1-5-8-2-8z" fill="#515874"/>
<path transform="translate(269,1360)" d="m0 0 4 2-1 4h21l1 2-4 1h-17v5l-2 1v-3h-2l-1-9z" fill="#4B4F60"/>
<path transform="translate(649,1254)" d="m0 0 5 1v2h-2l-2 4-3 2-10-1-2-1 1-5 11-1z" fill="#4B4F5E"/>
<path transform="translate(940,1350)" d="m0 0 9 1 6 5 1 2v12l-3-3-1-8-4-4-7-1-7 2-3 6-1-3 4-6z" fill="#2D2B35"/>
<path transform="translate(183,1241)" d="m0 0h2l1 5 1 3v3h2l1 2 3 2 1-1 1 4-2 2-4-1-4-4v-2h-2l-2-6v-6z" fill="#474A56"/>
<path transform="translate(1231,668)" d="m0 0h22l6 2v2l-10-1-21 1-7 1-2-2 5-2z" fill="#EEEAF2"/>
<path transform="translate(269,1372)" d="m0 0h2l6 7 2 1h7l9-6-1 5-4 4-3 1h-10l-5-4-3-6z" fill="#2F2E38"/>
<path transform="translate(785,1351)" d="m0 0 4 1 7 21 1 8-3-3-7-18z" fill="#2F2E3A"/>
<path transform="translate(1072,1351)" d="m0 0h3v32h-3z" fill="#26222A"/>
<path transform="translate(968,197)" d="m0 0 21 7 6 3-4 2-20-6-5-2v-2h2z" fill="#EEEAF2"/>
<path transform="translate(1021,1350)" d="m0 0h7l6 3 2 3v6l-4-5-5-3-7 1-2 7h-2l-2-5 5-6z" fill="#3D3F52"/>
<path transform="translate(411,1351)" d="m0 0h2l-1 7-8 21h-5l1-2 4-9 6-16z" fill="#353544"/>
<path transform="translate(374,1338)" d="m0 0h3v8h-2l1 7h1v9h-1v12l1 1 1 9h-4z" fill="#242028"/>
<path transform="translate(800,1194)" d="m0 0h1v29l-2 1-2-1-1 3-3-3v-6h-3v-2h6l4 2z" fill="#535867"/>
<path transform="translate(202,1426)" d="m0 0 9 1 5 3 1 7-4-3v-2l-5-2h-6l-4 4-2 3-2-4 5-6z" fill="#32313F"/>
<path transform="translate(740,1213)" d="m0 0 4 2-1 3 1 6 2 1-4 1-3-3-6-2v-5l-1-2 8 1z" fill="#51545C"/>
<path transform="translate(353,1197)" d="m0 0h13l-1 3h-6l-4 1v46l-2 2z" fill="#484A53"/>
<path transform="translate(80,1370)" d="m0 0 4 1 3 6 4 3 9 1 2 1 1 2-10 1-8-4-5-8z" fill="#33323F"/>
<path transform="translate(161,1253)" d="m0 0 4 1-1 4-5 4-5 2-3-1-2-2-4-2h6l5-2 1-2z" fill="#494D5A"/>
<path transform="translate(485,826)" d="m0 0 6 3v-2l3 1 2 13 2 6-5-5-8-13z" fill="#DADDE9"/>
<path transform="translate(712,1365)" d="m0 0h11l6 2 1 3v9l-1 2-3-1v-1l-1-2v-7l-4-2-10-1z" fill="#2D2B34"/>
<path transform="translate(513,1248)" d="m0 0h3l-1 6-2 2-4 1-1-2h-3l-1 2-3-3 4-5z" fill="#565E74"/>
<path transform="translate(125,1357)" d="m0 0 1 4v4l18 1v1l-7 1v1l-13 1-1-3-1 7h-1v-13l2-3z" fill="#505567"/>
<path transform="translate(518,1352)" d="m0 0 6 1-1 3h-2v22h-1l-1 5h-1z" fill="#535E82"/>
<path transform="translate(1125,1364)" d="m0 0h1l2 7 3 6 8 2-2 3h-6l-5-4-2-4z" fill="#2D2B35"/>
<path transform="translate(559,1361)" d="m0 0h1l1 23h-4v-22z" fill="#292732"/>
<path transform="translate(821,1372)" d="m0 0 4 5 3 3 7 1 1 3h-10l-6-5-1-6z" fill="#302E38"/>
<path transform="translate(82,1204)" d="m0 0h2v2l2 1 5 2-5 4-7 1-1-1v-6h2z" fill="#4C5062"/>
<path transform="translate(812,1251)" d="m0 0h1v12l-1 1h-10l1-4 4-5 2-1 1 5 1 1z" fill="#474954"/>
<path transform="translate(639,1350)" d="m0 0h6l7 4 3 5-1 4-6-7-10-2z" fill="#333343"/>
<path transform="translate(595,1358)" d="m0 0h2l-1 8h18l-1 3h-15l-2-1-1 2-1-5z" fill="#545B74"/>
<path transform="translate(193,1449)" d="m0 0h2l5 6 10 2 1 3h-11l-6-5z" fill="#353540"/>
<path transform="translate(559,1225)" d="m0 0 4 3 1 8v4h-2v3h-2l-1-12-2-5z" fill="#484B53"/>
<path transform="translate(744,1362)" d="m0 0h1v22l-3-1v-20z" fill="#3D3D45"/>
<path transform="translate(339,1372)" d="m0 0 4 5 4 3 7 1 2 3h-10l-5-3-3-6z" fill="#373745"/>
<path transform="translate(617,1375)" d="m0 0 1 3-5 5-3 1h-9v-4h9l5-3h2z" fill="#2E2C35"/>
<path transform="translate(1048,1350)" d="m0 0 2 1h2v20l-3-1v-15h-4v-4z" fill="#4D536C"/>
<path transform="translate(631,1221)" d="m0 0 1 2 4-1 2 2-6 4h-6l-2-1v-4h5z" fill="#4B5061"/>
<path transform="translate(788,1216)" d="m0 0 5 1 1 7-10-1v-2l-1-2h2l1-2z" fill="#4A4D59"/>
<path transform="translate(1013,1374)" d="m0 0 9 6 6 1 1 3h-9l-6-5z" fill="#33333D"/>
<path transform="translate(305,1374)" d="m0 0 8 6 9 1-2 3h-8l-7-6z" fill="#2D2C38"/>
<path transform="translate(1053,1351)" d="m0 0h9l1 2-1 2h-6l-2-1v20h-1z" fill="#494E65"/>
<path transform="translate(932,1375)" d="m0 0h2l5 5 7 1-1 3h-7l-5-3-2-5z" fill="#2F2D37"/>
<path transform="translate(413,1237)" d="m0 0h1l2 24 7 1v-6h1v7h-11z" fill="#44454E"/>
<path transform="translate(521,1361)" d="m0 0h1l1 22h-4v-21z" fill="#28252D"/>
<path transform="translate(347,1350)" d="m0 0 9 1 5 4 2 3v3l-4-2-6-5-6-3z" fill="#36353F"/>
<path transform="translate(1050,1374)" d="m0 0 5 2 1 3 7 2v2h-10l-3-4z" fill="#333340"/>
<path transform="translate(1110,1367)" d="m0 0 3 1 2 15h-5z" fill="#252129"/>
<path transform="translate(654,1371)" d="m0 0h2l-1 5-6 7-5 1 2-4 5-5z" fill="#2F2E39"/>
<path transform="translate(712,1235)" d="m0 0h1l4 18-1 2h-2l-2-5z" fill="#484A53"/>
<path transform="translate(485,1217)" d="m0 0 1 2-7 6h-2l-2 6-1 2-1-1v-7l5-5 4-1z" fill="#494C58"/>
<path transform="translate(796,1256)" d="m0 0 3 1v3h-2v2l-7 1v-2h-5l3-2z" fill="#484A55"/>
<path transform="translate(556,1351)" d="m0 0 5 1v11l-4-1z" fill="#353646"/>
<path transform="translate(316,1351)" d="m0 0h7l5 5 1 7-8-8z" fill="#343546"/>
<path transform="translate(928,279)" d="m0 0h7l17 5 2 2-7-1-13-3-6-2z" fill="#EEEAF2"/>
<path transform="translate(119,1436)" d="m0 0 3 1v13l-3 2-1-11z" fill="#252129"/>
<path transform="translate(1024,1351)" d="m0 0h7l5 5v6l-4-5-5-3z" fill="#2F2D37"/>
<path transform="translate(154,1209)" d="m0 0 4 1-1 4 3-1-1 3-1 25h-1l-1-24z" fill="#484A53"/>
<path transform="translate(527,1267)" d="m0 0h7l-1 3h-3l3 2 1 4 2 2-4-1-2-4h-2z" fill="#4A4E5A"/>
<path transform="translate(1068,491)" d="m0 0 2 3-4 9-4 3 2-8z" fill="#EEEAF2"/>
<path transform="translate(579,1368)" d="m0 0 3 1 1 14h-4z" fill="#242028"/>
<path transform="translate(211,1201)" d="m0 0 5 1v2l2 1-2 5-5-3v-2l-2-1h3z" fill="#51545E"/>
<path transform="translate(218,1367)" d="m0 0 3 1 1 15h-5z" fill="#27242C"/>
<path transform="translate(147,1373)" d="m0 0 1 4-5 6h-6l1-3 6-3z" fill="#302F39"/>
<path transform="translate(671,1351)" d="m0 0h9v4h-9l-2-3z" fill="#3F455C"/>
<path transform="translate(294,1374)" d="m0 0 1 4-5 5-5 1 1-4 6-4z" fill="#2E2B33"/>
<path transform="translate(600,1351)" d="m0 0 3 1 1 2-5 3-4 1-1 3-1-3 5-6z" fill="#302E36"/>
<path transform="translate(727,1375)" d="m0 0 1 4-1 1 2 1 1-2v3l-8 2h-5l3-3 6-3z" fill="#444859"/>
<path transform="translate(902,1352)" d="m0 0h7v3l-10 3v-3z" fill="#393B4B"/>
<path transform="translate(681,1200)" d="m0 0h10l1 3h-5l-4 2-2-1z" fill="#505876"/>
<path transform="translate(92,1441)" d="m0 0h8l4 1-1 4-12-3z" fill="#383A4D"/>
<path transform="translate(525,1352)" d="m0 0 5 2-2 2-4 2-1 7-2-4v-5z" fill="#38373F"/>
<path transform="translate(534,1267)" d="m0 0 7 2-2 4-9-2-1-2h4z" fill="#4D5261"/>
<path transform="translate(441,1200)" d="m0 0h10l1 3-5-1v2l-4-1-1 2z" fill="#505877"/>
<path transform="translate(37,1620)" d="m0 0h7l1 5h-6v-2l-4-1z" fill="#EEEAF2"/>
<path transform="translate(269,1362)" d="m0 0h1v5h2l1 7-2 1v-3h-2l-1-9z" fill="#434655"/>
<path transform="translate(166,1365)" d="m0 0h11l3 3-15-1z" fill="#31313D"/>
<path transform="translate(894,1366)" d="m0 0h1l1 11 2 3v3h-4z" fill="#28252D"/>
<path transform="translate(374,1374)" d="m0 0 3 1 1 9h-4z" fill="#2A2832"/>
<path transform="translate(935,1367)" d="m0 0h15l-2 3-12-1z" fill="#424558"/>
<path transform="translate(617,576)" d="m0 0h8l-2 2-4 1h-11l3-2z" fill="#F1EEF4"/>
<path transform="translate(282,292)" d="m0 0h5v2l-11 3-4-1z" fill="#5E7DCF"/>
<path transform="translate(21,1621)" d="m0 0h6l1 2-3 2-4 1-5-1 3-2h2z" fill="#EEEAF2"/>
<path transform="translate(269,1372)" d="m0 0h2l6 8-3 2-5-8z" fill="#2E2C34"/>
<path transform="translate(227,1351)" d="m0 0 3 1 4 2-8 2-2 2-4-1z" fill="#383840"/>
<path transform="translate(878,1352)" d="m0 0h3v11l-3 1z" fill="#242028"/>
<path transform="translate(374,1337)" d="m0 0h4v14l-3 1v-6h2v-8z" fill="#454856"/>
<path transform="translate(118,1427)" d="m0 0 4 1v4h-3v9h-1z" fill="#3E3F4A"/>
<path transform="translate(681,1238)" d="m0 0h1l1 17 2 5-3-1-1-2z" fill="#484A53"/>
<path transform="translate(773,1216)" d="m0 0 3 1-1 4-2-1v3h-5l2-4z" fill="#4A4D59"/>
<path transform="translate(757,856)" d="m0 0 1 2-3 2-2 6-5-1 6-7z" fill="#DBDCE9"/>
<path transform="translate(723,1214)" d="m0 0 2 1-1 3-4 3h-2l-3 2 2-4z" fill="#535869"/>
<path transform="translate(263,356)" d="m0 0 6 2 4 2v2l-4 1-5-4z" fill="#AEBBE5"/>
<path transform="translate(167,1427)" d="m0 0 3 1 2 2-7 2-4 1v-2z" fill="#34323B"/>
</svg>
