<svg width="71" height="44" viewBox="0 0 71 44" fill="none" xmlns="http://www.w3.org/2000/svg">
<g clip-path="url(#clip0_3_712)">
<path d="M3.039 4.27676L6.943 17.8398C7.128 18.6768 7.863 19.3558 8.774 19.4818L8.944 19.4978C9.33393 19.5211 9.72305 19.4403 10.0714 19.2635C10.4197 19.0867 10.7147 18.8203 10.926 18.4918L10.971 18.4138L12.371 16.3418L16.421 20.3918C16.613 20.5838 16.8409 20.7362 17.0917 20.8401C17.3426 20.9441 17.6115 20.9976 17.883 20.9976C18.1545 20.9976 18.4234 20.9441 18.6743 20.8401C18.9251 20.7362 19.153 20.5838 19.345 20.3918L20.392 19.3448C20.78 18.9568 20.998 18.4318 20.998 17.8838L20.99 17.7018C20.9472 17.2181 20.7355 16.7649 20.392 16.4218L16.345 12.3738L18.448 10.9618C19.174 10.5768 19.628 9.68376 19.501 8.77276C19.4393 8.3285 19.2434 7.9137 18.9394 7.58395C18.6353 7.25419 18.2378 7.02523 17.8 6.92776L4.276 3.03776C4.10415 2.98849 3.92224 2.98618 3.7492 3.03108C3.57616 3.07598 3.41832 3.16645 3.29212 3.29306C3.16591 3.41967 3.07596 3.5778 3.03162 3.75099C2.98727 3.92417 2.99017 4.10608 3.04 4.27776L3.039 4.27676Z" fill="#E6E6E6"/>
</g>
<path d="M70.9995 32.5002C70.9996 26.1488 65.8509 21 59.4995 21H22.6768C21.5722 21 20.6768 21.8954 20.6768 23V25C20.6768 35.4934 29.1834 44 39.6768 44H59.4995C65.8507 44 70.9994 38.8514 70.9995 32.5002Z" fill="#BDB1EA"/>
<path d="M36.9237 36V27.6H38.6037V34.608H42.4677V36H36.9237ZM43.8006 36V29.76H45.4326V36H43.8006ZM43.6686 28.128C43.6686 27.588 44.0646 27.18 44.6166 27.18C45.1686 27.18 45.5646 27.588 45.5646 28.128C45.5646 28.668 45.1686 29.076 44.6166 29.076C44.0646 29.076 43.6686 28.668 43.6686 28.128ZM46.817 36V34.824L49.901 31.02H46.961V29.76H51.785V30.936L48.701 34.74H51.857V36H46.817ZM55.1928 36.144C53.7888 36.144 52.8288 35.412 52.8288 34.2C52.8288 32.844 53.8488 32.22 55.3488 32.22C56.0928 32.22 56.6448 32.508 56.9328 32.748V31.896C56.9328 31.32 56.5248 30.888 55.8528 30.888C55.2888 30.888 54.9408 31.14 54.7728 31.476H53.2608C53.6208 30.264 54.5928 29.616 55.9368 29.616C57.4968 29.616 58.5648 30.564 58.5648 32.016V36H56.9928V35.424C56.7048 35.844 55.9128 36.144 55.1928 36.144ZM55.6128 35.064C56.3328 35.064 56.9328 34.668 56.9328 34.14C56.9328 33.588 56.3928 33.264 55.6608 33.264C54.8928 33.264 54.4128 33.576 54.4128 34.152C54.4128 34.728 54.9288 35.064 55.6128 35.064Z" fill="#2A2C3A"/>
<defs>
<clipPath id="clip0_3_712">
<rect width="24" height="24" fill="white"/>
</clipPath>
</defs>
</svg>
