<svg width="199" height="62" viewBox="0 0 199 62" fill="none" xmlns="http://www.w3.org/2000/svg">
<path d="M198.5 28.4544C198.5 17.6849 189.769 8.95455 179 8.95455H11.9016C10.5555 8.95455 9.25304 8.47773 8.22514 7.60869L1.43076 1.86438C1.06313 1.55357 0.5 1.81488 0.5 2.2963V42C0.5 52.7696 9.23044 61.5 20 61.5H179C189.769 61.5 198.5 52.7695 198.5 41.9999L198.5 28.4544Z" fill="#F1F5FE" stroke="url(#paint0_linear_3_770)"/>
<path d="M25.54 43V29H28.34V34.74H34.08V29H36.88V43H34.08V37.22H28.34V43H25.54ZM44.1941 43.24C41.0741 43.24 39.2941 41.2 39.2941 38.54V37.06C39.2941 34.4 41.0741 32.36 44.1941 32.36C47.3141 32.36 49.0941 34.4 49.0941 37.06V38.54C49.0941 41.2 47.3141 43.24 44.1941 43.24ZM46.4541 38.72V36.88C46.4541 35.52 45.7341 34.5 44.1941 34.5C42.6541 34.5 41.9341 35.52 41.9341 36.88V38.72C41.9341 40.08 42.6541 41.1 44.1941 41.1C45.7341 41.1 46.4541 40.08 46.4541 38.72ZM51.3766 43V28.4H54.0966V43H51.3766ZM60.3439 43.24C58.0039 43.24 56.4039 42.02 56.4039 40C56.4039 37.74 58.1039 36.7 60.6039 36.7C61.8439 36.7 62.7639 37.18 63.2439 37.58V36.16C63.2439 35.2 62.5639 34.48 61.4439 34.48C60.5039 34.48 59.9239 34.9 59.6439 35.46H57.1239C57.7239 33.44 59.3439 32.36 61.5839 32.36C64.1839 32.36 65.9639 33.94 65.9639 36.36V43H63.3439V42.04C62.8639 42.74 61.5439 43.24 60.3439 43.24ZM61.0439 41.44C62.2439 41.44 63.2439 40.78 63.2439 39.9C63.2439 38.98 62.3439 38.44 61.1239 38.44C59.8439 38.44 59.0439 38.96 59.0439 39.92C59.0439 40.88 59.9039 41.44 61.0439 41.44ZM69.4031 38.96L68.7431 34.54V29H71.5831V34.54L70.9231 38.96H69.4031ZM68.6031 41.6C68.6031 40.68 69.2231 40.04 70.1631 40.04C71.1031 40.04 71.7231 40.68 71.7231 41.6C71.7231 42.52 71.1031 43.16 70.1631 43.16C69.2231 43.16 68.6031 42.52 68.6031 41.6Z" fill="#75777C"/>
<defs>
<linearGradient id="paint0_linear_3_770" x1="199" y1="31" x2="0" y2="31" gradientUnits="userSpaceOnUse">
<stop stop-color="#C5D8EF" stop-opacity="0.61"/>
<stop offset="0.31" stop-color="#A6B6CA" stop-opacity="0.39"/>
<stop offset="0.715" stop-color="#EBF3F9"/>
<stop offset="0.985" stop-color="#D6DBDF" stop-opacity="0.8"/>
</linearGradient>
</defs>
</svg>
