<svg width="206" height="84" viewBox="0 0 206 84" fill="none" xmlns="http://www.w3.org/2000/svg">
<path d="M0.500296 31.4544C0.500356 20.6849 9.23079 11.9545 20.0003 11.9545H193.394C194.971 11.9545 196.473 11.2871 197.53 10.1175L204.285 2.64343C204.713 2.16968 205.5 2.47254 205.5 3.11111V64C205.5 74.7696 196.77 83.5 186 83.5H20.0001C9.23052 83.5 0.500052 74.7695 0.500113 63.9999L0.500296 31.4544Z" fill="#F1F5FE" stroke="url(#paint0_linear_3_767)"/>
<path d="M16.078 44V34.2H18.038V38.218H22.056V34.2H24.016V44H22.056V39.954H18.038V44H16.078ZM29.1358 44.168C26.9518 44.168 25.7058 42.74 25.7058 40.878V39.842C25.7058 37.98 26.9518 36.552 29.1358 36.552C31.3198 36.552 32.5658 37.98 32.5658 39.842V40.878C32.5658 42.74 31.3198 44.168 29.1358 44.168ZM30.7178 41.004V39.716C30.7178 38.764 30.2138 38.05 29.1358 38.05C28.0578 38.05 27.5538 38.764 27.5538 39.716V41.004C27.5538 41.956 28.0578 42.67 29.1358 42.67C30.2138 42.67 30.7178 41.956 30.7178 41.004ZM34.1636 44V33.78H36.0676V44H34.1636ZM40.4407 44.168C38.8027 44.168 37.6827 43.314 37.6827 41.9C37.6827 40.318 38.8727 39.59 40.6227 39.59C41.4907 39.59 42.1347 39.926 42.4707 40.206V39.212C42.4707 38.54 41.9947 38.036 41.2107 38.036C40.5527 38.036 40.1467 38.33 39.9507 38.722H38.1867C38.6067 37.308 39.7407 36.552 41.3087 36.552C43.1287 36.552 44.3747 37.658 44.3747 39.352V44H42.5407V43.328C42.2047 43.818 41.2807 44.168 40.4407 44.168ZM40.9307 42.908C41.7707 42.908 42.4707 42.446 42.4707 41.83C42.4707 41.186 41.8407 40.808 40.9867 40.808C40.0907 40.808 39.5307 41.172 39.5307 41.844C39.5307 42.516 40.1327 42.908 40.9307 42.908ZM53.2115 44.196C50.9015 44.196 49.3755 43.076 49.3755 41.158V40.906H51.2515V41.116C51.2515 42.026 51.9655 42.684 53.2815 42.684C54.4435 42.684 55.1995 42.166 55.1995 41.256C55.1995 40.71 54.9335 40.318 54.2755 40.15L51.7135 39.492C50.2295 39.114 49.5295 38.428 49.5295 36.958C49.5295 35.11 50.9295 34.004 53.1275 34.004C55.2975 34.004 56.6695 35.208 56.6695 36.93V37.168H54.8635V36.972C54.8635 36.146 54.3315 35.516 53.1275 35.516C52.0915 35.516 51.4195 35.936 51.4195 36.79C51.4195 37.364 51.7135 37.686 52.2595 37.826L54.9475 38.54C56.3895 38.918 57.0895 39.772 57.0895 41.102C57.0895 42.964 55.4235 44.196 53.2115 44.196ZM61.8116 44.168C59.6276 44.168 58.3816 42.74 58.3816 40.878V39.842C58.3816 37.98 59.6276 36.552 61.8116 36.552C63.9956 36.552 65.2416 37.98 65.2416 39.842V40.878C65.2416 42.74 63.9956 44.168 61.8116 44.168ZM63.3936 41.004V39.716C63.3936 38.764 62.8896 38.05 61.8116 38.05C60.7336 38.05 60.2296 38.764 60.2296 39.716V41.004C60.2296 41.956 60.7336 42.67 61.8116 42.67C62.8896 42.67 63.3936 41.956 63.3936 41.004ZM73.2094 36.72V44H71.3894V43.132C71.0534 43.748 70.2134 44.168 69.2754 44.168C67.6374 44.168 66.7274 43.034 66.7274 41.382V36.72H68.6314V41.116C68.6314 42.04 69.0654 42.572 69.9194 42.572C70.8014 42.572 71.3054 42.012 71.3054 41.102V36.72H73.2094ZM75.1245 44V33.78H77.0285V44H75.1245ZM81.4017 44.168C79.7637 44.168 78.6437 43.314 78.6437 41.9C78.6437 40.318 79.8337 39.59 81.5837 39.59C82.4517 39.59 83.0957 39.926 83.4317 40.206V39.212C83.4317 38.54 82.9557 38.036 82.1717 38.036C81.5137 38.036 81.1077 38.33 80.9117 38.722H79.1477C79.5677 37.308 80.7017 36.552 82.2697 36.552C84.0897 36.552 85.3357 37.658 85.3357 39.352V44H83.5017V43.328C83.1657 43.818 82.2417 44.168 81.4017 44.168ZM81.8917 42.908C82.7317 42.908 83.4317 42.446 83.4317 41.83C83.4317 41.186 82.8017 40.808 81.9477 40.808C81.0517 40.808 80.4917 41.172 80.4917 41.844C80.4917 42.516 81.0937 42.908 81.8917 42.908ZM87.5338 44V38.26H86.6098V36.72H87.5338V36.048C87.5338 34.452 88.2898 33.78 89.7878 33.78H91.0478V35.292H90.2218C89.6758 35.292 89.4378 35.46 89.4378 36.034V36.72H90.9078V38.26H89.4378V44H87.5338ZM92.8017 41.172L92.3397 38.078V34.2H94.3277V38.078L93.8657 41.172H92.8017ZM92.2417 43.02C92.2417 42.376 92.6757 41.928 93.3337 41.928C93.9917 41.928 94.4257 42.376 94.4257 43.02C94.4257 43.664 93.9917 44.112 93.3337 44.112C92.6757 44.112 92.2417 43.664 92.2417 43.02ZM16.078 61V51.2H18.038V59.376H22.546V61H16.078ZM26.961 61.168C24.903 61.168 23.573 59.964 23.573 57.92V56.926C23.573 54.952 24.749 53.552 26.933 53.552C29.089 53.552 30.181 54.994 30.181 56.744V58.018H25.421V58.2C25.421 59.054 25.855 59.796 26.961 59.796C27.773 59.796 28.277 59.376 28.459 58.872H30.125C29.873 60.202 28.571 61.168 26.961 61.168ZM25.421 56.604V56.674H28.431V56.492C28.431 55.582 27.955 54.896 26.933 54.896C25.841 54.896 25.421 55.624 25.421 56.604ZM39.0683 53.552C41.0703 53.552 42.1343 55.036 42.1343 56.758V57.962C42.1343 59.712 41.0423 61.168 39.0823 61.168C38.1163 61.168 37.3743 60.776 36.9963 60.216V63.436H35.0923V53.72H36.9123V54.588C37.2763 54.028 38.0183 53.552 39.0683 53.552ZM38.6063 55.092C37.6403 55.092 36.9963 55.82 36.9963 56.842V57.906C36.9963 59.012 37.7243 59.628 38.5923 59.628C39.6703 59.628 40.2303 58.9 40.2303 57.878V56.842C40.2303 55.876 39.7123 55.092 38.6063 55.092ZM50.1039 53.72V61H48.2839V60.132C47.9479 60.748 47.1079 61.168 46.1699 61.168C44.5319 61.168 43.6219 60.034 43.6219 58.382V53.72H45.5259V58.116C45.5259 59.04 45.9599 59.572 46.8139 59.572C47.6959 59.572 48.1999 59.012 48.1999 58.102V53.72H50.1039ZM55.0431 61.168C52.9851 61.168 51.6551 59.964 51.6551 57.92V56.926C51.6551 54.952 52.8311 53.552 55.0151 53.552C57.1711 53.552 58.2631 54.994 58.2631 56.744V58.018H53.5031V58.2C53.5031 59.054 53.9371 59.796 55.0431 59.796C55.8551 59.796 56.3591 59.376 56.5411 58.872H58.2071C57.9551 60.202 56.6531 61.168 55.0431 61.168ZM53.5031 56.604V56.674H56.5131V56.492C56.5131 55.582 56.0371 54.896 55.0151 54.896C53.9231 54.896 53.5031 55.624 53.5031 56.604ZM62.555 61.168C60.595 61.168 59.489 59.684 59.489 57.962V56.758C59.489 55.008 60.581 53.552 62.541 53.552C63.507 53.552 64.221 53.958 64.627 54.504V50.78H66.531V61H64.711V60.132C64.347 60.692 63.605 61.168 62.555 61.168ZM63.017 59.628C63.983 59.628 64.627 58.9 64.627 57.878V56.814C64.627 55.708 63.899 55.092 63.031 55.092C61.953 55.092 61.393 55.82 61.393 56.842V57.878C61.393 58.844 61.911 59.628 63.017 59.628ZM71.5187 61.168C69.3347 61.168 68.0887 59.74 68.0887 57.878V56.842C68.0887 54.98 69.3347 53.552 71.5187 53.552C73.7027 53.552 74.9487 54.98 74.9487 56.842V57.878C74.9487 59.74 73.7027 61.168 71.5187 61.168ZM73.1007 58.004V56.716C73.1007 55.764 72.5967 55.05 71.5187 55.05C70.4407 55.05 69.9367 55.764 69.9367 56.716V58.004C69.9367 58.956 70.4407 59.67 71.5187 59.67C72.5967 59.67 73.1007 58.956 73.1007 58.004ZM82.3177 61.168C80.6797 61.168 79.5597 60.314 79.5597 58.9C79.5597 57.318 80.7497 56.59 82.4997 56.59C83.3677 56.59 84.0117 56.926 84.3477 57.206V56.212C84.3477 55.54 83.8717 55.036 83.0877 55.036C82.4297 55.036 82.0237 55.33 81.8277 55.722H80.0637C80.4837 54.308 81.6177 53.552 83.1857 53.552C85.0057 53.552 86.2517 54.658 86.2517 56.352V61H84.4177V60.328C84.0817 60.818 83.1577 61.168 82.3177 61.168ZM82.8077 59.908C83.6477 59.908 84.3477 59.446 84.3477 58.83C84.3477 58.186 83.7177 57.808 82.8637 57.808C81.9677 57.808 81.4077 58.172 81.4077 58.844C81.4077 59.516 82.0097 59.908 82.8077 59.908ZM90.7497 63.436H88.8737L89.6017 60.972L87.0817 53.72H88.9857L90.5537 58.942L92.0377 53.72H93.9277L90.7497 63.436ZM101.428 53.72V61H99.6081V60.132C99.2721 60.748 98.4321 61.168 97.4941 61.168C95.8561 61.168 94.9461 60.034 94.9461 58.382V53.72H96.8501V58.116C96.8501 59.04 97.2841 59.572 98.1381 59.572C99.0201 59.572 99.5241 59.012 99.5241 58.102V53.72H101.428ZM106.045 61.168C104.085 61.168 102.979 59.684 102.979 57.962V56.758C102.979 55.008 104.071 53.552 106.031 53.552C106.997 53.552 107.711 53.958 108.117 54.504V50.78H110.021V61H108.201V60.132C107.837 60.692 107.095 61.168 106.045 61.168ZM106.507 59.628C107.473 59.628 108.117 58.9 108.117 57.878V56.814C108.117 55.708 107.389 55.092 106.521 55.092C105.443 55.092 104.883 55.82 104.883 56.842V57.878C104.883 58.844 105.401 59.628 106.507 59.628ZM114.351 61.168C112.713 61.168 111.593 60.314 111.593 58.9C111.593 57.318 112.783 56.59 114.533 56.59C115.401 56.59 116.045 56.926 116.381 57.206V56.212C116.381 55.54 115.905 55.036 115.121 55.036C114.463 55.036 114.057 55.33 113.861 55.722H112.097C112.517 54.308 113.651 53.552 115.219 53.552C117.039 53.552 118.285 54.658 118.285 56.352V61H116.451V60.328C116.115 60.818 115.191 61.168 114.351 61.168ZM114.841 59.908C115.681 59.908 116.381 59.446 116.381 58.83C116.381 58.186 115.751 57.808 114.897 57.808C114.001 57.808 113.441 58.172 113.441 58.844C113.441 59.516 114.043 59.908 114.841 59.908ZM120.09 61V53.72H121.896V55.134C122.134 54.042 122.988 53.664 124.08 53.664H124.304V55.554H123.912C122.666 55.554 121.994 56.17 121.994 57.64V61H120.09ZM132.029 61.168C129.971 61.168 128.641 59.964 128.641 57.92V56.926C128.641 54.952 129.817 53.552 132.001 53.552C134.157 53.552 135.249 54.994 135.249 56.744V58.018H130.489V58.2C130.489 59.054 130.923 59.796 132.029 59.796C132.841 59.796 133.345 59.376 133.527 58.872H135.193C134.941 60.202 133.639 61.168 132.029 61.168ZM130.489 56.604V56.674H133.499V56.492C133.499 55.582 133.023 54.896 132.001 54.896C130.909 54.896 130.489 55.624 130.489 56.604ZM136.797 61V53.72H138.617V54.588C138.981 53.916 139.723 53.552 140.759 53.552C142.341 53.552 143.335 54.588 143.335 56.338V61H141.431V56.646C141.431 55.806 141.025 55.204 140.101 55.204C139.247 55.204 138.701 55.708 138.701 56.688V61H136.797ZM150.951 61.168C149.312 61.168 148.193 60.314 148.193 58.9C148.193 57.318 149.383 56.59 151.133 56.59C152.001 56.59 152.645 56.926 152.981 57.206V56.212C152.981 55.54 152.505 55.036 151.721 55.036C151.062 55.036 150.657 55.33 150.461 55.722H148.697C149.117 54.308 150.251 53.552 151.819 53.552C153.639 53.552 154.885 54.658 154.885 56.352V61H153.051V60.328C152.715 60.818 151.791 61.168 150.951 61.168ZM151.441 59.908C152.281 59.908 152.981 59.446 152.981 58.83C152.981 58.186 152.351 57.808 151.497 57.808C150.601 57.808 150.041 58.172 150.041 58.844C150.041 59.516 150.643 59.908 151.441 59.908ZM156.732 61V50.78H158.636V61H156.732ZM163.737 63.604C162.029 63.604 160.615 62.806 160.321 61.434H162.169C162.421 61.938 162.995 62.162 163.737 62.162C164.703 62.162 165.319 61.63 165.319 60.818V59.67C165.011 60.174 164.171 60.664 163.233 60.664C161.273 60.664 160.237 59.236 160.237 57.64V56.576C160.237 54.952 161.259 53.552 163.247 53.552C164.367 53.552 165.151 54.112 165.403 54.602V53.72H167.223V60.846C167.223 62.4 165.767 63.604 163.737 63.604ZM163.681 59.138C164.577 59.138 165.319 58.564 165.319 57.542V56.702C165.319 55.722 164.647 55.078 163.737 55.078C162.673 55.078 162.127 55.708 162.127 56.702V57.542C162.127 58.466 162.645 59.138 163.681 59.138ZM172.212 61.168C170.028 61.168 168.782 59.74 168.782 57.878V56.842C168.782 54.98 170.028 53.552 172.212 53.552C174.396 53.552 175.642 54.98 175.642 56.842V57.878C175.642 59.74 174.396 61.168 172.212 61.168ZM173.794 58.004V56.716C173.794 55.764 173.29 55.05 172.212 55.05C171.134 55.05 170.63 55.764 170.63 56.716V58.004C170.63 58.956 171.134 59.67 172.212 59.67C173.29 59.67 173.794 58.956 173.794 58.004ZM178.56 58.06V57.416C178.56 56.38 178.798 55.722 179.442 55.246L180.086 54.77C180.59 54.406 180.926 54.14 180.926 53.58C180.926 52.936 180.394 52.544 179.568 52.544C178.686 52.544 178.182 52.95 178.182 53.762V54.084H176.432V53.734C176.432 51.858 177.748 51.004 179.61 51.004C181.514 51.004 182.83 52.026 182.83 53.58C182.83 54.546 182.41 55.162 181.738 55.652L181.024 56.17C180.492 56.562 180.254 56.814 180.254 57.654V58.06H178.56ZM178.35 60.02C178.35 59.376 178.784 58.928 179.442 58.928C180.1 58.928 180.534 59.376 180.534 60.02C180.534 60.664 180.1 61.112 179.442 61.112C178.784 61.112 178.35 60.664 178.35 60.02Z" fill="#75777C"/>
<defs>
<linearGradient id="paint0_linear_3_767" x1="0" y1="42" x2="206" y2="42" gradientUnits="userSpaceOnUse">
<stop stop-color="#C5D8EF" stop-opacity="0.61"/>
<stop offset="0.31" stop-color="#A6B6CA" stop-opacity="0.39"/>
<stop offset="0.715" stop-color="#EBF3F9"/>
<stop offset="0.985" stop-color="#D6DBDF" stop-opacity="0.8"/>
</linearGradient>
</defs>
</svg>
